<?xml version="1.0" encoding="utf-8"?>
<!-- Generator: Adobe Illustrator 16.0.0, SVG Export Plug-In . SVG Version: 6.00 Build 0)  -->
<!DOCTYPE svg PUBLIC "-//W3C//DTD SVG 1.1//EN" "http://www.w3.org/Graphics/SVG/1.1/DTD/svg11.dtd">
<svg version="1.1" id="Layer_1" xmlns="http://www.w3.org/2000/svg" xmlns:xlink="http://www.w3.org/1999/xlink" x="0px" y="0px"
	 width="40px" height="40px" viewBox="0 0 40 40" enable-background="new 0 0 40 40" xml:space="preserve">
<path fill="#6D7377" d="M27.725,26.609"/>
<path fill="#6D7377" d="M21.88,3.298c-4.324-0.222-8.73,1.237-12.142,4.415c-5.31,4.945-6.672,12.508-3.882,18.799l-0.205,0.115
	L2.37,28.475l13.17,7.488l0.417-15.144l-3.821,2.153l-0.085,0.048c-1.244-3.476-0.386-7.479,2.486-10.155
	c1.99-1.854,4.569-2.69,7.09-2.532"/>
<path fill="#6D7377" d="M18.383,35.952c4.24,0.15,8.537-1.313,11.879-4.427c5.31-4.945,6.672-12.508,3.882-18.799l0.205-0.115
	l3.281-1.848L24.46,3.275l-0.417,15.144l3.821-2.153l0.085-0.048c1.244,3.476,0.386,7.479-2.486,10.155
	c-1.921,1.789-4.392,2.631-6.83,2.545"/>
</svg>
