<?xml version="1.0" encoding="utf-8"?>
<!-- Generator: Adobe Illustrator 17.1.0, SVG Export Plug-In . SVG Version: 6.00 Build 0)  -->
<!DOCTYPE svg PUBLIC "-//W3C//DTD SVG 1.1//EN" "http://www.w3.org/Graphics/SVG/1.1/DTD/svg11.dtd">
<svg version="1.1" id="Layer_1" xmlns="http://www.w3.org/2000/svg" xmlns:xlink="http://www.w3.org/1999/xlink" x="0px" y="0px"
	 viewBox="0 0 40 40" enable-background="new 0 0 40 40" xml:space="preserve">
<path fill="#6D7377" d="M17.2,31.1c1.4,2.3-3.9,5.2-5.8,5.2c-1.2,0-6.8-0.5-6.2-1.6c0.3-0.7,3-0.1,3.6-1.8c0.6-1.9,2.6-4,4.6-4
	c1.4,0,1.8,0,2.8,1C16.6,30.2,16.9,30.5,17.2,31.1z"/>
<linearGradient id="SVGID_1_" gradientUnits="userSpaceOnUse" x1="12.873" y1="16.334" x2="12.873" y2="4.9804" gradientTransform="matrix(1 0 0 -1 0 42)">
	<stop  offset="0" style="stop-color:#FFFFFF"/>
	<stop  offset="8.790000e-02" style="stop-color:#F8F8F8;stop-opacity:0.9121"/>
	<stop  offset="0.2165" style="stop-color:#E4E4E4;stop-opacity:0.7835"/>
	<stop  offset="0.3702" style="stop-color:#C4C4C4;stop-opacity:0.6298"/>
	<stop  offset="0.5433" style="stop-color:#979797;stop-opacity:0.4567"/>
	<stop  offset="0.7326" style="stop-color:#5E5E5E;stop-opacity:0.2674"/>
	<stop  offset="0.9325" style="stop-color:#191919;stop-opacity:6.750000e-02"/>
	<stop  offset="1" style="stop-color:#000000;stop-opacity:0"/>
</linearGradient>
<path fill="url(#SVGID_1_)" d="M11.4,34.2c-0.3,0-0.6,0-1.1-0.1c0.1-0.2,0.2-0.4,0.3-0.7c0.4-1.3,1.8-2.7,2.7-2.7c0.4,0,0.8,0,0.9,0
	c0,0,0.1,0.1,0.5,0.4c0.3,0.3,0.5,0.5,0.6,0.7C14.9,32.8,12.3,34.2,11.4,34.2z"/>
<g>
	<g>
		<path fill="#6D7377" d="M21,26.7c0.4-0.4,0.8-0.8,1.2-1.2l-3.4-2.9c-0.3,0.5-0.6,1-0.8,1.5L21,26.7z"/>
		
			<linearGradient id="SVGID_2_" gradientUnits="userSpaceOnUse" x1="20.096" y1="39" x2="20.096" y2="10.618" gradientTransform="matrix(1 0 0 -1 0 42)">
			<stop  offset="0" style="stop-color:#FFFFFF"/>
			<stop  offset="8.790000e-02" style="stop-color:#F8F8F8;stop-opacity:0.9121"/>
			<stop  offset="0.2165" style="stop-color:#E4E4E4;stop-opacity:0.7835"/>
			<stop  offset="0.3702" style="stop-color:#C4C4C4;stop-opacity:0.6298"/>
			<stop  offset="0.5433" style="stop-color:#979797;stop-opacity:0.4567"/>
			<stop  offset="0.7326" style="stop-color:#5E5E5E;stop-opacity:0.2674"/>
			<stop  offset="0.9325" style="stop-color:#191919;stop-opacity:6.750000e-02"/>
			<stop  offset="1" style="stop-color:#000000;stop-opacity:0"/>
		</linearGradient>
		<path fill="url(#SVGID_2_)" d="M21,26.7c0.4-0.4,0.8-0.8,1.2-1.2l-3.4-2.9c-0.3,0.5-0.6,1-0.8,1.5L21,26.7z"/>
		<path fill="#6D7377" d="M17.3,25.5c-0.1,0.2-0.2,0.3-0.2,0.5c-1.4,3.1-1.6,2.8-0.6,3.5c1,0.7,0.7,0.7,3.2-1.5
			c0.1-0.1,0.2-0.1,0.2-0.2L17.3,25.5z"/>
		
			<linearGradient id="SVGID_3_" gradientUnits="userSpaceOnUse" x1="17.8911" y1="39" x2="17.8911" y2="10.618" gradientTransform="matrix(1 0 0 -1 0 42)">
			<stop  offset="0" style="stop-color:#FFFFFF"/>
			<stop  offset="8.790000e-02" style="stop-color:#F8F8F8;stop-opacity:0.9121"/>
			<stop  offset="0.2165" style="stop-color:#E4E4E4;stop-opacity:0.7835"/>
			<stop  offset="0.3702" style="stop-color:#C4C4C4;stop-opacity:0.6298"/>
			<stop  offset="0.5433" style="stop-color:#979797;stop-opacity:0.4567"/>
			<stop  offset="0.7326" style="stop-color:#5E5E5E;stop-opacity:0.2674"/>
			<stop  offset="0.9325" style="stop-color:#191919;stop-opacity:6.750000e-02"/>
			<stop  offset="1" style="stop-color:#000000;stop-opacity:0"/>
		</linearGradient>
		<path fill="url(#SVGID_3_)" d="M17.3,25.5c-0.1,0.2-0.2,0.3-0.2,0.5c-1.4,3.1-1.6,2.8-0.6,3.5c1,0.7,0.7,0.7,3.2-1.5
			c0.1-0.1,0.2-0.1,0.2-0.2L17.3,25.5z"/>
	</g>
	<path fill="#6D7377" d="M35.4,3.9c-1.8-1.3-6.8,4.9-12.7,12.8c-1.2,1.6-2.2,3.1-3.1,4.5l3.7,3.1c1.2-1.3,2.4-2.8,3.6-4.5
		C32.7,11.9,37.1,5.2,35.4,3.9z"/>
	
		<linearGradient id="SVGID_4_" gradientUnits="userSpaceOnUse" x1="27.5445" y1="39" x2="27.5445" y2="10.618" gradientTransform="matrix(1 0 0 -1 0 42)">
		<stop  offset="0" style="stop-color:#FFFFFF"/>
		<stop  offset="8.790000e-02" style="stop-color:#F8F8F8;stop-opacity:0.9121"/>
		<stop  offset="0.2165" style="stop-color:#E4E4E4;stop-opacity:0.7835"/>
		<stop  offset="0.3702" style="stop-color:#C4C4C4;stop-opacity:0.6298"/>
		<stop  offset="0.5433" style="stop-color:#979797;stop-opacity:0.4567"/>
		<stop  offset="0.7326" style="stop-color:#5E5E5E;stop-opacity:0.2674"/>
		<stop  offset="0.9325" style="stop-color:#191919;stop-opacity:6.750000e-02"/>
		<stop  offset="1" style="stop-color:#000000;stop-opacity:0"/>
	</linearGradient>
	<path fill="url(#SVGID_4_)" d="M22.2,20.9c0.6-1,1.3-2,2.1-3c4.3-5.9,7-9,8.6-10.6c-1.1,2-3.3,5.5-7.6,11.4c-0.8,1-1.5,2-2.3,2.9
		L22.2,20.9z"/>
</g>
</svg>
