<?xml version="1.0" encoding="utf-8"?>
<!-- Generator: Adobe Illustrator 16.0.0, SVG Export Plug-In . SVG Version: 6.00 Build 0)  -->
<!DOCTYPE svg PUBLIC "-//W3C//DTD SVG 1.1//EN" "http://www.w3.org/Graphics/SVG/1.1/DTD/svg11.dtd">
<svg version="1.1" id="Layer_1" xmlns="http://www.w3.org/2000/svg" xmlns:xlink="http://www.w3.org/1999/xlink" x="0px" y="0px"
	 width="40px" height="40px" viewBox="0 0 40 40" enable-background="new 0 0 40 40" xml:space="preserve">
<g>
	<path fill="#6D7377" d="M14.142,13.358c1.08,0.545,2.097,1.153,3.104,1.771c1.011,0.613,1.966,1.284,2.951,1.923l2.833,2.043
		c0.944,0.681,1.823,1.427,2.738,2.137c0.915,0.71,1.812,1.438,2.668,2.207l2.607,2.268c0.865,0.76,1.689,1.561,2.536,2.34
		l2.466,2.408l-5.09,5.09l-2.405-2.471c-0.777-0.848-1.583-1.666-2.337-2.538l-2.269-2.606c-0.77-0.854-1.491-1.759-2.205-2.669
		c-0.71-0.916-1.459-1.791-2.137-2.738c-0.681-0.945-1.373-1.878-2.043-2.832c-0.64-0.984-1.312-1.938-1.926-2.949
		c-0.619-1.005-1.229-2.021-1.775-3.1l-0.095-0.188l0.234-0.234L14.142,13.358c3.305,3.195,6.588,6.412,9.844,9.656l9.797,9.703
		l-0.565,0.564l-9.703-9.797c-3.245-3.256-6.461-6.538-9.656-9.844l-0.139-0.144l0.233-0.234L14.142,13.358z"/>
</g>
<circle fill="#FFFFFF" stroke="#6D7377" stroke-width="3" stroke-linecap="round" stroke-linejoin="round" stroke-miterlimit="10" cx="14" cy="13.5" r="9.5"/>
<line fill="none" stroke="#6D7377" stroke-width="3" stroke-linecap="round" stroke-linejoin="round" stroke-miterlimit="10" x1="9" y1="13.5" x2="18" y2="13.5"/>
<line fill="none" stroke="#6D7377" stroke-width="3" stroke-linecap="round" stroke-linejoin="round" stroke-miterlimit="10" x1="13.5" y1="18" x2="13.5" y2="9"/>
</svg>
