<?xml version="1.0" encoding="utf-8"?>
<!-- Generator: Adobe Illustrator 16.0.0, SVG Export Plug-In . SVG Version: 6.00 Build 0)  -->
<!DOCTYPE svg PUBLIC "-//W3C//DTD SVG 1.1//EN" "http://www.w3.org/Graphics/SVG/1.1/DTD/svg11.dtd">
<svg version="1.1" xmlns="http://www.w3.org/2000/svg" xmlns:xlink="http://www.w3.org/1999/xlink" x="0px" y="0px"
	 width="87.891px" height="87.931px" viewBox="0 0 87.891 87.931" enable-background="new 0 0 87.891 87.931" xml:space="preserve">
<g id="Layer_1">
	<g display="none" opacity="0.4">
		<linearGradient id="SVGID_1_" gradientUnits="userSpaceOnUse" x1="116.8638" y1="94.1699" x2="138.1984" y2="125.9223">
			<stop  offset="0" style="stop-color:#946700"/>
			<stop  offset="0.0434" style="stop-color:#AE7400"/>
			<stop  offset="0.1359" style="stop-color:#F19500"/>
			<stop  offset="0.1538" style="stop-color:#FF9C00"/>
			<stop  offset="0.1613" style="stop-color:#FA9902"/>
			<stop  offset="0.2067" style="stop-color:#DE8A0F"/>
			<stop  offset="0.2526" style="stop-color:#CB7F19"/>
			<stop  offset="0.2989" style="stop-color:#BF781E"/>
			<stop  offset="0.3462" style="stop-color:#BB7620"/>
			<stop  offset="0.3907" style="stop-color:#98601A"/>
			<stop  offset="0.4661" style="stop-color:#623E11"/>
			<stop  offset="0.5365" style="stop-color:#38230A"/>
			<stop  offset="0.5997" style="stop-color:#191004"/>
			<stop  offset="0.6535" style="stop-color:#070401"/>
			<stop  offset="0.6914" style="stop-color:#000000"/>
			<stop  offset="0.7515" style="stop-color:#030200"/>
			<stop  offset="0.8019" style="stop-color:#0E0A00"/>
			<stop  offset="0.8489" style="stop-color:#1F1600"/>
			<stop  offset="0.8938" style="stop-color:#382700"/>
			<stop  offset="0.9373" style="stop-color:#573D00"/>
			<stop  offset="0.979" style="stop-color:#7E5700"/>
			<stop  offset="1" style="stop-color:#946700"/>
		</linearGradient>
		<polygon display="inline" fill="url(#SVGID_1_)" points="151.051,117.598 151.965,116.989 151.965,70.914 81.879,117.598 		"/>
		<linearGradient id="SVGID_2_" gradientUnits="userSpaceOnUse" x1="44.6704" y1="45.9233" x2="66.3901" y2="78.2488">
			<stop  offset="0" style="stop-color:#946700"/>
			<stop  offset="0.0434" style="stop-color:#AE7400"/>
			<stop  offset="0.1359" style="stop-color:#F19500"/>
			<stop  offset="0.1538" style="stop-color:#FF9C00"/>
			<stop  offset="0.1613" style="stop-color:#FA9902"/>
			<stop  offset="0.2067" style="stop-color:#DE8A0F"/>
			<stop  offset="0.2526" style="stop-color:#CB7F19"/>
			<stop  offset="0.2989" style="stop-color:#BF781E"/>
			<stop  offset="0.3462" style="stop-color:#BB7620"/>
			<stop  offset="0.3907" style="stop-color:#98601A"/>
			<stop  offset="0.4661" style="stop-color:#623E11"/>
			<stop  offset="0.5365" style="stop-color:#38230A"/>
			<stop  offset="0.5997" style="stop-color:#191004"/>
			<stop  offset="0.6535" style="stop-color:#070401"/>
			<stop  offset="0.6914" style="stop-color:#000000"/>
			<stop  offset="0.7515" style="stop-color:#030200"/>
			<stop  offset="0.8019" style="stop-color:#0E0A00"/>
			<stop  offset="0.8489" style="stop-color:#1F1600"/>
			<stop  offset="0.8938" style="stop-color:#382700"/>
			<stop  offset="0.9373" style="stop-color:#573D00"/>
			<stop  offset="0.979" style="stop-color:#7E5700"/>
			<stop  offset="1" style="stop-color:#946700"/>
		</linearGradient>
		<polygon display="inline" fill="url(#SVGID_2_)" points="151.965,21.072 151.965,-25.002 -62.121,117.598 7.051,117.598 		"/>
		<linearGradient id="SVGID_3_" gradientUnits="userSpaceOnUse" x1="21.9556" y1="13.2163" x2="43.6201" y2="45.4598">
			<stop  offset="0" style="stop-color:#946700"/>
			<stop  offset="0.0434" style="stop-color:#AE7400"/>
			<stop  offset="0.1359" style="stop-color:#F19500"/>
			<stop  offset="0.1538" style="stop-color:#FF9C00"/>
			<stop  offset="0.1613" style="stop-color:#FA9902"/>
			<stop  offset="0.2067" style="stop-color:#DE8A0F"/>
			<stop  offset="0.2526" style="stop-color:#CB7F19"/>
			<stop  offset="0.2989" style="stop-color:#BF781E"/>
			<stop  offset="0.3462" style="stop-color:#BB7620"/>
			<stop  offset="0.3907" style="stop-color:#98601A"/>
			<stop  offset="0.4661" style="stop-color:#623E11"/>
			<stop  offset="0.5365" style="stop-color:#38230A"/>
			<stop  offset="0.5997" style="stop-color:#191004"/>
			<stop  offset="0.6535" style="stop-color:#070401"/>
			<stop  offset="0.6914" style="stop-color:#000000"/>
			<stop  offset="0.7515" style="stop-color:#030200"/>
			<stop  offset="0.8019" style="stop-color:#0E0A00"/>
			<stop  offset="0.8489" style="stop-color:#1F1600"/>
			<stop  offset="0.8938" style="stop-color:#382700"/>
			<stop  offset="0.9373" style="stop-color:#573D00"/>
			<stop  offset="0.979" style="stop-color:#7E5700"/>
			<stop  offset="1" style="stop-color:#946700"/>
		</linearGradient>
		<polygon display="inline" fill="url(#SVGID_3_)" points="81.879,-26.402 -64.035,70.914 -64.035,116.988 151.051,-26.402 		"/>
		<linearGradient id="SVGID_4_" gradientUnits="userSpaceOnUse" x1="-13.9478" y1="-10.6191" x2="7.5246" y2="21.3382">
			<stop  offset="0" style="stop-color:#946700"/>
			<stop  offset="0.0434" style="stop-color:#AE7400"/>
			<stop  offset="0.1359" style="stop-color:#F19500"/>
			<stop  offset="0.1538" style="stop-color:#FF9C00"/>
			<stop  offset="0.1613" style="stop-color:#FA9902"/>
			<stop  offset="0.2067" style="stop-color:#DE8A0F"/>
			<stop  offset="0.2526" style="stop-color:#CB7F19"/>
			<stop  offset="0.2989" style="stop-color:#BF781E"/>
			<stop  offset="0.3462" style="stop-color:#BB7620"/>
			<stop  offset="0.3907" style="stop-color:#98601A"/>
			<stop  offset="0.4661" style="stop-color:#623E11"/>
			<stop  offset="0.5365" style="stop-color:#38230A"/>
			<stop  offset="0.5997" style="stop-color:#191004"/>
			<stop  offset="0.6535" style="stop-color:#070401"/>
			<stop  offset="0.6914" style="stop-color:#000000"/>
			<stop  offset="0.7515" style="stop-color:#030200"/>
			<stop  offset="0.8019" style="stop-color:#0E0A00"/>
			<stop  offset="0.8489" style="stop-color:#1F1600"/>
			<stop  offset="0.8938" style="stop-color:#382700"/>
			<stop  offset="0.9373" style="stop-color:#573D00"/>
			<stop  offset="0.979" style="stop-color:#7E5700"/>
			<stop  offset="1" style="stop-color:#946700"/>
		</linearGradient>
		<polygon display="inline" fill="url(#SVGID_4_)" points="9.88,-26.402 -64.035,22.956 -64.035,69.03 79.051,-26.402 		"/>
		<linearGradient id="SVGID_5_" gradientUnits="userSpaceOnUse" x1="80.7676" y1="70.0469" x2="102.2944" y2="102.0854">
			<stop  offset="0" style="stop-color:#946700"/>
			<stop  offset="0.0434" style="stop-color:#AE7400"/>
			<stop  offset="0.1359" style="stop-color:#F19500"/>
			<stop  offset="0.1538" style="stop-color:#FF9C00"/>
			<stop  offset="0.1613" style="stop-color:#FA9902"/>
			<stop  offset="0.2067" style="stop-color:#DE8A0F"/>
			<stop  offset="0.2526" style="stop-color:#CB7F19"/>
			<stop  offset="0.2989" style="stop-color:#BF781E"/>
			<stop  offset="0.3462" style="stop-color:#BB7620"/>
			<stop  offset="0.3907" style="stop-color:#98601A"/>
			<stop  offset="0.4661" style="stop-color:#623E11"/>
			<stop  offset="0.5365" style="stop-color:#38230A"/>
			<stop  offset="0.5997" style="stop-color:#191004"/>
			<stop  offset="0.6535" style="stop-color:#070401"/>
			<stop  offset="0.6914" style="stop-color:#000000"/>
			<stop  offset="0.7515" style="stop-color:#030200"/>
			<stop  offset="0.8019" style="stop-color:#0E0A00"/>
			<stop  offset="0.8489" style="stop-color:#1F1600"/>
			<stop  offset="0.8938" style="stop-color:#382700"/>
			<stop  offset="0.9373" style="stop-color:#573D00"/>
			<stop  offset="0.979" style="stop-color:#7E5700"/>
			<stop  offset="1" style="stop-color:#946700"/>
		</linearGradient>
		<polygon display="inline" fill="url(#SVGID_5_)" points="79.051,117.598 151.965,69.03 151.965,22.956 9.879,117.598 		"/>
		<linearGradient id="SVGID_6_" gradientUnits="userSpaceOnUse" x1="-49.9038" y1="-34.5332" x2="-28.5708" y2="-2.7832">
			<stop  offset="0" style="stop-color:#946700"/>
			<stop  offset="0.0434" style="stop-color:#AE7400"/>
			<stop  offset="0.1359" style="stop-color:#F19500"/>
			<stop  offset="0.1538" style="stop-color:#FF9C00"/>
			<stop  offset="0.1613" style="stop-color:#FA9902"/>
			<stop  offset="0.2067" style="stop-color:#DE8A0F"/>
			<stop  offset="0.2526" style="stop-color:#CB7F19"/>
			<stop  offset="0.2989" style="stop-color:#BF781E"/>
			<stop  offset="0.3462" style="stop-color:#BB7620"/>
			<stop  offset="0.3907" style="stop-color:#98601A"/>
			<stop  offset="0.4661" style="stop-color:#623E11"/>
			<stop  offset="0.5365" style="stop-color:#38230A"/>
			<stop  offset="0.5997" style="stop-color:#191004"/>
			<stop  offset="0.6535" style="stop-color:#070401"/>
			<stop  offset="0.6914" style="stop-color:#000000"/>
			<stop  offset="0.7515" style="stop-color:#030200"/>
			<stop  offset="0.8019" style="stop-color:#0E0A00"/>
			<stop  offset="0.8489" style="stop-color:#1F1600"/>
			<stop  offset="0.8938" style="stop-color:#382700"/>
			<stop  offset="0.9373" style="stop-color:#573D00"/>
			<stop  offset="0.979" style="stop-color:#7E5700"/>
			<stop  offset="1" style="stop-color:#946700"/>
		</linearGradient>
		<polygon display="inline" fill="url(#SVGID_6_)" points="-62.121,-26.402 -64.035,-25.002 -64.035,21.072 7.052,-26.402 		"/>
	</g>
</g>
<g id="Layer_3">
</g>
<g id="Layer_2">
	<g>
		<defs>
			<circle id="SVGID_7_" cx="43.965" cy="43.965" r="43.965"/>
		</defs>
		<clipPath id="SVGID_8_">
			<use xlink:href="#SVGID_7_"  overflow="visible"/>
		</clipPath>
		<g id="Layer_4_1_" clip-path="url(#SVGID_8_)">
		</g>
		<circle clip-path="url(#SVGID_8_)" fill="#A1C6FF" cx="43.945" cy="44.161" r="44.162"/>
		<polygon clip-path="url(#SVGID_8_)" fill="#518156" stroke="#000000" stroke-miterlimit="10" points="94.967,53.07 
			-11.176,49.263 -4.048,88.323 85.669,89.709 		"/>
		<path clip-path="url(#SVGID_8_)" fill="#43362D" d="M52.624,30.979c1.161-0.465,6.042-1.395,8.134-1.744
			c2.093-0.349,2.673-0.116,3.836-0.464c1.162-0.349,5.732-2.861,10.381-3.326s8.33-0.393,11.932,0.537
			c3.603,0.93,5.23,15.922,5.23,15.922s-33.633,6.202-36.027,8.483c-1.667,1.588-0.638,3.454-0.365,4.235
			c0.465,1.328,0.779,3.233,1.411,4.132c1.143,1.628,2.44,4.417-3.371,7.206c-5.811,2.789-7.786,6.161-10.343,9.646
			c-2.557,3.487-16.502,10.227-25.102,9.414C9.74,84.206-5.833,42.252-4.206,38.881C-2.58,35.511,52.624,30.979,52.624,30.979z"/>
		<path clip-path="url(#SVGID_8_)" fill="#455B32" d="M86.906,25.981c-3.603-0.929-7.284-1.001-11.932-0.537
			c-2.295,0.23-4.569,0.958-6.426,1.679c-0.646,0.464-1.164,0.964-1.164,1.464c0,0.93,0.311,2.091,6.199,2.789
			c5.888,0.697,8.135,1.162,9.065,2.169c0.689,0.747,5.598,0.386,8.088,0.149C89.878,30.028,88.615,26.423,86.906,25.981z"/>
		<path clip-path="url(#SVGID_8_)" fill="#4B7D31" stroke="#3C761E" stroke-miterlimit="10" d="M86.906,26.114
			c-3.603-0.93-7.284-1.002-11.932-0.537c-2.295,0.229-4.569,0.958-6.426,1.679c-0.646,0.464-1.164,0.964-1.164,1.464
			c0,0.93,0.311,2.092,6.199,2.789s8.135,1.162,9.065,2.169c0.689,0.748,5.598,0.386,8.088,0.15
			C89.878,30.16,88.615,26.554,86.906,26.114z"/>
		<path clip-path="url(#SVGID_8_)" fill="#518156" d="M-4.048,39.862c0.697,0.581,4.184,3.138,5.81,3.719
			c1.627,0.581,17.433,2.485,19.06,2.905c1.627,0.421,13.897,1.097,13.896,4.882c-0.002,4.183-16.482,5.419-18.429,6.275
			c-2.304,1.013-2.324,2.9-6.043,5.579c-1.982,1.428-8.367,1.859-10.11,3.021S-4.048,39.862-4.048,39.862z"/>
		<path clip-path="url(#SVGID_8_)" fill="#518156" d="M42.903,45.711c2.79-2.325,18.811-5.554,21.384-7.749
			c2.439-2.081,1.759-3.098,1.442-3.601c-1.733-0.143-4.14,0.102-5.86-0.543c-1.859-0.697-4.88-2.905-5.811-3.37
			c-0.93-0.465-2.672-1.046-4.997-1.627s-4.184-0.465-4.765-1.162c-0.581-0.698-0.813-2.208-1.743-3.138
			c-0.93-0.93-2.093-1.162-3.254-2.092c-1.163-0.929-1.675-1.385-4.185-1.743C25.012,19.247-5.017,31.084-5.443,31.921
			c-0.581,11.119,17.316,12.24,21.384,12.822c4.067,0.581,12.784,1.162,18.595,2.324C34.536,47.067,40.114,48.036,42.903,45.711z"/>
		<path clip-path="url(#SVGID_8_)" fill="#8EADE7" d="M4.009,72.521c0,0,11.775-3.41,13.635-5.579
			c1.859-2.17-0.154-3.257,2.325-6.399c3.528-4.475,19.749-4.723,21.694-7.238c2.634-3.41,1.221-4.325,2.634-5.889
			c2.944-3.255,20.144-7.437,21.383-8.367c1.24-0.929,2.246-3.953-0.348-4.534c-1.91-0.428-2.952-0.009-4.33-0.402
			c-1.378-0.394-2.571-0.982-2.571-0.982s6.978,0.843,8.877,0.727c1.898-0.116,6.651,2.218,5.617,4.726
			c-2.421,5.87-16.821,2.138-20.373,12.43c-0.93,2.694,3.81,6.13,3.134,8.141c-1.936,5.772-11.388,4.416-12.899,8.251
			c-1.51,3.836,0.101,5.066-1.396,7.089c-4.335,5.866-17.083,6.974-18.593,13.83L4.009,72.521z"/>
		<path clip-path="url(#SVGID_8_)" fill="#518156" d="M93.139,33.171c0,0-6.354-2.479-8.988-1.859
			c-2.634,0.62-4.261,2.579-5.772,3.458c-1.511,0.88-3.412,1.573-5.578,2.508c-2.167,0.934-3.253,3.486-5.229,4.416
			c-1.977,0.93-4.444,1.327-6.945,1.713c-4.881,0.755-7.087,5.624-7.154,6.517c-0.225,3.012,2.621,6.674,3.684,8.831
			c4.533-1.511,15.412,0.488,17.853,0.953c2.44,0.464,13.945-1.046,15.688-2.092C92.441,56.569,93.139,33.171,93.139,33.171z"/>
		<path clip-path="url(#SVGID_8_)" fill="#638156" d="M87.181,62.059c0,0-7.438,1.627-13.017,1.743
			c-5.578,0.116-6.74,0.116-10.924,3.138c-4.184,3.022-7.555,8.368-9.064,9.646c-1.511,1.279-2.79,3.835-2.209,5.113
			c0.582,1.279,0.644,6.741-0.142,7.903C51.038,90.764,86.6,82.513,87.181,62.059z"/>
		<path clip-path="url(#SVGID_8_)" fill="#4B7D31" stroke="#3C761E" stroke-miterlimit="10" d="M-4.823,42.922
			c0,0,4.958,3.177,9.219,4.184c5.104,1.207,16.495,1.24,16.495,3.623c0,1.57-9.109,1.006-12.54,3.505
			c-2.835,2.065-3.412,4.959-7.751,4.959"/>
		<path clip-path="url(#SVGID_8_)" fill="#4B7D31" stroke="#3C761E" stroke-miterlimit="10" d="M85.049,62.524
			c-3.022,0.542-6.121,1.241-7.825,1.162c-1.705-0.077-6.663-0.607-8.678,0.006c-2.015,0.614-2.789,1.001-4.184,1.854
			s-2.634,0.542-3.951,2.015c-1.318,1.472-1.859,3.563-3.099,5.036s-4.107,3.486-4.959,5.423c-0.853,1.937,1.161,2.402,1.085,4.34
			c-0.078,1.936-4.495,6.661-5.812,7.902c-1.317,1.239,19.834-2.403,19.834-2.403l16.813-13.791L85.049,62.524z"/>
		<path clip-path="url(#SVGID_8_)" fill="#4B7D31" stroke="#3C761E" stroke-miterlimit="10" d="M84.15,31.312
			c-2.634,0.62-4.261,2.579-5.772,3.458c-1.511,0.88-3.412,1.573-5.578,2.508c-2.167,0.934-3.253,3.486-5.229,4.416
			c-0.268,0.125-0.545,0.24-0.828,0.347c-1.881,0.986-5.464,1.706-6.331,4.06c-1.085,2.944,6.585,2.557,8.599,3.564
			c2.015,1.007-0.465,4.261,1.782,5.579c2.248,1.317,7.051-1.085,9.298-1.627c2.247-0.542,8.368,0,8.368,0l0.879-21.688
			C87.489,31.421,85.401,31.018,84.15,31.312z"/>
		<path clip-path="url(#SVGID_8_)" fill="#455B32" stroke="#3C761E" stroke-miterlimit="10" d="M88.81,44.954l0.529-13.027
			c-1.85-0.505-3.937-0.909-5.188-0.615c-2.634,0.62-4.261,2.579-5.772,3.458c-1.511,0.88-3.412,1.573-5.578,2.508
			c-1.733,0.747-2.777,2.53-4.137,3.688c-0.38,0.685-0.23,1.325,0.504,1.802c1.615,1.048,5.811-0.232,7.09,0
			c1.278,0.232,1.975,1.743,4.648,2.092C82.546,45.073,86.157,45.024,88.81,44.954z"/>
		<path clip-path="url(#SVGID_8_)" fill="#455B32" d="M88.81,44.49l0.529-13.028c-1.85-0.505-3.937-0.909-5.188-0.615
			c-2.634,0.619-4.261,2.578-5.772,3.458c-1.511,0.879-3.412,1.573-5.578,2.507c-1.733,0.748-2.777,2.529-4.137,3.688
			c-0.38,0.685-0.23,1.325,0.504,1.802c1.615,1.049,5.811-0.231,7.09,0c1.278,0.233,1.975,1.744,4.648,2.093
			C82.546,44.608,86.157,44.559,88.81,44.49z"/>
		<path clip-path="url(#SVGID_8_)" fill="#4B7D31" stroke="#3C761E" stroke-miterlimit="10" d="M59.87,33.818
			c-1.859-0.697-4.88-2.905-5.811-3.37c-0.93-0.465-2.672-1.046-4.997-1.627s-4.184-0.465-4.765-1.162
			c-0.581-0.698-0.813-2.208-1.743-3.138c-0.93-0.93-2.093-1.162-3.254-2.092c-1.163-0.929-1.675-1.385-4.185-1.743
			c-7.79-1.11-27.42,5.671-36.2,9.219l-0.331,1.55c0,0,6.044,6.277,30.139,5.967s24.87-0.388,26.73-1.163
			c1.584-0.66,4.852-1.264,4.923-2.291C60.206,33.922,60.031,33.879,59.87,33.818z"/>
		<path clip-path="url(#SVGID_8_)" fill="#455B32" stroke="#3C761E" stroke-miterlimit="10" d="M39.417,28.821
			c3.091-0.251,4.256-0.743,4.669-1.474c-0.442-0.771-0.723-2.018-1.531-2.826c-0.93-0.93-2.093-1.162-3.254-2.092
			c-1.163-0.929-1.675-1.385-4.185-1.743c-4.373-0.623-12.476,1.241-20.295,3.622c-1.987,1.174-2.599,1.42-2.599,2.072
			c0,0.698,2.208,1.395,4.765,2.092c2.557,0.697,8.484,0.349,12.551,0.349S35.116,29.17,39.417,28.821z"/>
		<path clip-path="url(#SVGID_8_)" fill="#455B32" d="M39.417,28.356c3.091-0.25,4.256-0.743,4.669-1.474
			c-0.442-0.771-0.723-2.017-1.531-2.826c-0.93-0.93-2.093-1.162-3.254-2.092c-1.163-0.929-1.675-1.385-4.185-1.743
			c-4.373-0.623-12.476,1.24-20.295,3.622c-1.987,1.173-2.599,1.419-2.599,2.072c0,0.697,2.208,1.395,4.765,2.092
			c2.557,0.697,8.484,0.349,12.551,0.349S35.116,28.705,39.417,28.356z"/>
		<path opacity="0.3" clip-path="url(#SVGID_8_)" fill="#FFFFFF" d="M19.034,70.022c-0.815,0.979,2.188-5.569,4.376-7.559
			s15.516-4.576,16.511-4.973c0.995-0.398-9.549,3.779-11.538,4.973C26.394,63.657,24.174,63.854,19.034,70.022z"/>
		<path opacity="0.5" clip-path="url(#SVGID_8_)" fill="#FFFFFF" d="M54.442,10.942c-0.665,2.53,2.984,4.973,8.157,5.769
			c5.172,0.795,11.937,0.596,14.721,0c2.785-0.597,7.559,2.386,7.559,2.386l3.581-9.946c0,0-12.333-4.774-15.517-4.576
			c-3.182,0.199-8.553,0.199-9.946,1.393C61.604,7.162,55.438,7.162,54.442,10.942z"/>
		<path opacity="0.6" clip-path="url(#SVGID_8_)" fill="#FFFFFF" d="M57.228,10.543c0,0,0,2.586,3.184,3.979
			c3.182,1.393,16.311,1.194,19.892,0.597c3.581-0.597-0.199-5.968-3.183-6.962C74.138,7.162,64.986,9.151,63.396,9.35
			C61.804,9.549,57.825,8.753,57.228,10.543z"/>
		<path opacity="0.3" clip-path="url(#SVGID_8_)" fill="#FFFFFF" d="M13.859,80.806c0,0,6.169-1.235,8.357-3.025
			c2.189-1.79,7.361-9.945,9.35-10.94c1.989-0.995,6.763-1.393,6.763-1.393s-7.432,4.377-8.888,6.764
			C27.986,74.599,17.82,83.127,15.045,83.14C12.27,83.151,13.859,80.806,13.859,80.806z"/>
		<path opacity="0.3" clip-path="url(#SVGID_8_)" fill="#FFFFFF" d="M43.104,59.679c1.592-0.796,4.378-4.833,4.576-6.564
			c0.197-1.733-0.597-3.581,0-4.377c0.597-0.797-2.156,2.387-2.271,4.177c-0.117,1.791-4.958,7.758-5.421,7.958
			C39.523,61.07,43.104,59.679,43.104,59.679z"/>
	</g>
	<g>
		<defs>
			<circle id="SVGID_9_" cx="78.628" cy="47.776" r="74"/>
		</defs>
		<clipPath id="SVGID_10_">
			<use xlink:href="#SVGID_9_"  overflow="visible"/>
		</clipPath>
	</g>
</g>
<g id="Layer_4">
</g>
</svg>
