<?xml version="1.0" encoding="utf-8"?>
<!-- Generator: Adobe Illustrator 16.0.0, SVG Export Plug-In . SVG Version: 6.00 Build 0)  -->
<!DOCTYPE svg PUBLIC "-//W3C//DTD SVG 1.1//EN" "http://www.w3.org/Graphics/SVG/1.1/DTD/svg11.dtd">
<svg version="1.1" xmlns="http://www.w3.org/2000/svg" xmlns:xlink="http://www.w3.org/1999/xlink" x="0px" y="0px"
	 width="87.891px" height="87.931px" viewBox="0 0 87.891 87.931" enable-background="new 0 0 87.891 87.931" xml:space="preserve">
<g id="Layer_1">
	<g display="none" opacity="0.4">
		<linearGradient id="SVGID_1_" gradientUnits="userSpaceOnUse" x1="116.8638" y1="94.1699" x2="138.1984" y2="125.9223">
			<stop  offset="0" style="stop-color:#946700"/>
			<stop  offset="0.0434" style="stop-color:#AE7400"/>
			<stop  offset="0.1359" style="stop-color:#F19500"/>
			<stop  offset="0.1538" style="stop-color:#FF9C00"/>
			<stop  offset="0.1613" style="stop-color:#FA9902"/>
			<stop  offset="0.2067" style="stop-color:#DE8A0F"/>
			<stop  offset="0.2526" style="stop-color:#CB7F19"/>
			<stop  offset="0.2989" style="stop-color:#BF781E"/>
			<stop  offset="0.3462" style="stop-color:#BB7620"/>
			<stop  offset="0.3907" style="stop-color:#98601A"/>
			<stop  offset="0.4661" style="stop-color:#623E11"/>
			<stop  offset="0.5365" style="stop-color:#38230A"/>
			<stop  offset="0.5997" style="stop-color:#191004"/>
			<stop  offset="0.6535" style="stop-color:#070401"/>
			<stop  offset="0.6914" style="stop-color:#000000"/>
			<stop  offset="0.7515" style="stop-color:#030200"/>
			<stop  offset="0.8019" style="stop-color:#0E0A00"/>
			<stop  offset="0.8489" style="stop-color:#1F1600"/>
			<stop  offset="0.8938" style="stop-color:#382700"/>
			<stop  offset="0.9373" style="stop-color:#573D00"/>
			<stop  offset="0.979" style="stop-color:#7E5700"/>
			<stop  offset="1" style="stop-color:#946700"/>
		</linearGradient>
		<polygon display="inline" fill="url(#SVGID_1_)" points="151.051,117.598 151.965,116.989 151.965,70.914 81.879,117.598 		"/>
		<linearGradient id="SVGID_2_" gradientUnits="userSpaceOnUse" x1="44.6704" y1="45.9233" x2="66.3901" y2="78.2488">
			<stop  offset="0" style="stop-color:#946700"/>
			<stop  offset="0.0434" style="stop-color:#AE7400"/>
			<stop  offset="0.1359" style="stop-color:#F19500"/>
			<stop  offset="0.1538" style="stop-color:#FF9C00"/>
			<stop  offset="0.1613" style="stop-color:#FA9902"/>
			<stop  offset="0.2067" style="stop-color:#DE8A0F"/>
			<stop  offset="0.2526" style="stop-color:#CB7F19"/>
			<stop  offset="0.2989" style="stop-color:#BF781E"/>
			<stop  offset="0.3462" style="stop-color:#BB7620"/>
			<stop  offset="0.3907" style="stop-color:#98601A"/>
			<stop  offset="0.4661" style="stop-color:#623E11"/>
			<stop  offset="0.5365" style="stop-color:#38230A"/>
			<stop  offset="0.5997" style="stop-color:#191004"/>
			<stop  offset="0.6535" style="stop-color:#070401"/>
			<stop  offset="0.6914" style="stop-color:#000000"/>
			<stop  offset="0.7515" style="stop-color:#030200"/>
			<stop  offset="0.8019" style="stop-color:#0E0A00"/>
			<stop  offset="0.8489" style="stop-color:#1F1600"/>
			<stop  offset="0.8938" style="stop-color:#382700"/>
			<stop  offset="0.9373" style="stop-color:#573D00"/>
			<stop  offset="0.979" style="stop-color:#7E5700"/>
			<stop  offset="1" style="stop-color:#946700"/>
		</linearGradient>
		<polygon display="inline" fill="url(#SVGID_2_)" points="151.965,21.072 151.965,-25.002 -62.121,117.598 7.051,117.598 		"/>
		<linearGradient id="SVGID_3_" gradientUnits="userSpaceOnUse" x1="21.9556" y1="13.2163" x2="43.6201" y2="45.4598">
			<stop  offset="0" style="stop-color:#946700"/>
			<stop  offset="0.0434" style="stop-color:#AE7400"/>
			<stop  offset="0.1359" style="stop-color:#F19500"/>
			<stop  offset="0.1538" style="stop-color:#FF9C00"/>
			<stop  offset="0.1613" style="stop-color:#FA9902"/>
			<stop  offset="0.2067" style="stop-color:#DE8A0F"/>
			<stop  offset="0.2526" style="stop-color:#CB7F19"/>
			<stop  offset="0.2989" style="stop-color:#BF781E"/>
			<stop  offset="0.3462" style="stop-color:#BB7620"/>
			<stop  offset="0.3907" style="stop-color:#98601A"/>
			<stop  offset="0.4661" style="stop-color:#623E11"/>
			<stop  offset="0.5365" style="stop-color:#38230A"/>
			<stop  offset="0.5997" style="stop-color:#191004"/>
			<stop  offset="0.6535" style="stop-color:#070401"/>
			<stop  offset="0.6914" style="stop-color:#000000"/>
			<stop  offset="0.7515" style="stop-color:#030200"/>
			<stop  offset="0.8019" style="stop-color:#0E0A00"/>
			<stop  offset="0.8489" style="stop-color:#1F1600"/>
			<stop  offset="0.8938" style="stop-color:#382700"/>
			<stop  offset="0.9373" style="stop-color:#573D00"/>
			<stop  offset="0.979" style="stop-color:#7E5700"/>
			<stop  offset="1" style="stop-color:#946700"/>
		</linearGradient>
		<polygon display="inline" fill="url(#SVGID_3_)" points="81.879,-26.402 -64.035,70.914 -64.035,116.988 151.051,-26.402 		"/>
		<linearGradient id="SVGID_4_" gradientUnits="userSpaceOnUse" x1="-13.9478" y1="-10.6191" x2="7.5246" y2="21.3382">
			<stop  offset="0" style="stop-color:#946700"/>
			<stop  offset="0.0434" style="stop-color:#AE7400"/>
			<stop  offset="0.1359" style="stop-color:#F19500"/>
			<stop  offset="0.1538" style="stop-color:#FF9C00"/>
			<stop  offset="0.1613" style="stop-color:#FA9902"/>
			<stop  offset="0.2067" style="stop-color:#DE8A0F"/>
			<stop  offset="0.2526" style="stop-color:#CB7F19"/>
			<stop  offset="0.2989" style="stop-color:#BF781E"/>
			<stop  offset="0.3462" style="stop-color:#BB7620"/>
			<stop  offset="0.3907" style="stop-color:#98601A"/>
			<stop  offset="0.4661" style="stop-color:#623E11"/>
			<stop  offset="0.5365" style="stop-color:#38230A"/>
			<stop  offset="0.5997" style="stop-color:#191004"/>
			<stop  offset="0.6535" style="stop-color:#070401"/>
			<stop  offset="0.6914" style="stop-color:#000000"/>
			<stop  offset="0.7515" style="stop-color:#030200"/>
			<stop  offset="0.8019" style="stop-color:#0E0A00"/>
			<stop  offset="0.8489" style="stop-color:#1F1600"/>
			<stop  offset="0.8938" style="stop-color:#382700"/>
			<stop  offset="0.9373" style="stop-color:#573D00"/>
			<stop  offset="0.979" style="stop-color:#7E5700"/>
			<stop  offset="1" style="stop-color:#946700"/>
		</linearGradient>
		<polygon display="inline" fill="url(#SVGID_4_)" points="9.88,-26.402 -64.035,22.956 -64.035,69.03 79.051,-26.402 		"/>
		<linearGradient id="SVGID_5_" gradientUnits="userSpaceOnUse" x1="80.7676" y1="70.0469" x2="102.2944" y2="102.0854">
			<stop  offset="0" style="stop-color:#946700"/>
			<stop  offset="0.0434" style="stop-color:#AE7400"/>
			<stop  offset="0.1359" style="stop-color:#F19500"/>
			<stop  offset="0.1538" style="stop-color:#FF9C00"/>
			<stop  offset="0.1613" style="stop-color:#FA9902"/>
			<stop  offset="0.2067" style="stop-color:#DE8A0F"/>
			<stop  offset="0.2526" style="stop-color:#CB7F19"/>
			<stop  offset="0.2989" style="stop-color:#BF781E"/>
			<stop  offset="0.3462" style="stop-color:#BB7620"/>
			<stop  offset="0.3907" style="stop-color:#98601A"/>
			<stop  offset="0.4661" style="stop-color:#623E11"/>
			<stop  offset="0.5365" style="stop-color:#38230A"/>
			<stop  offset="0.5997" style="stop-color:#191004"/>
			<stop  offset="0.6535" style="stop-color:#070401"/>
			<stop  offset="0.6914" style="stop-color:#000000"/>
			<stop  offset="0.7515" style="stop-color:#030200"/>
			<stop  offset="0.8019" style="stop-color:#0E0A00"/>
			<stop  offset="0.8489" style="stop-color:#1F1600"/>
			<stop  offset="0.8938" style="stop-color:#382700"/>
			<stop  offset="0.9373" style="stop-color:#573D00"/>
			<stop  offset="0.979" style="stop-color:#7E5700"/>
			<stop  offset="1" style="stop-color:#946700"/>
		</linearGradient>
		<polygon display="inline" fill="url(#SVGID_5_)" points="79.051,117.598 151.965,69.03 151.965,22.956 9.879,117.598 		"/>
		<linearGradient id="SVGID_6_" gradientUnits="userSpaceOnUse" x1="-49.9038" y1="-34.5332" x2="-28.5708" y2="-2.7832">
			<stop  offset="0" style="stop-color:#946700"/>
			<stop  offset="0.0434" style="stop-color:#AE7400"/>
			<stop  offset="0.1359" style="stop-color:#F19500"/>
			<stop  offset="0.1538" style="stop-color:#FF9C00"/>
			<stop  offset="0.1613" style="stop-color:#FA9902"/>
			<stop  offset="0.2067" style="stop-color:#DE8A0F"/>
			<stop  offset="0.2526" style="stop-color:#CB7F19"/>
			<stop  offset="0.2989" style="stop-color:#BF781E"/>
			<stop  offset="0.3462" style="stop-color:#BB7620"/>
			<stop  offset="0.3907" style="stop-color:#98601A"/>
			<stop  offset="0.4661" style="stop-color:#623E11"/>
			<stop  offset="0.5365" style="stop-color:#38230A"/>
			<stop  offset="0.5997" style="stop-color:#191004"/>
			<stop  offset="0.6535" style="stop-color:#070401"/>
			<stop  offset="0.6914" style="stop-color:#000000"/>
			<stop  offset="0.7515" style="stop-color:#030200"/>
			<stop  offset="0.8019" style="stop-color:#0E0A00"/>
			<stop  offset="0.8489" style="stop-color:#1F1600"/>
			<stop  offset="0.8938" style="stop-color:#382700"/>
			<stop  offset="0.9373" style="stop-color:#573D00"/>
			<stop  offset="0.979" style="stop-color:#7E5700"/>
			<stop  offset="1" style="stop-color:#946700"/>
		</linearGradient>
		<polygon display="inline" fill="url(#SVGID_6_)" points="-62.121,-26.402 -64.035,-25.002 -64.035,21.072 7.052,-26.402 		"/>
	</g>
</g>
<g id="Layer_3">
</g>
<g id="Layer_2">
	<g>
		<defs>
			<circle id="SVGID_7_" cx="43.965" cy="43.965" r="43.965"/>
		</defs>
		<clipPath id="SVGID_8_">
			<use xlink:href="#SVGID_7_"  overflow="visible"/>
		</clipPath>
		<path clip-path="url(#SVGID_8_)" fill="#A1C6FF" d="M87.978,43.536c0,19.485-19.64,43.868-43.868,43.868
			c-24.228,0-43.868-24.382-43.868-43.868c0-24.228,19.641-43.868,43.868-43.868C68.337-0.332,87.978,19.309,87.978,43.536z"/>
		<path clip-path="url(#SVGID_8_)" fill="#394A34" d="M-7.464,24.566c39.263,1.9,39.207,1.883,45.182,3.875
			c5.928,1.976,25.065-5.644,31.852-6.641c26.873-3.953,13.635,4.292,13.635,4.292l3.557,13.689l-97.813-5.138L-7.464,24.566z"/>
		<path clip-path="url(#SVGID_8_)" fill="#878256" d="M52.379,30.441c1.23-0.182,6.003-1.386,8.081-1.732
			c2.078-0.346,2.655-0.115,3.81-0.462c1.154-0.346,5.694-2.842,10.312-3.303c4.618-0.462,11.368,0.873,14.946,1.796
			c3.579,0.923,2.1,14.552,2.1,14.552c-1.098-3.241,8.054,19.042,5.014,23.19c-32.012,43.67-69.775,20.446-78.319,19.639
			c-1.59-0.151-35.354-40.534-20.878-55.009C0.074,26.482,38.79,32.445,52.379,30.441z"/>
		<path clip-path="url(#SVGID_8_)" fill="#775E4C" d="M83.872,39.556c-0.687-5.272-20.994-3.377-41.54-1.932
			c-14.957,1.052-37.973,2.355-37.775,5.912c0.254,4.577,4.162,2.024,3.557,5.335c-0.328,1.794-8.096,4.845-0.535,7.301
			c9.345,3.035,23.93,0.599,34.753,1.295c2.476,0.159,5.384-1.435,8.464-1.3c6.257,0.271,3.359,2.584,18.703,1.322
			c9.067-0.747,14.378-4.646,14.699-7.36c0.55-4.661-4.93-0.457-4.355-4.814C80.417,40.957,84.42,43.777,83.872,39.556z"/>
		<path clip-path="url(#SVGID_8_)" fill="#8EADE7" d="M12.963,44.883c0.19-2,15.608-4.292,21.236-4.311
			c7.539-0.027,23.36-2.45,27.223-2.035c3.863,0.414,16.005,0.784,16.143,2.875c0.138,2.092-5.657,4.437-5.243,6.507
			c0.414,2.069,7.878,0.068,7.326,2.139c-0.552,2.068-10.272,5.374-15.413,5.729c-5.73,0.395-7.041-2.861-10.078-2.766
			c-7.69,0.24-19.364,1.778-25.237,1.02c-4.589-0.591-13.474-1.968-14.025-3.762c-0.552-1.793-0.521-0.862-0.797-2.225
			C13.821,46.692,12.687,47.781,12.963,44.883z"/>
		<path opacity="0.5" clip-path="url(#SVGID_8_)" fill="#FFFFFF" d="M43.011,12.612c0.661,2.514-2.964,4.94-8.102,5.73
			c-5.139,0.791-11.857,0.593-14.623,0c-2.766-0.593-9.803-1.779-9.803-1.779l-1.263-5.73c0,0,12.252-4.743,15.414-4.545
			s8.496,0.198,9.879,1.383C35.897,8.857,42.023,8.858,43.011,12.612z"/>
		<path opacity="0.6" clip-path="url(#SVGID_8_)" fill="#FFFFFF" d="M41.43,12.216c0,0,0,2.569-3.162,3.952
			c-3.161,1.383-16.203,1.186-19.76,0.593c-3.557-0.593,0.197-5.928,3.161-6.916c2.964-0.988,12.054,0.988,13.635,1.186
			S40.836,10.438,41.43,12.216z"/>
		<path opacity="0.5" clip-path="url(#SVGID_8_)" fill="#FFFFFF" d="M50.953,17.337c-0.661,2.513,3.617,4.074,8.755,4.865
			c5.137,0.791,9.584-2.074,12.35-2.667c2.766-0.592,11.934,0.289,11.934,0.289l-0.868-7.797c0,0-10.769-7.213-13.931-7.016
			c-3.161,0.198-7.508,4.743-8.893,5.928C58.917,12.124,51.941,13.583,50.953,17.337z"/>
		<path opacity="0.3" clip-path="url(#SVGID_8_)" fill="#FFFFFF" d="M74.461,45.572c-1.712,0.037-3.284,0-4.181-0.192
			c-2.766-0.593-7.213-3.457-12.351-2.667c-5.138,0.79-9.416,2.352-8.755,4.864c0.988,3.755,7.964,5.214,9.348,6.4
			c0.49,0.419,1.353,1.259,2.4,2.178c0.923,0.209,1.997,0.316,3.312,0.226c5.141-0.355,14.861-3.661,15.413-5.73
			c0.552-2.07-6.912-0.069-7.326-2.138C72.133,47.571,73.226,46.576,74.461,45.572z"/>
		<path opacity="0.3" clip-path="url(#SVGID_8_)" fill="#FFFFFF" d="M38.268,48.153c-3.161-1.383-16.203-1.185-19.76-0.593
			c-2.338,0.391-1.517,2.829,0.163,4.735c4.088,0.797,9.372,1.402,12.028,1.745c0.04,0.006,0.082,0.009,0.121,0.014
			c2.099-0.337,3.866-0.687,4.484-0.763c1.581-0.198,5.533,0.592,6.126-1.186C41.43,52.106,41.43,49.536,38.268,48.153z"/>
		<path opacity="0.3" clip-path="url(#SVGID_8_)" fill="#FFFFFF" d="M33.13,45.388c-5.137-0.791-11.856-0.593-14.622,0
			c-1.477,0.316-0.611,0.801-2.801,1.186c0.961,0.181-1.724,0.324-1.61,0.888c0.276,1.363,0.246,0.432,0.797,2.225
			c0.551,1.794,9.436,3.17,14.025,3.762c2.655,0.343,6.498,0.216,10.621-0.047c0.801-0.561,1.43-1.288,1.692-2.283
			C41.894,48.604,38.269,46.177,33.13,45.388z"/>
		<path clip-path="url(#SVGID_8_)" fill="#4B7D31" d="M-5.817,36.719c0,0,18.673-2.964,24.305-3.557
			c7.42-0.781,10.2-2.438,10.078-3.26c-0.331-2.215-22.855-6.817-30.101-8.299C-8.782,20.12-5.817,36.719-5.817,36.719z"/>
		<path clip-path="url(#SVGID_8_)" fill="#4B7D31" d="M87.846,31.087c0,0-15.117-2.371-15.413-5.039
			c-0.297-2.667,17.784-4.149,17.784-4.149L87.846,31.087z"/>
		<path clip-path="url(#SVGID_8_)" fill="#4B7D31" d="M-1.964,61.617c0,0,57.499,10.826,71.727,16.161
			c14.228,5.335,14.955,14.961,18.215,15.554s-90.832,2.964-90.832,2.964L-1.964,61.617z"/>
	</g>
</g>
<g id="Layer_4">
</g>
</svg>
