<?xml version="1.0" encoding="utf-8"?>
<!-- Generator: Adobe Illustrator 16.0.0, SVG Export Plug-In . SVG Version: 6.00 Build 0)  -->
<!DOCTYPE svg PUBLIC "-//W3C//DTD SVG 1.1//EN" "http://www.w3.org/Graphics/SVG/1.1/DTD/svg11.dtd">
<svg version="1.1" xmlns="http://www.w3.org/2000/svg" xmlns:xlink="http://www.w3.org/1999/xlink" x="0px" y="0px"
	 width="87.891px" height="87.931px" viewBox="0 0 87.891 87.931" enable-background="new 0 0 87.891 87.931" xml:space="preserve">
<g id="Layer_1">
	<g display="none" opacity="0.4">
		<linearGradient id="SVGID_1_" gradientUnits="userSpaceOnUse" x1="116.8638" y1="94.1699" x2="138.1984" y2="125.9223">
			<stop  offset="0" style="stop-color:#946700"/>
			<stop  offset="0.0434" style="stop-color:#AE7400"/>
			<stop  offset="0.1359" style="stop-color:#F19500"/>
			<stop  offset="0.1538" style="stop-color:#FF9C00"/>
			<stop  offset="0.1613" style="stop-color:#FA9902"/>
			<stop  offset="0.2067" style="stop-color:#DE8A0F"/>
			<stop  offset="0.2526" style="stop-color:#CB7F19"/>
			<stop  offset="0.2989" style="stop-color:#BF781E"/>
			<stop  offset="0.3462" style="stop-color:#BB7620"/>
			<stop  offset="0.3907" style="stop-color:#98601A"/>
			<stop  offset="0.4661" style="stop-color:#623E11"/>
			<stop  offset="0.5365" style="stop-color:#38230A"/>
			<stop  offset="0.5997" style="stop-color:#191004"/>
			<stop  offset="0.6535" style="stop-color:#070401"/>
			<stop  offset="0.6914" style="stop-color:#000000"/>
			<stop  offset="0.7515" style="stop-color:#030200"/>
			<stop  offset="0.8019" style="stop-color:#0E0A00"/>
			<stop  offset="0.8489" style="stop-color:#1F1600"/>
			<stop  offset="0.8938" style="stop-color:#382700"/>
			<stop  offset="0.9373" style="stop-color:#573D00"/>
			<stop  offset="0.979" style="stop-color:#7E5700"/>
			<stop  offset="1" style="stop-color:#946700"/>
		</linearGradient>
		<polygon display="inline" fill="url(#SVGID_1_)" points="151.051,117.598 151.965,116.989 151.965,70.914 81.879,117.598 		"/>
		<linearGradient id="SVGID_2_" gradientUnits="userSpaceOnUse" x1="44.6704" y1="45.9233" x2="66.3901" y2="78.2488">
			<stop  offset="0" style="stop-color:#946700"/>
			<stop  offset="0.0434" style="stop-color:#AE7400"/>
			<stop  offset="0.1359" style="stop-color:#F19500"/>
			<stop  offset="0.1538" style="stop-color:#FF9C00"/>
			<stop  offset="0.1613" style="stop-color:#FA9902"/>
			<stop  offset="0.2067" style="stop-color:#DE8A0F"/>
			<stop  offset="0.2526" style="stop-color:#CB7F19"/>
			<stop  offset="0.2989" style="stop-color:#BF781E"/>
			<stop  offset="0.3462" style="stop-color:#BB7620"/>
			<stop  offset="0.3907" style="stop-color:#98601A"/>
			<stop  offset="0.4661" style="stop-color:#623E11"/>
			<stop  offset="0.5365" style="stop-color:#38230A"/>
			<stop  offset="0.5997" style="stop-color:#191004"/>
			<stop  offset="0.6535" style="stop-color:#070401"/>
			<stop  offset="0.6914" style="stop-color:#000000"/>
			<stop  offset="0.7515" style="stop-color:#030200"/>
			<stop  offset="0.8019" style="stop-color:#0E0A00"/>
			<stop  offset="0.8489" style="stop-color:#1F1600"/>
			<stop  offset="0.8938" style="stop-color:#382700"/>
			<stop  offset="0.9373" style="stop-color:#573D00"/>
			<stop  offset="0.979" style="stop-color:#7E5700"/>
			<stop  offset="1" style="stop-color:#946700"/>
		</linearGradient>
		<polygon display="inline" fill="url(#SVGID_2_)" points="151.965,21.072 151.965,-25.002 -62.121,117.598 7.051,117.598 		"/>
		<linearGradient id="SVGID_3_" gradientUnits="userSpaceOnUse" x1="21.9556" y1="13.2163" x2="43.6201" y2="45.4598">
			<stop  offset="0" style="stop-color:#946700"/>
			<stop  offset="0.0434" style="stop-color:#AE7400"/>
			<stop  offset="0.1359" style="stop-color:#F19500"/>
			<stop  offset="0.1538" style="stop-color:#FF9C00"/>
			<stop  offset="0.1613" style="stop-color:#FA9902"/>
			<stop  offset="0.2067" style="stop-color:#DE8A0F"/>
			<stop  offset="0.2526" style="stop-color:#CB7F19"/>
			<stop  offset="0.2989" style="stop-color:#BF781E"/>
			<stop  offset="0.3462" style="stop-color:#BB7620"/>
			<stop  offset="0.3907" style="stop-color:#98601A"/>
			<stop  offset="0.4661" style="stop-color:#623E11"/>
			<stop  offset="0.5365" style="stop-color:#38230A"/>
			<stop  offset="0.5997" style="stop-color:#191004"/>
			<stop  offset="0.6535" style="stop-color:#070401"/>
			<stop  offset="0.6914" style="stop-color:#000000"/>
			<stop  offset="0.7515" style="stop-color:#030200"/>
			<stop  offset="0.8019" style="stop-color:#0E0A00"/>
			<stop  offset="0.8489" style="stop-color:#1F1600"/>
			<stop  offset="0.8938" style="stop-color:#382700"/>
			<stop  offset="0.9373" style="stop-color:#573D00"/>
			<stop  offset="0.979" style="stop-color:#7E5700"/>
			<stop  offset="1" style="stop-color:#946700"/>
		</linearGradient>
		<polygon display="inline" fill="url(#SVGID_3_)" points="81.879,-26.402 -64.035,70.914 -64.035,116.988 151.051,-26.402 		"/>
		<linearGradient id="SVGID_4_" gradientUnits="userSpaceOnUse" x1="-13.9478" y1="-10.6191" x2="7.5246" y2="21.3382">
			<stop  offset="0" style="stop-color:#946700"/>
			<stop  offset="0.0434" style="stop-color:#AE7400"/>
			<stop  offset="0.1359" style="stop-color:#F19500"/>
			<stop  offset="0.1538" style="stop-color:#FF9C00"/>
			<stop  offset="0.1613" style="stop-color:#FA9902"/>
			<stop  offset="0.2067" style="stop-color:#DE8A0F"/>
			<stop  offset="0.2526" style="stop-color:#CB7F19"/>
			<stop  offset="0.2989" style="stop-color:#BF781E"/>
			<stop  offset="0.3462" style="stop-color:#BB7620"/>
			<stop  offset="0.3907" style="stop-color:#98601A"/>
			<stop  offset="0.4661" style="stop-color:#623E11"/>
			<stop  offset="0.5365" style="stop-color:#38230A"/>
			<stop  offset="0.5997" style="stop-color:#191004"/>
			<stop  offset="0.6535" style="stop-color:#070401"/>
			<stop  offset="0.6914" style="stop-color:#000000"/>
			<stop  offset="0.7515" style="stop-color:#030200"/>
			<stop  offset="0.8019" style="stop-color:#0E0A00"/>
			<stop  offset="0.8489" style="stop-color:#1F1600"/>
			<stop  offset="0.8938" style="stop-color:#382700"/>
			<stop  offset="0.9373" style="stop-color:#573D00"/>
			<stop  offset="0.979" style="stop-color:#7E5700"/>
			<stop  offset="1" style="stop-color:#946700"/>
		</linearGradient>
		<polygon display="inline" fill="url(#SVGID_4_)" points="9.88,-26.402 -64.035,22.956 -64.035,69.03 79.051,-26.402 		"/>
		<linearGradient id="SVGID_5_" gradientUnits="userSpaceOnUse" x1="80.7676" y1="70.0469" x2="102.2944" y2="102.0854">
			<stop  offset="0" style="stop-color:#946700"/>
			<stop  offset="0.0434" style="stop-color:#AE7400"/>
			<stop  offset="0.1359" style="stop-color:#F19500"/>
			<stop  offset="0.1538" style="stop-color:#FF9C00"/>
			<stop  offset="0.1613" style="stop-color:#FA9902"/>
			<stop  offset="0.2067" style="stop-color:#DE8A0F"/>
			<stop  offset="0.2526" style="stop-color:#CB7F19"/>
			<stop  offset="0.2989" style="stop-color:#BF781E"/>
			<stop  offset="0.3462" style="stop-color:#BB7620"/>
			<stop  offset="0.3907" style="stop-color:#98601A"/>
			<stop  offset="0.4661" style="stop-color:#623E11"/>
			<stop  offset="0.5365" style="stop-color:#38230A"/>
			<stop  offset="0.5997" style="stop-color:#191004"/>
			<stop  offset="0.6535" style="stop-color:#070401"/>
			<stop  offset="0.6914" style="stop-color:#000000"/>
			<stop  offset="0.7515" style="stop-color:#030200"/>
			<stop  offset="0.8019" style="stop-color:#0E0A00"/>
			<stop  offset="0.8489" style="stop-color:#1F1600"/>
			<stop  offset="0.8938" style="stop-color:#382700"/>
			<stop  offset="0.9373" style="stop-color:#573D00"/>
			<stop  offset="0.979" style="stop-color:#7E5700"/>
			<stop  offset="1" style="stop-color:#946700"/>
		</linearGradient>
		<polygon display="inline" fill="url(#SVGID_5_)" points="79.051,117.598 151.965,69.03 151.965,22.956 9.879,117.598 		"/>
		<linearGradient id="SVGID_6_" gradientUnits="userSpaceOnUse" x1="-49.9038" y1="-34.5332" x2="-28.5708" y2="-2.7832">
			<stop  offset="0" style="stop-color:#946700"/>
			<stop  offset="0.0434" style="stop-color:#AE7400"/>
			<stop  offset="0.1359" style="stop-color:#F19500"/>
			<stop  offset="0.1538" style="stop-color:#FF9C00"/>
			<stop  offset="0.1613" style="stop-color:#FA9902"/>
			<stop  offset="0.2067" style="stop-color:#DE8A0F"/>
			<stop  offset="0.2526" style="stop-color:#CB7F19"/>
			<stop  offset="0.2989" style="stop-color:#BF781E"/>
			<stop  offset="0.3462" style="stop-color:#BB7620"/>
			<stop  offset="0.3907" style="stop-color:#98601A"/>
			<stop  offset="0.4661" style="stop-color:#623E11"/>
			<stop  offset="0.5365" style="stop-color:#38230A"/>
			<stop  offset="0.5997" style="stop-color:#191004"/>
			<stop  offset="0.6535" style="stop-color:#070401"/>
			<stop  offset="0.6914" style="stop-color:#000000"/>
			<stop  offset="0.7515" style="stop-color:#030200"/>
			<stop  offset="0.8019" style="stop-color:#0E0A00"/>
			<stop  offset="0.8489" style="stop-color:#1F1600"/>
			<stop  offset="0.8938" style="stop-color:#382700"/>
			<stop  offset="0.9373" style="stop-color:#573D00"/>
			<stop  offset="0.979" style="stop-color:#7E5700"/>
			<stop  offset="1" style="stop-color:#946700"/>
		</linearGradient>
		<polygon display="inline" fill="url(#SVGID_6_)" points="-62.121,-26.402 -64.035,-25.002 -64.035,21.072 7.052,-26.402 		"/>
	</g>
</g>
<g id="Layer_3">
</g>
<g id="Layer_2">
	<g>
		<defs>
			<circle id="SVGID_7_" cx="43.965" cy="43.965" r="43.965"/>
		</defs>
		<clipPath id="SVGID_8_">
			<use xlink:href="#SVGID_7_"  overflow="visible"/>
		</clipPath>
		<g id="Layer_4_1_" clip-path="url(#SVGID_8_)">
		</g>
		<circle clip-path="url(#SVGID_8_)" fill="#A1C6FF" cx="43.855" cy="43.668" r="43.995"/>
		<polygon clip-path="url(#SVGID_8_)" fill="#638156" stroke="#000000" stroke-miterlimit="10" points="94.334,52.543 
			-11.409,48.751 -4.308,87.664 85.072,89.045 		"/>
		<path clip-path="url(#SVGID_8_)" fill="#7D9A74" d="M52.149,30.535c1.158-0.463,6.021-1.389,8.104-1.737
			c2.084-0.347,2.663-0.115,3.821-0.462c1.158-0.348,5.711-2.851,10.342-3.314c4.631-0.462,8.298-0.391,11.887,0.535
			c3.59,0.926,5.21,15.862,5.21,15.862s-33.506,6.178-35.891,8.452c-1.661,1.582-0.635,3.441-0.364,4.219
			c0.463,1.323,0.776,3.221,1.405,4.116c1.14,1.623,2.432,4.4-3.356,7.179c-5.789,2.778-7.757,6.136-10.305,9.61
			c-2.547,3.473-16.44,10.189-25.007,9.378C9.427,83.562-6.087,41.766-4.466,38.408C-2.845,35.051,52.149,30.535,52.149,30.535z"/>
		<path clip-path="url(#SVGID_8_)" fill="#4B7D31" stroke="#3C761E" stroke-miterlimit="10" d="M86.304,25.557
			c-3.589-0.926-7.255-0.998-11.887-0.535c-2.287,0.229-4.552,0.955-6.402,1.674c-0.643,0.462-1.159,0.96-1.159,1.458
			c0,0.927,0.309,2.085,6.175,2.779c5.866,0.695,8.104,1.157,9.03,2.162c0.687,0.744,5.578,0.384,8.058,0.149
			C89.266,29.588,88.006,25.996,86.304,25.557z"/>
		<path clip-path="url(#SVGID_8_)" fill="#4B7D31" stroke="#3C761E" stroke-miterlimit="10" d="M86.304,25.094
			c-3.589-0.927-7.255-0.999-11.887-0.535c-2.287,0.228-4.552,0.955-6.402,1.672c-0.643,0.462-1.159,0.96-1.159,1.459
			c0,0.926,0.309,2.083,6.175,2.778c5.866,0.696,8.104,1.158,9.03,2.161c0.687,0.745,5.578,0.385,8.058,0.15
			C89.266,29.125,88.006,25.533,86.304,25.094z"/>
		<path clip-path="url(#SVGID_8_)" fill="#638156" d="M-4.308,39.385c0.695,0.579,4.168,3.126,5.789,3.705
			c1.621,0.578,17.367,2.476,18.987,2.894c1.622,0.419,13.846,1.093,13.844,4.863c-0.002,4.167-16.42,5.399-18.359,6.251
			c-2.295,1.009-2.315,2.889-6.021,5.558c-1.975,1.422-8.336,1.853-10.072,3.01C-1.877,66.824-4.308,39.385-4.308,39.385z"/>
		<path clip-path="url(#SVGID_8_)" fill="#638156" d="M42.467,45.213c2.778-2.316,18.74-5.533,21.303-7.719
			c2.431-2.074,1.753-3.087,1.438-3.589c-1.727-0.142-4.125,0.103-5.838-0.541c-1.853-0.695-4.862-2.894-5.789-3.357
			c-0.926-0.463-2.663-1.042-4.979-1.621c-2.315-0.578-4.168-0.463-4.747-1.158c-0.579-0.694-0.811-2.199-1.737-3.126
			c-0.925-0.926-2.083-1.157-3.241-2.084c-1.159-0.926-1.669-1.38-4.169-1.736C24.643,18.847-5.274,30.64-5.698,31.474
			c-0.579,11.077,17.251,12.194,21.303,12.774c4.052,0.578,12.736,1.157,18.524,2.315C34.13,46.563,39.688,47.528,42.467,45.213z"/>
		<path display="none" clip-path="url(#SVGID_8_)" fill="#8EADE7" d="M11.119,95.296c0,0,19.733-5.713,22.85-9.348
			c3.115-3.637-0.259-5.457,3.895-10.723c5.912-7.498,33.094-7.912,36.352-12.127c4.414-5.715,2.045-7.248,4.414-9.867
			c4.934-5.455,33.754-12.463,35.831-14.021s3.765-6.624-0.583-7.598c-3.2-0.716-4.947-0.015-7.256-0.675
			c-2.31-0.66-4.309-1.646-4.309-1.646s11.693,1.412,14.875,1.218c3.18-0.194,11.145,3.718,9.411,7.919
			c-4.057,9.836-28.187,3.582-34.138,20.828c-1.558,4.514,6.383,10.271,5.252,13.641c-3.245,9.672-19.084,7.4-21.615,13.826
			c-2.531,6.428,0.169,8.488-2.338,11.879c-7.264,9.828-28.625,11.686-31.157,23.174L11.119,95.296z"/>
		<path clip-path="url(#SVGID_8_)" fill="#638156" d="M92.513,32.72c0,0-6.329-2.47-8.954-1.853
			c-2.625,0.618-4.246,2.569-5.752,3.445c-1.505,0.877-3.398,1.567-5.557,2.498c-2.158,0.931-3.241,3.474-5.209,4.4
			c-1.968,0.927-4.427,1.321-6.919,1.707c-4.863,0.752-7.061,5.603-7.127,6.492c-0.224,3,2.611,6.648,3.669,8.797
			c4.517-1.504,15.355,0.487,17.787,0.95c2.432,0.462,13.894-1.043,15.63-2.084C91.818,56.029,92.513,32.72,92.513,32.72z"/>
		<path clip-path="url(#SVGID_8_)" fill="#638156" d="M86.577,61.499c0,0-7.41,1.621-12.967,1.736
			c-5.557,0.116-6.715,0.116-10.883,3.125c-4.168,3.011-7.526,8.336-9.031,9.61c-1.504,1.274-2.779,3.82-2.199,5.094
			c0.578,1.273,0.641,6.715-0.143,7.873C50.571,90.096,85.999,81.875,86.577,61.499z"/>
		<path clip-path="url(#SVGID_8_)" fill="#4B7D31" stroke="#3C761E" stroke-miterlimit="10" d="M-5.08,42.433
			c0,0,4.94,3.165,9.185,4.168c5.083,1.202,16.433,1.235,16.433,3.609c0,1.563-9.076,1.002-12.493,3.492
			c-2.824,2.057-3.4,4.941-7.722,4.941"/>
		<path clip-path="url(#SVGID_8_)" fill="#4B7D31" stroke="#3C761E" stroke-miterlimit="10" d="M84.454,61.962
			c-3.011,0.54-6.098,1.235-7.796,1.158c-1.698-0.077-6.638-0.605-8.645,0.006c-2.007,0.611-2.779,0.997-4.168,1.846
			c-1.389,0.849-2.624,0.54-3.937,2.008c-1.312,1.466-1.852,3.55-3.087,5.017c-1.235,1.466-4.091,3.473-4.94,5.403
			c-0.849,1.93,1.158,2.394,1.081,4.323c-0.077,1.929-4.478,6.636-5.79,7.873c-1.312,1.234,19.759-2.393,19.759-2.393l16.75-13.74
			L84.454,61.962z"/>
		<path clip-path="url(#SVGID_8_)" fill="#4B7D31" stroke="#3C761E" stroke-miterlimit="10" d="M83.559,30.867
			c-2.625,0.618-4.246,2.569-5.752,3.445c-1.505,0.877-3.398,1.567-5.557,2.498c-2.158,0.931-3.241,3.474-5.209,4.4
			c-0.266,0.125-0.543,0.239-0.825,0.345c-1.874,0.982-5.443,1.699-6.308,4.043c-1.081,2.934,6.561,2.548,8.567,3.551
			c2.006,1.004-0.463,4.246,1.776,5.558c2.238,1.312,7.024-1.081,9.262-1.621c2.238-0.541,8.336,0,8.336,0l0.876-21.605
			C86.884,30.976,84.805,30.574,83.559,30.867z"/>
		<path clip-path="url(#SVGID_8_)" fill="#455B32" stroke="#3C761E" stroke-miterlimit="10" d="M88.2,44.458l0.526-12.978
			c-1.842-0.504-3.922-0.907-5.167-0.613c-2.625,0.618-4.246,2.569-5.752,3.445c-1.505,0.877-3.398,1.567-5.557,2.498
			c-1.728,0.745-2.766,2.521-4.122,3.675c-0.378,0.682-0.229,1.32,0.503,1.795c1.608,1.044,5.789-0.232,7.062,0
			c1.274,0.231,1.969,1.736,4.631,2.083C81.96,44.576,85.558,44.527,88.2,44.458z"/>
		<path clip-path="url(#SVGID_8_)" fill="#455B32" d="M88.2,43.996l0.526-12.979c-1.842-0.504-3.922-0.907-5.167-0.613
			c-2.625,0.617-4.246,2.568-5.752,3.445c-1.505,0.876-3.398,1.566-5.557,2.498c-1.728,0.744-2.766,2.52-4.122,3.674
			c-0.378,0.682-0.229,1.32,0.503,1.795c1.608,1.044,5.789-0.232,7.062,0c1.274,0.231,1.969,1.737,4.631,2.084
			C81.96,44.113,85.558,44.064,88.2,43.996z"/>
		<path clip-path="url(#SVGID_8_)" fill="#4B7D31" stroke="#3C761E" stroke-miterlimit="10" d="M59.369,33.364
			c-1.853-0.695-4.862-2.894-5.789-3.357c-0.926-0.463-2.663-1.042-4.979-1.621c-2.315-0.578-4.168-0.463-4.747-1.158
			c-0.579-0.694-0.811-2.199-1.737-3.126c-0.925-0.926-2.083-1.157-3.241-2.084c-1.159-0.926-1.669-1.38-4.169-1.736
			c-7.761-1.106-27.317,5.649-36.063,9.184l-0.33,1.544c0,0,6.021,6.253,30.026,5.944c24.004-0.309,24.776-0.386,26.629-1.158
			c1.579-0.658,4.834-1.26,4.906-2.283C59.704,33.469,59.53,33.425,59.369,33.364z"/>
		<path clip-path="url(#SVGID_8_)" fill="#455B32" stroke="#3C761E" stroke-miterlimit="10" d="M38.993,28.386
			c3.081-0.25,4.24-0.741,4.652-1.469c-0.44-0.767-0.721-2.009-1.526-2.815c-0.925-0.926-2.083-1.157-3.241-2.084
			c-1.159-0.926-1.669-1.38-4.169-1.736c-4.356-0.621-12.428,1.235-20.218,3.608c-1.98,1.169-2.59,1.414-2.59,2.064
			c0,0.695,2.2,1.39,4.747,2.084c2.548,0.695,8.453,0.348,12.504,0.348C33.204,28.386,34.708,28.733,38.993,28.386z"/>
		<path clip-path="url(#SVGID_8_)" fill="#455B32" d="M38.993,27.923c3.081-0.25,4.24-0.74,4.652-1.469
			c-0.44-0.767-0.721-2.009-1.526-2.814c-0.925-0.926-2.083-1.158-3.241-2.084c-1.159-0.926-1.669-1.38-4.169-1.736
			c-4.356-0.621-12.428,1.235-20.218,3.608c-1.98,1.169-2.59,1.414-2.59,2.065c0,0.694,2.2,1.389,4.747,2.083
			c2.548,0.695,8.453,0.348,12.504,0.348C33.204,27.923,34.708,28.27,38.993,27.923z"/>
	</g>
	<g>
		<defs>
			<circle id="SVGID_9_" cx="78.628" cy="47.776" r="74"/>
		</defs>
		<clipPath id="SVGID_10_">
			<use xlink:href="#SVGID_9_"  overflow="visible"/>
		</clipPath>
	</g>
</g>
<g id="Layer_4">
</g>
</svg>
