<?xml version="1.0" encoding="utf-8"?>
<!-- Generator: Adobe Illustrator 16.0.0, SVG Export Plug-In . SVG Version: 6.00 Build 0)  -->
<!DOCTYPE svg PUBLIC "-//W3C//DTD SVG 1.1//EN" "http://www.w3.org/Graphics/SVG/1.1/DTD/svg11.dtd">
<svg version="1.1" xmlns="http://www.w3.org/2000/svg" xmlns:xlink="http://www.w3.org/1999/xlink" x="0px" y="0px"
	 width="87.891px" height="87.931px" viewBox="0 0 87.891 87.931" enable-background="new 0 0 87.891 87.931" xml:space="preserve">
<filter  id="AI_GaussianBlur_4">
	<feGaussianBlur  stdDeviation="4"></feGaussianBlur>
</filter>
<g id="Layer_1">
	<g display="none" opacity="0.4">
		<linearGradient id="SVGID_1_" gradientUnits="userSpaceOnUse" x1="116.8638" y1="94.1699" x2="138.1984" y2="125.9223">
			<stop  offset="0" style="stop-color:#946700"/>
			<stop  offset="0.0434" style="stop-color:#AE7400"/>
			<stop  offset="0.1359" style="stop-color:#F19500"/>
			<stop  offset="0.1538" style="stop-color:#FF9C00"/>
			<stop  offset="0.1613" style="stop-color:#FA9902"/>
			<stop  offset="0.2067" style="stop-color:#DE8A0F"/>
			<stop  offset="0.2526" style="stop-color:#CB7F19"/>
			<stop  offset="0.2989" style="stop-color:#BF781E"/>
			<stop  offset="0.3462" style="stop-color:#BB7620"/>
			<stop  offset="0.3907" style="stop-color:#98601A"/>
			<stop  offset="0.4661" style="stop-color:#623E11"/>
			<stop  offset="0.5365" style="stop-color:#38230A"/>
			<stop  offset="0.5997" style="stop-color:#191004"/>
			<stop  offset="0.6535" style="stop-color:#070401"/>
			<stop  offset="0.6914" style="stop-color:#000000"/>
			<stop  offset="0.7515" style="stop-color:#030200"/>
			<stop  offset="0.8019" style="stop-color:#0E0A00"/>
			<stop  offset="0.8489" style="stop-color:#1F1600"/>
			<stop  offset="0.8938" style="stop-color:#382700"/>
			<stop  offset="0.9373" style="stop-color:#573D00"/>
			<stop  offset="0.979" style="stop-color:#7E5700"/>
			<stop  offset="1" style="stop-color:#946700"/>
		</linearGradient>
		<polygon display="inline" fill="url(#SVGID_1_)" points="151.051,117.598 151.965,116.989 151.965,70.914 81.879,117.598 		"/>
		<linearGradient id="SVGID_2_" gradientUnits="userSpaceOnUse" x1="44.6704" y1="45.9233" x2="66.3901" y2="78.2488">
			<stop  offset="0" style="stop-color:#946700"/>
			<stop  offset="0.0434" style="stop-color:#AE7400"/>
			<stop  offset="0.1359" style="stop-color:#F19500"/>
			<stop  offset="0.1538" style="stop-color:#FF9C00"/>
			<stop  offset="0.1613" style="stop-color:#FA9902"/>
			<stop  offset="0.2067" style="stop-color:#DE8A0F"/>
			<stop  offset="0.2526" style="stop-color:#CB7F19"/>
			<stop  offset="0.2989" style="stop-color:#BF781E"/>
			<stop  offset="0.3462" style="stop-color:#BB7620"/>
			<stop  offset="0.3907" style="stop-color:#98601A"/>
			<stop  offset="0.4661" style="stop-color:#623E11"/>
			<stop  offset="0.5365" style="stop-color:#38230A"/>
			<stop  offset="0.5997" style="stop-color:#191004"/>
			<stop  offset="0.6535" style="stop-color:#070401"/>
			<stop  offset="0.6914" style="stop-color:#000000"/>
			<stop  offset="0.7515" style="stop-color:#030200"/>
			<stop  offset="0.8019" style="stop-color:#0E0A00"/>
			<stop  offset="0.8489" style="stop-color:#1F1600"/>
			<stop  offset="0.8938" style="stop-color:#382700"/>
			<stop  offset="0.9373" style="stop-color:#573D00"/>
			<stop  offset="0.979" style="stop-color:#7E5700"/>
			<stop  offset="1" style="stop-color:#946700"/>
		</linearGradient>
		<polygon display="inline" fill="url(#SVGID_2_)" points="151.965,21.072 151.965,-25.002 -62.121,117.598 7.051,117.598 		"/>
		<linearGradient id="SVGID_3_" gradientUnits="userSpaceOnUse" x1="21.9556" y1="13.2163" x2="43.6201" y2="45.4598">
			<stop  offset="0" style="stop-color:#946700"/>
			<stop  offset="0.0434" style="stop-color:#AE7400"/>
			<stop  offset="0.1359" style="stop-color:#F19500"/>
			<stop  offset="0.1538" style="stop-color:#FF9C00"/>
			<stop  offset="0.1613" style="stop-color:#FA9902"/>
			<stop  offset="0.2067" style="stop-color:#DE8A0F"/>
			<stop  offset="0.2526" style="stop-color:#CB7F19"/>
			<stop  offset="0.2989" style="stop-color:#BF781E"/>
			<stop  offset="0.3462" style="stop-color:#BB7620"/>
			<stop  offset="0.3907" style="stop-color:#98601A"/>
			<stop  offset="0.4661" style="stop-color:#623E11"/>
			<stop  offset="0.5365" style="stop-color:#38230A"/>
			<stop  offset="0.5997" style="stop-color:#191004"/>
			<stop  offset="0.6535" style="stop-color:#070401"/>
			<stop  offset="0.6914" style="stop-color:#000000"/>
			<stop  offset="0.7515" style="stop-color:#030200"/>
			<stop  offset="0.8019" style="stop-color:#0E0A00"/>
			<stop  offset="0.8489" style="stop-color:#1F1600"/>
			<stop  offset="0.8938" style="stop-color:#382700"/>
			<stop  offset="0.9373" style="stop-color:#573D00"/>
			<stop  offset="0.979" style="stop-color:#7E5700"/>
			<stop  offset="1" style="stop-color:#946700"/>
		</linearGradient>
		<polygon display="inline" fill="url(#SVGID_3_)" points="81.879,-26.402 -64.035,70.914 -64.035,116.988 151.051,-26.402 		"/>
		<linearGradient id="SVGID_4_" gradientUnits="userSpaceOnUse" x1="-13.9478" y1="-10.6191" x2="7.5246" y2="21.3382">
			<stop  offset="0" style="stop-color:#946700"/>
			<stop  offset="0.0434" style="stop-color:#AE7400"/>
			<stop  offset="0.1359" style="stop-color:#F19500"/>
			<stop  offset="0.1538" style="stop-color:#FF9C00"/>
			<stop  offset="0.1613" style="stop-color:#FA9902"/>
			<stop  offset="0.2067" style="stop-color:#DE8A0F"/>
			<stop  offset="0.2526" style="stop-color:#CB7F19"/>
			<stop  offset="0.2989" style="stop-color:#BF781E"/>
			<stop  offset="0.3462" style="stop-color:#BB7620"/>
			<stop  offset="0.3907" style="stop-color:#98601A"/>
			<stop  offset="0.4661" style="stop-color:#623E11"/>
			<stop  offset="0.5365" style="stop-color:#38230A"/>
			<stop  offset="0.5997" style="stop-color:#191004"/>
			<stop  offset="0.6535" style="stop-color:#070401"/>
			<stop  offset="0.6914" style="stop-color:#000000"/>
			<stop  offset="0.7515" style="stop-color:#030200"/>
			<stop  offset="0.8019" style="stop-color:#0E0A00"/>
			<stop  offset="0.8489" style="stop-color:#1F1600"/>
			<stop  offset="0.8938" style="stop-color:#382700"/>
			<stop  offset="0.9373" style="stop-color:#573D00"/>
			<stop  offset="0.979" style="stop-color:#7E5700"/>
			<stop  offset="1" style="stop-color:#946700"/>
		</linearGradient>
		<polygon display="inline" fill="url(#SVGID_4_)" points="9.88,-26.402 -64.035,22.956 -64.035,69.03 79.051,-26.402 		"/>
		<linearGradient id="SVGID_5_" gradientUnits="userSpaceOnUse" x1="80.7676" y1="70.0469" x2="102.2944" y2="102.0854">
			<stop  offset="0" style="stop-color:#946700"/>
			<stop  offset="0.0434" style="stop-color:#AE7400"/>
			<stop  offset="0.1359" style="stop-color:#F19500"/>
			<stop  offset="0.1538" style="stop-color:#FF9C00"/>
			<stop  offset="0.1613" style="stop-color:#FA9902"/>
			<stop  offset="0.2067" style="stop-color:#DE8A0F"/>
			<stop  offset="0.2526" style="stop-color:#CB7F19"/>
			<stop  offset="0.2989" style="stop-color:#BF781E"/>
			<stop  offset="0.3462" style="stop-color:#BB7620"/>
			<stop  offset="0.3907" style="stop-color:#98601A"/>
			<stop  offset="0.4661" style="stop-color:#623E11"/>
			<stop  offset="0.5365" style="stop-color:#38230A"/>
			<stop  offset="0.5997" style="stop-color:#191004"/>
			<stop  offset="0.6535" style="stop-color:#070401"/>
			<stop  offset="0.6914" style="stop-color:#000000"/>
			<stop  offset="0.7515" style="stop-color:#030200"/>
			<stop  offset="0.8019" style="stop-color:#0E0A00"/>
			<stop  offset="0.8489" style="stop-color:#1F1600"/>
			<stop  offset="0.8938" style="stop-color:#382700"/>
			<stop  offset="0.9373" style="stop-color:#573D00"/>
			<stop  offset="0.979" style="stop-color:#7E5700"/>
			<stop  offset="1" style="stop-color:#946700"/>
		</linearGradient>
		<polygon display="inline" fill="url(#SVGID_5_)" points="79.051,117.598 151.965,69.03 151.965,22.956 9.879,117.598 		"/>
		<linearGradient id="SVGID_6_" gradientUnits="userSpaceOnUse" x1="-49.9038" y1="-34.5332" x2="-28.5708" y2="-2.7832">
			<stop  offset="0" style="stop-color:#946700"/>
			<stop  offset="0.0434" style="stop-color:#AE7400"/>
			<stop  offset="0.1359" style="stop-color:#F19500"/>
			<stop  offset="0.1538" style="stop-color:#FF9C00"/>
			<stop  offset="0.1613" style="stop-color:#FA9902"/>
			<stop  offset="0.2067" style="stop-color:#DE8A0F"/>
			<stop  offset="0.2526" style="stop-color:#CB7F19"/>
			<stop  offset="0.2989" style="stop-color:#BF781E"/>
			<stop  offset="0.3462" style="stop-color:#BB7620"/>
			<stop  offset="0.3907" style="stop-color:#98601A"/>
			<stop  offset="0.4661" style="stop-color:#623E11"/>
			<stop  offset="0.5365" style="stop-color:#38230A"/>
			<stop  offset="0.5997" style="stop-color:#191004"/>
			<stop  offset="0.6535" style="stop-color:#070401"/>
			<stop  offset="0.6914" style="stop-color:#000000"/>
			<stop  offset="0.7515" style="stop-color:#030200"/>
			<stop  offset="0.8019" style="stop-color:#0E0A00"/>
			<stop  offset="0.8489" style="stop-color:#1F1600"/>
			<stop  offset="0.8938" style="stop-color:#382700"/>
			<stop  offset="0.9373" style="stop-color:#573D00"/>
			<stop  offset="0.979" style="stop-color:#7E5700"/>
			<stop  offset="1" style="stop-color:#946700"/>
		</linearGradient>
		<polygon display="inline" fill="url(#SVGID_6_)" points="-62.121,-26.402 -64.035,-25.002 -64.035,21.072 7.052,-26.402 		"/>
	</g>
</g>
<g id="Layer_3">
</g>
<g id="Layer_2">
	<g>
		<defs>
			<circle id="SVGID_7_" cx="43.965" cy="43.965" r="43.965"/>
		</defs>
		<clipPath id="SVGID_8_">
			<use xlink:href="#SVGID_7_"  overflow="visible"/>
		</clipPath>
		<path clip-path="url(#SVGID_8_)" fill="#81EEFF" d="M87.803,44.323c0,19.439-19.593,43.764-43.764,43.764
			S0.275,63.763,0.275,44.323c0-24.17,19.594-43.764,43.764-43.764S87.803,20.153,87.803,44.323z"/>
		<path clip-path="url(#SVGID_8_)" fill="#394A34" d="M-7.413,25.398c39.17,1.896,39.114,1.879,45.075,3.867
			c5.915,1.971,25.006-5.63,31.777-6.625c26.808-3.944,13.602,4.281,13.602,4.281l3.548,13.657l-97.582-5.125L-7.413,25.398z"/>
		<path clip-path="url(#SVGID_8_)" fill="#4B7D31" d="M56.069-1.35c1.227-0.181,5.988-1.382,8.062-1.728
			c2.073-0.345,2.649-0.115,3.801-0.46c1.151-0.346,5.681-2.835,10.288-3.296c4.606-0.461,11.341,0.871,14.911,1.792
			c3.571,0.922,2.096,14.518,2.096,14.518c-1.096-3.233,7.515,57.814,4.481,61.953C67.771,114.997,11.437,95.694,2.914,94.888
			c-1.586-0.15-16.09-83.122-1.648-97.563C3.887-5.298,42.511,0.651,56.069-1.35z"/>
		<g clip-path="url(#SVGID_8_)" filter="url(#AI_GaussianBlur_4)">
			<path fill="#B1CBCB" d="M94.073,142.954c-1.284,0-2.518-0.521-3.414-1.436c-1.393-1.274-5.697-5.529-8.403-11.682
				c-1.128-2.563-1.582-4.943-1.983-7.042c-0.309-1.616-0.6-3.134-1.168-4.739c-0.247-0.286-0.659-0.735-0.861-0.955
				c-1.031-1.123-2.096-2.283-2.667-3.599c-0.289-0.665-0.558-1.356-0.842-2.087c-0.672-1.732-1.493-3.847-2.397-4.691
				c-1.481-1.381-2.738-2.887-4.262-4.851c-1.824-1.849-2.578-3.832-3.082-5.156c-0.005-0.013-0.01-0.027-0.015-0.041
				c-1.768-0.626-4.14-1.491-5.592-3.394c-0.719-0.938-1.257-2.15-1.881-3.554c-0.326-0.732-1.07-2.401-1.407-2.827
				c-1.487-1.599-2.516-2.55-3.423-3.39c-1.52-1.403-2.714-2.507-4.507-5.116c-1.337-1.944-1.686-4.58-2.056-7.371
				c-0.05-0.377-0.128-0.962-0.21-1.501c-0.747-0.164-1.649-0.43-2.605-0.952c-0.146-0.034-0.415-0.079-0.62-0.114
				c-1.602-0.271-4.771-0.806-6.822-4.181c-0.041,0-0.082,0.001-0.122,0.001c-1.683,0-3.143-0.488-4.348-1.451
				c-0.289-0.145-1.151-0.395-2.08-0.395c-0.373,0-0.598,0.043-0.653,0.061c-2.063,0.912-4.036,1.417-5.815,1.482
				c-0.241,0.038-0.593,0.081-1.004,0.081c-1.032,0-2.008-0.258-2.901-0.768c-1.407-0.8-2.976-2.009-3.042-2.06
				c-1.469-1.129-2.11-2.946-1.78-4.668c-2.175-2.126-1.858-4.287-1.446-5.433c0.699-1.949,2.513-3.211,4.621-3.211
				c0.406,0,1.632,0,3.913,1.159c0.27,0.099,1.029,0.307,1.446,0.42c1.595,0.437,3.389,0.928,4.983,1.773
				c0.727,0.386,0.8,0.398,2.024,0.595c0.413,0.067,0.884,0.143,1.445,0.246c-1.759-0.855-3.316-1.863-4.428-3.169
				c-3.034-3.566-3.708-7.293-4.112-9.52c-0.004-0.021-0.008-0.044-0.012-0.068c-0.394-0.161-0.825-0.329-1.212-0.479
				c-3.559-1.386-7.961-3.1-7.961-7.569c0-1.03,0.261-1.875,0.687-2.583c-2.197-0.792-4.236-2.313-4.274-5.454
				c-0.015-1.255,0.182-2.366,0.43-3.341c-1.439-0.278-3.547-0.632-6.63-1.069c-1.23-0.173-1.646-0.232-2.029-0.326
				c-2.219-0.538-5.658-3.154-6.565-4.999c-1.397-2.807-0.772-4.78-0.001-5.939c0.887-1.332,2.372-2.127,3.973-2.127
				c0.208,0,0.416,0.013,0.625,0.041c1.67,0.222,3.109,1.327,3.766,2.857C3.381,8.399,3.433,8.454,3.51,8.52
				c0.914,0.223,3.242,0.612,4.426,0.811c7.889,1.322,13.251,2.221,13.554,6.837c0.256-0.177,0.504-0.353,0.741-0.526
				c-0.651-1.092-0.911-2.376-0.705-3.644c0.355-2.192,2.045-4.079,4.759-5.313c0.619-0.284,1.286-0.429,1.976-0.429
				c1.785,0,3.408,0.983,4.234,2.566c0.43,0.826,0.593,1.73,0.517,2.607c0.867,0.682,1.772,1.716,2.073,3.311
				c0.296,1.561-0.123,3.139-1.182,4.438c-0.861,1.057-2.204,1.999-4.911,3.852c1.204,1.532,1.365,3.199,1.181,4.565
				c-0.061,0.451-0.162,0.868-0.294,1.257c2.346-0.742,7.109-2.358,16.618-5.865l0.356-0.131c-0.677-0.601-1.15-1.286-1.598-1.99
				c-1.29-2.033-0.862-4.717,0.993-6.246c0.85-0.702,1.93-1.09,3.037-1.09c0.575,0,1.137,0.102,1.664,0.298
				c0.804-0.893,1.968-1.722,3.642-2.348c1.417-0.53,2.154-0.751,3.058-0.751c2.128,0,4.026,1.421,4.615,3.457
				c0.473,1.625,0.04,3.396-1.131,4.634c-0.263,0.29-0.551,0.541-0.856,0.761c0.191,0.357,0.368,0.755,0.512,1.195
				c0.364,1.11,1.148,4.826-3.631,6.955c-1.186,3.106-5.477,4.53-12.856,6.978c-2.097,0.696-7.818,2.593-10.33,3.832
				c0.237,1.012,0.709,2.345,1.646,3.489c0.743,0.32,2.562,0.836,3.384,1.069c4.681,1.327,11.741,3.329,11.592,9.702
				c-0.054,2.293-0.758,4.172-1.547,5.646c1.651,0.329,3.318,0.703,4.764,1.455c0.347-0.781,0.729-1.5,1.184-2.125
				c1.704-2.345,4.711-4.628,7.069-6.206c-0.138-0.22-0.26-0.453-0.363-0.698c-0.986-2.34,0.044-5.048,2.346-6.161
				c0.014-0.007,0.263-0.137,0.755-0.286c0.758-0.243,2.024-0.55,3.488-0.55c0.931,0,1.807,0.123,2.624,0.368
				c0.797-1.334,1.999-3.256,4.928-4.264c0.869-0.299,1.784-0.451,2.719-0.451c2.279,0,4.007,0.914,4.482,1.194
				c2.127,1.268,2.939,3.986,1.862,6.198c-0.795,1.632-2.48,2.686-4.293,2.686c-0.282,0-0.561-0.025-0.836-0.074
				c-0.331,0.558-0.697,1.226-0.881,1.56c-0.898,1.636-1.667,3.038-2.702,4.075c-1.454,1.455-2.886,2.15-3.932,2.658
				c-0.486,0.236-0.837,0.407-1.067,0.588c-0.965,0.761-2.067,1.437-3.235,2.153c-0.985,0.604-2.617,1.606-3.037,2.084
				c-1.535,1.746-4.345,7.704-5.242,10.21c0.444,0.333,1.029,0.721,1.406,0.972c1.301,0.864,2.769,1.837,3.899,3.187
				c1.868,2.226,3.279,5.465,4.214,7.608c0.054,0.124,0.105,0.243,0.154,0.355c0.413,0.221,0.958,0.489,1.215,0.617
				c1.392,0.687,2.959,1.46,4.242,2.538c1.554,1.306,2.664,3.195,3.737,5.022c0.479,0.817,0.959,1.635,1.373,2.211
				c0.461,0.641,1.26,1.448,2.033,2.228c0.877,0.887,1.87,1.891,2.798,3.045c1.1,1.368,1.696,3.154,2.386,5.223
				c0.369,1.105,0.784,2.35,1.142,3.021c0.04,0.054,0.21,0.219,0.348,0.352c0.998,0.964,2.502,2.419,3.737,6.127
				c0.654,1.964,0.806,3.39,0.928,4.534c0.146,1.382,0.242,2.286,1.456,4.64c1.564,3.033,3.719,5.9,5.62,8.429
				c0.627,0.833,1.231,1.638,1.792,2.413c1.056,1.46,1.203,3.364,0.383,4.969c-0.823,1.607-2.452,2.603-4.252,2.603H94.073z"/>
			<path fill="none" stroke="#7A5C46" stroke-width="0.25" stroke-miterlimit="10" d="M94.073,142.954
				c-1.284,0-2.518-0.521-3.414-1.436c-1.393-1.274-5.697-5.529-8.403-11.682c-1.128-2.563-1.582-4.943-1.983-7.042
				c-0.309-1.616-0.6-3.134-1.168-4.739c-0.247-0.286-0.659-0.735-0.861-0.955c-1.031-1.123-2.096-2.283-2.667-3.599
				c-0.289-0.665-0.558-1.356-0.842-2.087c-0.672-1.732-1.493-3.847-2.397-4.691c-1.481-1.381-2.738-2.887-4.262-4.851
				c-1.824-1.849-2.578-3.832-3.082-5.156c-0.005-0.013-0.01-0.027-0.015-0.041c-1.768-0.626-4.14-1.491-5.592-3.394
				c-0.719-0.938-1.257-2.15-1.881-3.554c-0.326-0.732-1.07-2.401-1.407-2.827c-1.487-1.599-2.516-2.55-3.423-3.39
				c-1.52-1.403-2.714-2.507-4.507-5.116c-1.337-1.944-1.686-4.58-2.056-7.371c-0.05-0.377-0.128-0.962-0.21-1.501
				c-0.747-0.164-1.649-0.43-2.605-0.952c-0.146-0.034-0.415-0.079-0.62-0.114c-1.602-0.271-4.771-0.806-6.822-4.181
				c-0.041,0-0.082,0.001-0.122,0.001c-1.683,0-3.143-0.488-4.348-1.451c-0.289-0.145-1.151-0.395-2.08-0.395
				c-0.373,0-0.598,0.043-0.653,0.061c-2.063,0.912-4.036,1.417-5.815,1.482c-0.241,0.038-0.593,0.081-1.004,0.081
				c-1.032,0-2.008-0.258-2.901-0.768c-1.407-0.8-2.976-2.009-3.042-2.06c-1.469-1.129-2.11-2.946-1.78-4.668
				c-2.175-2.126-1.858-4.287-1.446-5.433c0.699-1.949,2.513-3.211,4.621-3.211c0.406,0,1.632,0,3.913,1.159
				c0.27,0.099,1.029,0.307,1.446,0.42c1.595,0.437,3.389,0.928,4.983,1.773c0.727,0.386,0.8,0.398,2.024,0.595
				c0.413,0.067,0.884,0.143,1.445,0.246c-1.759-0.855-3.316-1.863-4.428-3.169c-3.034-3.566-3.708-7.293-4.112-9.52
				c-0.004-0.021-0.008-0.044-0.012-0.068c-0.394-0.161-0.825-0.329-1.212-0.479c-3.559-1.386-7.961-3.1-7.961-7.569
				c0-1.03,0.261-1.875,0.687-2.583c-2.197-0.792-4.236-2.313-4.274-5.454c-0.015-1.255,0.182-2.366,0.43-3.341
				c-1.439-0.278-3.547-0.632-6.63-1.069c-1.23-0.173-1.646-0.232-2.029-0.326c-2.219-0.538-5.658-3.154-6.565-4.999
				c-1.397-2.807-0.772-4.78-0.001-5.939c0.887-1.332,2.372-2.127,3.973-2.127c0.208,0,0.416,0.013,0.625,0.041
				c1.67,0.222,3.109,1.327,3.766,2.857C3.381,8.399,3.433,8.454,3.51,8.52c0.914,0.223,3.242,0.612,4.426,0.811
				c7.889,1.322,13.251,2.221,13.554,6.837c0.256-0.177,0.504-0.353,0.741-0.526c-0.651-1.092-0.911-2.376-0.705-3.644
				c0.355-2.192,2.045-4.079,4.759-5.313c0.619-0.284,1.286-0.429,1.976-0.429c1.785,0,3.408,0.983,4.234,2.566
				c0.43,0.826,0.593,1.73,0.517,2.607c0.867,0.682,1.772,1.716,2.073,3.311c0.296,1.561-0.123,3.139-1.182,4.438
				c-0.861,1.057-2.204,1.999-4.911,3.852c1.204,1.532,1.365,3.199,1.181,4.565c-0.061,0.451-0.162,0.868-0.294,1.257
				c2.346-0.742,7.109-2.358,16.618-5.865l0.356-0.131c-0.677-0.601-1.15-1.286-1.598-1.99c-1.29-2.033-0.862-4.717,0.993-6.246
				c0.85-0.702,1.93-1.09,3.037-1.09c0.575,0,1.137,0.102,1.664,0.298c0.804-0.893,1.968-1.722,3.642-2.348
				c1.417-0.53,2.154-0.751,3.058-0.751c2.128,0,4.026,1.421,4.615,3.457c0.473,1.625,0.04,3.396-1.131,4.634
				c-0.263,0.29-0.551,0.541-0.856,0.761c0.191,0.357,0.368,0.755,0.512,1.195c0.364,1.11,1.148,4.826-3.631,6.955
				c-1.186,3.106-5.477,4.53-12.856,6.978c-2.097,0.696-7.818,2.593-10.33,3.832c0.237,1.012,0.709,2.345,1.646,3.489
				c0.743,0.32,2.562,0.836,3.384,1.069c4.681,1.327,11.741,3.329,11.592,9.702c-0.054,2.293-0.758,4.172-1.547,5.646
				c1.651,0.329,3.318,0.703,4.764,1.455c0.347-0.781,0.729-1.5,1.184-2.125c1.704-2.345,4.711-4.628,7.069-6.206
				c-0.138-0.22-0.26-0.453-0.363-0.698c-0.986-2.34,0.044-5.048,2.346-6.161c0.014-0.007,0.263-0.137,0.755-0.286
				c0.758-0.243,2.024-0.55,3.488-0.55c0.931,0,1.807,0.123,2.624,0.368c0.797-1.334,1.999-3.256,4.928-4.264
				c0.869-0.299,1.784-0.451,2.719-0.451c2.279,0,4.007,0.914,4.482,1.194c2.127,1.268,2.939,3.986,1.862,6.198
				c-0.795,1.632-2.48,2.686-4.293,2.686c-0.282,0-0.561-0.025-0.836-0.074c-0.331,0.558-0.697,1.226-0.881,1.56
				c-0.898,1.636-1.667,3.038-2.702,4.075c-1.454,1.455-2.886,2.15-3.932,2.658c-0.486,0.236-0.837,0.407-1.067,0.588
				c-0.965,0.761-2.067,1.437-3.235,2.153c-0.985,0.604-2.617,1.606-3.037,2.084c-1.535,1.746-4.345,7.704-5.242,10.21
				c0.444,0.333,1.029,0.721,1.406,0.972c1.301,0.864,2.769,1.837,3.899,3.187c1.868,2.226,3.279,5.465,4.214,7.608
				c0.054,0.124,0.105,0.243,0.154,0.355c0.413,0.221,0.958,0.489,1.215,0.617c1.392,0.687,2.959,1.46,4.242,2.538
				c1.554,1.306,2.664,3.195,3.737,5.022c0.479,0.817,0.959,1.635,1.373,2.211c0.461,0.641,1.26,1.448,2.033,2.228
				c0.877,0.887,1.87,1.891,2.798,3.045c1.1,1.368,1.696,3.154,2.386,5.223c0.369,1.105,0.784,2.35,1.142,3.021
				c0.04,0.054,0.21,0.219,0.348,0.352c0.998,0.964,2.502,2.419,3.737,6.127c0.654,1.964,0.806,3.39,0.928,4.534
				c0.146,1.382,0.242,2.286,1.456,4.64c1.564,3.033,3.719,5.9,5.62,8.429c0.627,0.833,1.231,1.638,1.792,2.413
				c1.056,1.46,1.203,3.364,0.383,4.969c-0.823,1.607-2.452,2.603-4.252,2.603H94.073z"/>
		</g>
		<g opacity="0.6" clip-path="url(#SVGID_8_)" filter="url(#AI_GaussianBlur_4)">
			<path fill="#17DFE5" d="M94.073,141.18c-0.858,0-1.632-0.36-2.179-0.938c-1.06-0.968-5.386-5.145-8.014-11.122
				c-1.046-2.376-1.462-4.554-1.864-6.66c-0.337-1.763-0.655-3.431-1.339-5.272c-0.205-0.285-0.753-0.883-1.126-1.289
				c-0.975-1.062-1.896-2.065-2.348-3.107c-0.278-0.641-0.549-1.336-0.827-2.052c-0.762-1.966-1.626-4.193-2.829-5.314
				c-1.417-1.323-2.602-2.746-4.137-4.729c-1.617-1.606-2.301-3.409-2.76-4.616c-0.099-0.259-0.223-0.587-0.321-0.805
				c-0.199-0.075-0.452-0.165-0.659-0.238c-1.654-0.585-3.713-1.314-4.873-2.833c-0.591-0.773-1.067-1.843-1.67-3.198
				c-0.464-1.042-1.24-2.787-1.698-3.28c-1.568-1.688-2.625-2.665-3.558-3.527c-1.432-1.323-2.562-2.369-4.241-4.811
				c-1.095-1.592-1.418-4.024-1.76-6.599c-0.117-0.879-0.283-2.131-0.445-2.789c-0.104-0.019-0.213-0.038-0.309-0.055
				c-0.811-0.14-1.92-0.333-3.096-1.005c-0.146-0.083-0.689-0.175-1.049-0.236c-1.57-0.265-4.488-0.757-6.08-4.265
				c-0.083,0.005-0.16,0.011-0.236,0.017c-0.312,0.023-0.621,0.043-0.923,0.043c-1.316,0-2.397-0.365-3.306-1.115
				c-0.319-0.262-1.634-0.73-3.123-0.73c-0.651,0-1.102,0.097-1.307,0.187c-1.961,0.865-3.756,1.322-5.337,1.36
				c-0.209,0.036-0.492,0.076-0.829,0.076c-0.721,0-1.401-0.18-2.023-0.535c-1.254-0.713-2.675-1.8-2.833-1.921
				c-1.184-0.911-1.512-2.548-0.79-3.839c-0.137-0.096-0.274-0.201-0.412-0.315c-1.461-1.206-1.947-2.532-1.441-3.941
				c0.444-1.238,1.604-2.038,2.952-2.038c0.818,0,1.887,0.336,3.175,1c0.24,0.113,1.093,0.346,1.715,0.516
				c1.423,0.389,3.195,0.874,4.62,1.629c0.987,0.524,1.292,0.573,2.575,0.781c0.554,0.089,1.213,0.196,2.062,0.362
				c0.901,0.177,1.915,0.465,2.989,0.769c1.626,0.461,3.65,1.035,4.839,1.035c0.092,0,0.163-0.004,0.214-0.008
				c0.67-0.528,1.258-1.114,1.636-1.579c-1.025-0.501-2.633-1.085-3.992-1.579c-3.55-1.289-7.221-2.622-9.098-4.828
				c-2.723-3.2-3.321-6.5-3.717-8.685c-0.058-0.318-0.129-0.712-0.195-1.007c-0.578-0.272-1.4-0.593-2.149-0.885
				c-3.35-1.303-6.813-2.651-6.813-5.909c0-1.732,1.146-2.711,2.604-3.547c-2.637-0.376-6.149-1.086-6.192-4.51
				c-0.02-1.682,0.41-3.081,0.789-4.315c0.035-0.115,0.07-0.228,0.104-0.338c-1.431-0.355-4.016-0.842-8.62-1.493
				c-1.205-0.17-1.564-0.223-1.851-0.292c-1.823-0.442-4.773-2.794-5.396-4.055c-0.821-1.654-0.861-3.061-0.118-4.176
				c0.579-0.868,1.528-1.475,2.542-1.475c0.152,0,0.305,0.014,0.458,0.042c1.156,0.213,2.039,0.941,2.324,2.07
				c0.084,0.146,0.343,0.531,0.924,0.925c0.744,0.241,3.15,0.645,4.929,0.942c7.946,1.332,12.322,2.064,12.076,5.868
				c-0.063,0.992-0.349,1.932-0.606,2.766c1.95-1.048,4.297-2.617,5.68-3.83c-0.114-0.093-0.229-0.192-0.344-0.298
				c-0.942-0.876-1.368-2.08-1.169-3.305c0.348-2.143,2.493-3.415,3.741-3.983c0.402-0.183,0.825-0.27,1.241-0.27
				c1.086,0,2.129,0.592,2.662,1.614c0.434,0.833,0.44,1.78,0.091,2.584c0.837,0.482,2.032,1.272,2.329,2.84
				c0.114,0.603,0.16,1.793-0.814,2.989c-0.708,0.868-2.053,1.808-4.569,3.53c-0.522,0.357-1.168,0.799-1.808,1.249
				c1.355,0.876,2.569,2.266,2.265,4.521c-0.237,1.765-1.373,2.899-2.458,3.7c0.377,0.031,0.713,0.052,0.94,0.065
				c0.438,0.027,0.81,0.05,1.143,0.086c0.966-0.19,4.7-1.257,19.072-6.558l0.805-0.296c0.939-0.345,1.123-0.527,1.13-0.535
				c0.108-0.135,0.331-0.789,0.51-1.315c0.007-0.021,0.014-0.041,0.021-0.062c-0.042-0.016-0.082-0.032-0.118-0.047
				c-1.294-0.528-1.904-1.221-2.706-2.482c-0.813-1.278-0.546-2.96,0.622-3.924c0.556-0.458,1.233-0.686,1.909-0.686
				c0.692,0,1.383,0.238,1.94,0.711c0.066,0.039,0.163,0.086,0.276,0.14c0.56-1.155,1.671-2.251,3.712-3.014
				c1.356-0.507,1.857-0.638,2.436-0.638c1.334,0,2.539,0.892,2.911,2.173c0.225,0.776,0.102,1.608-0.281,2.303
				c-0.537,1.035-1.613,1.589-2.621,1.982c0.473,0.522,1.086,1.271,1.445,2.367c0.403,1.228,0.546,3.5-3.01,4.925
				c-0.125,0.05-0.283,0.113-0.424,0.174c-0.471,2.795-4.056,3.985-11.925,6.596c-3.539,1.174-9.901,3.285-11.733,4.63
				c0.135,1.196,0.633,3.717,2.47,5.775c0.578,0.396,2.656,0.985,4.042,1.377c4.64,1.314,10.415,2.951,10.298,7.952
				c-0.074,3.148-1.581,5.395-2.625,6.902c0.655,0.162,1.414,0.311,1.972,0.421c1.962,0.386,3.991,0.785,5.452,1.763
				c0.385,0.258,0.719,0.541,1.008,0.841c0.536-1.504,1.083-2.878,1.801-3.864c2.071-2.85,6.363-5.678,8.558-7.012
				c-0.699-0.292-1.288-0.855-1.615-1.612c-0.633-1.469,0.052-3.202,1.487-3.907c0,0,0.152-0.075,0.452-0.165
				c0.576-0.184,1.693-0.476,2.98-0.476c1.259,0,2.383,0.274,3.349,0.816c0.093-0.167,0.191-0.334,0.297-0.497
				c0.171-0.263,0.318-0.51,0.456-0.74c0.732-1.225,1.643-2.75,4.026-3.571c0.685-0.236,1.406-0.355,2.143-0.355
				c1.893,0,3.319,0.792,3.586,0.951c1.339,0.797,1.845,2.487,1.164,3.889c-0.516,1.061-1.581,1.689-2.699,1.689
				c-0.359,0-0.724-0.065-1.078-0.201c-0.022-0.006-0.275-0.075-0.509-0.075c-0.026,0-0.049,0.001-0.067,0.002
				c-0.39,0.442-1.156,1.839-1.625,2.692c-0.826,1.505-1.539,2.804-2.396,3.663c-1.238,1.24-2.464,1.837-3.45,2.316
				c-0.564,0.274-1.01,0.491-1.39,0.79c-0.883,0.696-1.991,1.375-3.062,2.033c-1.268,0.778-2.845,1.746-3.444,2.428
				c-1.914,2.177-5.553,10.016-5.914,11.93c0.308,0.494,1.629,1.37,2.435,1.904c1.253,0.832,2.549,1.691,3.517,2.845
				c1.705,2.033,3.056,5.133,3.95,7.184c0.148,0.341,0.278,0.642,0.389,0.884c0.398,0.261,1.237,0.675,1.819,0.962
				c1.296,0.64,2.766,1.364,3.887,2.307c1.321,1.11,2.354,2.869,3.352,4.57c0.51,0.87,0.992,1.691,1.457,2.337
				c0.537,0.747,1.352,1.571,2.213,2.443c0.849,0.858,1.811,1.832,2.678,2.909c0.899,1.118,1.449,2.764,2.084,4.67
				c0.409,1.224,0.831,2.49,1.259,3.293c0.142,0.267,0.286,0.413,0.682,0.795c1.153,1.115,2.271,2.368,3.285,5.412
				c0.596,1.789,0.73,3.056,0.848,4.174c0.154,1.454,0.275,2.602,1.642,5.252c1.633,3.167,3.836,6.097,5.779,8.683
				c0.62,0.825,1.217,1.62,1.771,2.386c0.66,0.913,0.753,2.12,0.24,3.123s-1.544,1.635-2.671,1.635H94.073z"/>
		</g>
		<path clip-path="url(#SVGID_8_)" fill="#035A82" stroke="#00ADAF" stroke-width="0.5" stroke-miterlimit="10" d="M71.653,98.692
			c-2.295-2.164-2.111-4.933-3.505-5.875c-0.768-0.518-4.025-1.201-4.967-2.433c-0.898-1.175-2.179-5.217-3.553-6.698
			c-4.062-4.372-5.021-4.353-7.525-7.996c-1.223-1.778-1.203-7.396-2.043-9.246c-0.84-1.851-2.73-1.066-4.551-2.106
			c-1.821-1.04-4.495-0.037-5.896-3.16c-1.401-3.122-3.735-0.833-5.276-2.105c-1.541-1.272-5.446-1.901-7.547-0.976
			c-2.101,0.926-3.503,1.108-4.343,1.108c-0.251,0-0.678,0.204-1.152-0.067c-1.113-0.633-2.49-1.693-2.49-1.693
			s2.241,1.115,3.222,0.999c0.98-0.115,2.522-0.725,3.362-0.999c0.84-0.273,1.541-0.735-1.821-2.123
			c-3.362-1.389-4.483-0.81-5.883-1.967c-1.401-1.156,0.28-0.578,1.4,0c1.121,0.578,4.343,1.089,6.304,2.129
			c1.96,1.042,2.521,0.858,5.463,1.437c2.941,0.578,8.345,2.817,10.235,1.394c0.43-0.324,5.246-4.005,2.664-6.021
			c-2.583-2.015-11.068-3.654-13.447-6.45c-3.702-4.351-2.566-9.062-4.099-10.023c-2.135-1.339-8.061-2.679-8.061-4.518
			c0-1.072,7.578-3.19,5.477-5.041s-9.039-1.017-9.064-3.054c-0.026-2.189,1.079-3.95,1.314-6.198
			c0.158-1.505-12.36-2.918-13.185-3.118c-1.086-0.263-3.232-2.102-3.414-2.468c-0.469-0.946-0.311-1.185-0.311-1.185
			s0.466,1.389,2.302,2.535c1.586,0.989,15.577,2.188,15.46,3.98c-0.117,1.816-1.595,4.093-0.846,6.039
			c0.513,1.335,1.607,0.988,3.066,0.347c2.44-1.073,8.437-4.696,9.651-7.167c0.651-1.327-0.987-1.544-2.108-2.584
			c-1.121-1.042,1.773-2.358,1.773-2.358s-1.213,0.717-1.073,1.548c0.632,2.231,4.068,2.287,3.012,3.585
			c-1.18,1.448-10.081,6.563-9.241,7.488c0.84,0.925,4.763,1.225,4.482,3.306c-0.28,2.082-4.482,2.661-4.342,4.973
			s5.454,2.062,6.855,2.293c1.4,0.231,18.473-6.126,20.995-7.052s2.759-1.678,3.464-3.752c0.531-1.562,0.993-1,0.854-2.041
			c-0.14-1.041-2.005-1.485-2.677-1.759c-0.483-0.197-0.673-0.317-1.307-1.314c0.918,0.869,4.896,1.774,4.994,3.053
			c0.075,0.975-1.671,2.159-1.001,2.102c0.844-0.074,2.392-0.496,2.36-1.333c-0.031-0.822-0.899-0.625-1.459-2.592
			c-0.559-1.966,0.23-2.891,2.086-3.585c1.856-0.693,1.353-0.374,1.353-0.374s-0.034,0.237-1.711,0.833
			c-0.446,0.159-1.781,1.048-1.642,2.551c0.14,1.503,1.533,1.915,1.988,3.303c0.455,1.387-3.527,1.007-3.53,3.493
			c-0.002,2.537-23.762,7.255-23.762,11.205c0,1.112,0.38,5.282,3.361,8.555c2.088,2.292,13.601,2.826,13.499,7.174
			c-0.094,3.998-3.491,6.121-3.335,7.898c0.214,2.456,7.094,2.163,9.465,3.751c2.146,1.439,1.357,4.525,1.707,5.528
			c2.241,1.041,3.516-6.967,5.198-9.279c1.681-2.313,5.731-5.094,8.533-6.714c2.801-1.618,5.684-1.876,3.022-3.726
			c-2.662-1.851-4.341-1.111-4.341-1.111s2.643-0.988,4.344,0.198c1.129,0.787,1.504,1.443,1.948,1.385
			c0.919-0.119,1.428-1.998,2.089-3.011c0.98-1.504,1.265-2.534,2.946-3.113c1.68-0.578,3.217,0.337,3.217,0.337
			s-2.101-0.81-3.502,0.348c-1.4,1.156-3.083,5.4-4.296,6.614c-1.542,1.545-3.094,1.704-4.574,2.87
			c-1.89,1.489-5.422,3.15-6.904,4.838c-2.259,2.569-6.546,11.638-6.672,13.82c-0.174,2.991,4.765,4.5,6.664,6.766
			c1.873,2.233,3.468,6.539,4.11,7.812c0.609,1.207,4.457,2.342,6.303,3.894c1.479,1.243,2.845,4.333,4.303,6.362
			c1.272,1.77,3.351,3.444,4.989,5.481c1.042,1.295,1.846,5.266,3.034,7.495c1.013,1.905,2.404,1.646,3.769,5.745
			c1.265,3.798,0.008,4.691,2.67,9.854c2.274,4.41,5.431,8.194,7.786,11.451c-1.464,0-4.456,0-4.203,0c0,0-4.752-4.105-7.462-10.267
			c-1.75-3.976-1.502-7.474-3.203-11.944c-0.375-0.986-2.972-3.224-3.468-4.37c-1.158-2.668-2.155-6.309-4.362-8.367
			C74.244,101.972,73.099,100.566,71.653,98.692z"/>
	</g>
</g>
<g id="Layer_4">
</g>
</svg>
