<?xml version="1.0" encoding="utf-8"?>
<!-- Generator: Adobe Illustrator 16.0.0, SVG Export Plug-In . SVG Version: 6.00 Build 0)  -->
<!DOCTYPE svg PUBLIC "-//W3C//DTD SVG 1.1//EN" "http://www.w3.org/Graphics/SVG/1.1/DTD/svg11.dtd">
<svg version="1.1" xmlns="http://www.w3.org/2000/svg" xmlns:xlink="http://www.w3.org/1999/xlink" x="0px" y="0px"
	 width="87.891px" height="87.931px" viewBox="0 0 87.891 87.931" enable-background="new 0 0 87.891 87.931" xml:space="preserve">
<g id="Layer_1">
	<g display="none" opacity="0.4">
		<linearGradient id="SVGID_1_" gradientUnits="userSpaceOnUse" x1="116.8638" y1="94.1699" x2="138.1984" y2="125.9223">
			<stop  offset="0" style="stop-color:#946700"/>
			<stop  offset="0.0434" style="stop-color:#AE7400"/>
			<stop  offset="0.1359" style="stop-color:#F19500"/>
			<stop  offset="0.1538" style="stop-color:#FF9C00"/>
			<stop  offset="0.1613" style="stop-color:#FA9902"/>
			<stop  offset="0.2067" style="stop-color:#DE8A0F"/>
			<stop  offset="0.2526" style="stop-color:#CB7F19"/>
			<stop  offset="0.2989" style="stop-color:#BF781E"/>
			<stop  offset="0.3462" style="stop-color:#BB7620"/>
			<stop  offset="0.3907" style="stop-color:#98601A"/>
			<stop  offset="0.4661" style="stop-color:#623E11"/>
			<stop  offset="0.5365" style="stop-color:#38230A"/>
			<stop  offset="0.5997" style="stop-color:#191004"/>
			<stop  offset="0.6535" style="stop-color:#070401"/>
			<stop  offset="0.6914" style="stop-color:#000000"/>
			<stop  offset="0.7515" style="stop-color:#030200"/>
			<stop  offset="0.8019" style="stop-color:#0E0A00"/>
			<stop  offset="0.8489" style="stop-color:#1F1600"/>
			<stop  offset="0.8938" style="stop-color:#382700"/>
			<stop  offset="0.9373" style="stop-color:#573D00"/>
			<stop  offset="0.979" style="stop-color:#7E5700"/>
			<stop  offset="1" style="stop-color:#946700"/>
		</linearGradient>
		<polygon display="inline" fill="url(#SVGID_1_)" points="151.051,117.598 151.965,116.989 151.965,70.914 81.879,117.598 		"/>
		<linearGradient id="SVGID_2_" gradientUnits="userSpaceOnUse" x1="44.6704" y1="45.9233" x2="66.3901" y2="78.2488">
			<stop  offset="0" style="stop-color:#946700"/>
			<stop  offset="0.0434" style="stop-color:#AE7400"/>
			<stop  offset="0.1359" style="stop-color:#F19500"/>
			<stop  offset="0.1538" style="stop-color:#FF9C00"/>
			<stop  offset="0.1613" style="stop-color:#FA9902"/>
			<stop  offset="0.2067" style="stop-color:#DE8A0F"/>
			<stop  offset="0.2526" style="stop-color:#CB7F19"/>
			<stop  offset="0.2989" style="stop-color:#BF781E"/>
			<stop  offset="0.3462" style="stop-color:#BB7620"/>
			<stop  offset="0.3907" style="stop-color:#98601A"/>
			<stop  offset="0.4661" style="stop-color:#623E11"/>
			<stop  offset="0.5365" style="stop-color:#38230A"/>
			<stop  offset="0.5997" style="stop-color:#191004"/>
			<stop  offset="0.6535" style="stop-color:#070401"/>
			<stop  offset="0.6914" style="stop-color:#000000"/>
			<stop  offset="0.7515" style="stop-color:#030200"/>
			<stop  offset="0.8019" style="stop-color:#0E0A00"/>
			<stop  offset="0.8489" style="stop-color:#1F1600"/>
			<stop  offset="0.8938" style="stop-color:#382700"/>
			<stop  offset="0.9373" style="stop-color:#573D00"/>
			<stop  offset="0.979" style="stop-color:#7E5700"/>
			<stop  offset="1" style="stop-color:#946700"/>
		</linearGradient>
		<polygon display="inline" fill="url(#SVGID_2_)" points="151.965,21.072 151.965,-25.002 -62.121,117.598 7.051,117.598 		"/>
		<linearGradient id="SVGID_3_" gradientUnits="userSpaceOnUse" x1="21.9556" y1="13.2163" x2="43.6201" y2="45.4598">
			<stop  offset="0" style="stop-color:#946700"/>
			<stop  offset="0.0434" style="stop-color:#AE7400"/>
			<stop  offset="0.1359" style="stop-color:#F19500"/>
			<stop  offset="0.1538" style="stop-color:#FF9C00"/>
			<stop  offset="0.1613" style="stop-color:#FA9902"/>
			<stop  offset="0.2067" style="stop-color:#DE8A0F"/>
			<stop  offset="0.2526" style="stop-color:#CB7F19"/>
			<stop  offset="0.2989" style="stop-color:#BF781E"/>
			<stop  offset="0.3462" style="stop-color:#BB7620"/>
			<stop  offset="0.3907" style="stop-color:#98601A"/>
			<stop  offset="0.4661" style="stop-color:#623E11"/>
			<stop  offset="0.5365" style="stop-color:#38230A"/>
			<stop  offset="0.5997" style="stop-color:#191004"/>
			<stop  offset="0.6535" style="stop-color:#070401"/>
			<stop  offset="0.6914" style="stop-color:#000000"/>
			<stop  offset="0.7515" style="stop-color:#030200"/>
			<stop  offset="0.8019" style="stop-color:#0E0A00"/>
			<stop  offset="0.8489" style="stop-color:#1F1600"/>
			<stop  offset="0.8938" style="stop-color:#382700"/>
			<stop  offset="0.9373" style="stop-color:#573D00"/>
			<stop  offset="0.979" style="stop-color:#7E5700"/>
			<stop  offset="1" style="stop-color:#946700"/>
		</linearGradient>
		<polygon display="inline" fill="url(#SVGID_3_)" points="81.879,-26.402 -64.035,70.914 -64.035,116.988 151.051,-26.402 		"/>
		<linearGradient id="SVGID_4_" gradientUnits="userSpaceOnUse" x1="-13.9478" y1="-10.6191" x2="7.5246" y2="21.3382">
			<stop  offset="0" style="stop-color:#946700"/>
			<stop  offset="0.0434" style="stop-color:#AE7400"/>
			<stop  offset="0.1359" style="stop-color:#F19500"/>
			<stop  offset="0.1538" style="stop-color:#FF9C00"/>
			<stop  offset="0.1613" style="stop-color:#FA9902"/>
			<stop  offset="0.2067" style="stop-color:#DE8A0F"/>
			<stop  offset="0.2526" style="stop-color:#CB7F19"/>
			<stop  offset="0.2989" style="stop-color:#BF781E"/>
			<stop  offset="0.3462" style="stop-color:#BB7620"/>
			<stop  offset="0.3907" style="stop-color:#98601A"/>
			<stop  offset="0.4661" style="stop-color:#623E11"/>
			<stop  offset="0.5365" style="stop-color:#38230A"/>
			<stop  offset="0.5997" style="stop-color:#191004"/>
			<stop  offset="0.6535" style="stop-color:#070401"/>
			<stop  offset="0.6914" style="stop-color:#000000"/>
			<stop  offset="0.7515" style="stop-color:#030200"/>
			<stop  offset="0.8019" style="stop-color:#0E0A00"/>
			<stop  offset="0.8489" style="stop-color:#1F1600"/>
			<stop  offset="0.8938" style="stop-color:#382700"/>
			<stop  offset="0.9373" style="stop-color:#573D00"/>
			<stop  offset="0.979" style="stop-color:#7E5700"/>
			<stop  offset="1" style="stop-color:#946700"/>
		</linearGradient>
		<polygon display="inline" fill="url(#SVGID_4_)" points="9.88,-26.402 -64.035,22.956 -64.035,69.03 79.051,-26.402 		"/>
		<linearGradient id="SVGID_5_" gradientUnits="userSpaceOnUse" x1="80.7676" y1="70.0469" x2="102.2944" y2="102.0854">
			<stop  offset="0" style="stop-color:#946700"/>
			<stop  offset="0.0434" style="stop-color:#AE7400"/>
			<stop  offset="0.1359" style="stop-color:#F19500"/>
			<stop  offset="0.1538" style="stop-color:#FF9C00"/>
			<stop  offset="0.1613" style="stop-color:#FA9902"/>
			<stop  offset="0.2067" style="stop-color:#DE8A0F"/>
			<stop  offset="0.2526" style="stop-color:#CB7F19"/>
			<stop  offset="0.2989" style="stop-color:#BF781E"/>
			<stop  offset="0.3462" style="stop-color:#BB7620"/>
			<stop  offset="0.3907" style="stop-color:#98601A"/>
			<stop  offset="0.4661" style="stop-color:#623E11"/>
			<stop  offset="0.5365" style="stop-color:#38230A"/>
			<stop  offset="0.5997" style="stop-color:#191004"/>
			<stop  offset="0.6535" style="stop-color:#070401"/>
			<stop  offset="0.6914" style="stop-color:#000000"/>
			<stop  offset="0.7515" style="stop-color:#030200"/>
			<stop  offset="0.8019" style="stop-color:#0E0A00"/>
			<stop  offset="0.8489" style="stop-color:#1F1600"/>
			<stop  offset="0.8938" style="stop-color:#382700"/>
			<stop  offset="0.9373" style="stop-color:#573D00"/>
			<stop  offset="0.979" style="stop-color:#7E5700"/>
			<stop  offset="1" style="stop-color:#946700"/>
		</linearGradient>
		<polygon display="inline" fill="url(#SVGID_5_)" points="79.051,117.598 151.965,69.03 151.965,22.956 9.879,117.598 		"/>
		<linearGradient id="SVGID_6_" gradientUnits="userSpaceOnUse" x1="-49.9038" y1="-34.5332" x2="-28.5708" y2="-2.7832">
			<stop  offset="0" style="stop-color:#946700"/>
			<stop  offset="0.0434" style="stop-color:#AE7400"/>
			<stop  offset="0.1359" style="stop-color:#F19500"/>
			<stop  offset="0.1538" style="stop-color:#FF9C00"/>
			<stop  offset="0.1613" style="stop-color:#FA9902"/>
			<stop  offset="0.2067" style="stop-color:#DE8A0F"/>
			<stop  offset="0.2526" style="stop-color:#CB7F19"/>
			<stop  offset="0.2989" style="stop-color:#BF781E"/>
			<stop  offset="0.3462" style="stop-color:#BB7620"/>
			<stop  offset="0.3907" style="stop-color:#98601A"/>
			<stop  offset="0.4661" style="stop-color:#623E11"/>
			<stop  offset="0.5365" style="stop-color:#38230A"/>
			<stop  offset="0.5997" style="stop-color:#191004"/>
			<stop  offset="0.6535" style="stop-color:#070401"/>
			<stop  offset="0.6914" style="stop-color:#000000"/>
			<stop  offset="0.7515" style="stop-color:#030200"/>
			<stop  offset="0.8019" style="stop-color:#0E0A00"/>
			<stop  offset="0.8489" style="stop-color:#1F1600"/>
			<stop  offset="0.8938" style="stop-color:#382700"/>
			<stop  offset="0.9373" style="stop-color:#573D00"/>
			<stop  offset="0.979" style="stop-color:#7E5700"/>
			<stop  offset="1" style="stop-color:#946700"/>
		</linearGradient>
		<polygon display="inline" fill="url(#SVGID_6_)" points="-62.121,-26.402 -64.035,-25.002 -64.035,21.072 7.052,-26.402 		"/>
	</g>
</g>
<g id="Layer_3">
</g>
<g id="Layer_2">
	<g>
		<defs>
			<circle id="SVGID_7_" cx="43.965" cy="43.965" r="43.965"/>
		</defs>
		<clipPath id="SVGID_8_">
			<use xlink:href="#SVGID_7_"  overflow="visible"/>
		</clipPath>
		<path clip-path="url(#SVGID_8_)" fill="#A1C6FF" d="M87.877,44.113c0,19.564-19.72,44.044-44.045,44.044
			c-24.326,0-44.044-24.48-44.044-44.044c0-24.325,19.719-44.044,44.044-44.044C68.157,0.069,87.877,19.788,87.877,44.113z"/>
		<path clip-path="url(#SVGID_8_)" fill="#394A34" d="M-7.95,25.067c39.42,1.907,39.365,1.891,45.364,3.89
			c5.952,1.984,25.167-5.666,31.98-6.667c26.98-3.969,13.69,4.309,13.69,4.309l3.57,13.746l-98.207-5.159L-7.95,25.067z"/>
		<path clip-path="url(#SVGID_8_)" fill="#878256" d="M52.135,30.965c1.236-0.182,6.027-1.391,8.114-1.739s2.666-0.116,3.824-0.464
			c1.16-0.348,5.718-2.854,10.355-3.317c4.636-0.464,11.414,0.877,15.006,1.804c3.594,0.927,2.108,14.611,2.108,14.611
			c-1.102-3.254,8.087,19.118,5.034,23.283C64.436,108.99,26.52,85.672,17.943,84.86C16.346,84.71-17.554,44.166-3.02,29.631
			C-0.38,26.992,38.49,32.978,52.135,30.965z"/>
		<path clip-path="url(#SVGID_8_)" fill="#775E4C" d="M83.754,40.116c-0.69-5.292-21.078-3.39-41.708-1.939
			C27.031,39.234,3.921,40.542,4.12,44.113c0.255,4.596,4.177,2.033,3.571,5.357c-0.329,1.802-8.129,4.865-0.538,7.33
			c9.383,3.047,24.027,0.602,34.894,1.3c2.485,0.16,5.405-1.44,8.499-1.305c6.282,0.273,3.372,2.596,18.777,1.327
			c9.104-0.749,14.436-4.664,14.758-7.389c0.553-4.68-4.949-0.459-4.372-4.834C80.285,41.523,84.305,44.355,83.754,40.116z"/>
		<path clip-path="url(#SVGID_8_)" fill="#8EADE7" d="M12.56,45.466c0.191-2.008,15.67-4.309,21.322-4.329
			c7.569-0.027,23.454-2.459,27.333-2.043c3.878,0.416,16.069,0.786,16.208,2.887c0.139,2.1-5.68,4.455-5.264,6.533
			c0.416,2.078,7.91,0.069,7.355,2.147c-0.555,2.078-10.314,5.397-15.475,5.752c-5.752,0.396-7.069-2.872-10.118-2.777
			c-7.721,0.241-19.443,1.785-25.338,1.024c-4.608-0.595-13.528-1.976-14.082-3.777c-0.554-1.8-0.524-0.865-0.801-2.234
			C13.422,47.282,12.282,48.375,12.56,45.466z"/>
		<path opacity="0.5" clip-path="url(#SVGID_8_)" fill="#FFFFFF" d="M42.729,13.064c0.663,2.523-2.977,4.96-8.135,5.753
			c-5.159,0.793-11.904,0.595-14.682,0c-2.777-0.596-9.842-1.786-9.842-1.786l-1.268-5.753c0,0,12.3-4.762,15.475-4.563
			c3.174,0.198,8.53,0.198,9.919,1.388C35.586,9.295,41.736,9.296,42.729,13.064z"/>
		<path opacity="0.6" clip-path="url(#SVGID_8_)" fill="#FFFFFF" d="M41.141,12.667c0,0,0,2.58-3.176,3.968
			c-3.173,1.39-16.267,1.191-19.839,0.595c-3.571-0.595,0.199-5.952,3.174-6.944c2.976-0.992,12.103,0.992,13.689,1.191
			C36.578,11.676,40.546,10.882,41.141,12.667z"/>
		<path opacity="0.5" clip-path="url(#SVGID_8_)" fill="#FFFFFF" d="M50.703,17.81c-0.664,2.522,3.632,4.09,8.791,4.884
			s9.623-2.083,12.399-2.678c2.778-0.595,11.982,0.29,11.982,0.29l-0.872-7.828c0,0-10.812-7.242-13.988-7.044
			c-3.174,0.199-7.538,4.762-8.927,5.953C58.699,12.575,51.695,14.04,50.703,17.81z"/>
		<path opacity="0.3" clip-path="url(#SVGID_8_)" fill="#FFFFFF" d="M74.305,43.181c-1.719,0.038-3.296,0.001-4.198-0.192
			c-2.777-0.595-7.242-3.471-12.4-2.678c-5.159,0.793-9.454,2.361-8.791,4.883c0.992,3.77,7.996,5.235,9.386,6.425
			c0.491,0.421,1.358,1.265,2.409,2.187c0.927,0.21,2.005,0.317,3.325,0.227c5.161-0.357,14.92-3.675,15.475-5.753
			s-6.939-0.069-7.355-2.147C71.968,45.188,73.065,44.189,74.305,43.181z"/>
		<path opacity="0.3" clip-path="url(#SVGID_8_)" fill="#FFFFFF" d="M37.965,48.75c-3.173-1.388-16.267-1.19-19.839-0.595
			c-2.347,0.391-1.522,2.84,0.164,4.754c4.105,0.801,9.409,1.408,12.076,1.752c0.04,0.005,0.083,0.009,0.122,0.014
			c2.108-0.339,3.882-0.689,4.502-0.767c1.587-0.198,5.556,0.595,6.151-1.19C41.141,52.718,41.141,50.138,37.965,48.75z"/>
		<path opacity="0.3" clip-path="url(#SVGID_8_)" fill="#FFFFFF" d="M32.809,45.972c-5.159-0.793-11.905-0.595-14.682,0
			c-1.482,0.317-0.614,0.805-2.812,1.19c0.965,0.182-1.731,0.326-1.617,0.893c0.277,1.367,0.247,0.433,0.801,2.233
			c0.554,1.802,9.474,3.183,14.082,3.778c2.666,0.344,6.524,0.216,10.664-0.048c0.803-0.562,1.435-1.292,1.699-2.292
			C41.607,49.202,37.967,46.765,32.809,45.972z"/>
		<path clip-path="url(#SVGID_8_)" fill="#4B7D31" d="M-6.296,37.269c0,0,18.749-2.976,24.403-3.572
			c7.45-0.784,10.242-2.447,10.118-3.273c-0.333-2.225-22.947-6.844-30.222-8.333C-9.272,20.603-6.296,37.269-6.296,37.269z"/>
		<path clip-path="url(#SVGID_8_)" fill="#4B7D31" d="M87.744,31.613c0,0-15.178-2.38-15.475-5.058
			c-0.298-2.679,17.856-4.167,17.856-4.167L87.744,31.613z"/>
		<path clip-path="url(#SVGID_8_)" fill="#4B7D31" d="M-2.428,62.267c0,0,57.731,10.87,72.016,16.226
			c14.284,5.356,15.016,15.021,18.29,15.616C91.15,94.705-3.32,97.085-3.32,97.085L-2.428,62.267z"/>
		<linearGradient id="SVGID_9_" gradientUnits="userSpaceOnUse" x1="54.7524" y1="35.0303" x2="58.6546" y2="35.0303">
			<stop  offset="0" style="stop-color:#599200"/>
			<stop  offset="0.2239" style="stop-color:#4F8100"/>
			<stop  offset="0.7249" style="stop-color:#3C6000"/>
			<stop  offset="1" style="stop-color:#355400"/>
		</linearGradient>
		<path clip-path="url(#SVGID_8_)" fill="url(#SVGID_9_)" d="M58.076,40.033c0,0-0.037-0.16-0.1-0.442
			c-0.03-0.142-0.066-0.313-0.108-0.509c-0.044-0.196-0.08-0.424-0.152-0.655c-0.141-0.466-0.266-1.004-0.465-1.574
			c-0.176-0.572-0.4-1.167-0.632-1.756c-0.235-0.591-0.518-1.15-0.739-1.707c-0.207-0.562-0.356-1.115-0.465-1.606
			c-0.223-0.977-0.226-1.705-0.226-1.705l0.098-0.052c0,0,0.112,0.123,0.278,0.347c0.17,0.226,0.381,0.557,0.62,0.972
			c0.236,0.412,0.486,0.913,0.701,1.484c0.104,0.286,0.191,0.596,0.27,0.917c0.077,0.321,0.176,0.633,0.251,0.962
			c0.165,0.649,0.321,1.297,0.432,1.92c0.061,0.309,0.124,0.604,0.151,0.9c0.035,0.29,0.068,0.563,0.098,0.816
			c0.037,0.25,0.036,0.48,0.05,0.682c0.01,0.203,0.017,0.381,0.025,0.525c0.011,0.292,0.018,0.46,0.018,0.46L58.076,40.033z"/>
		<linearGradient id="SVGID_10_" gradientUnits="userSpaceOnUse" x1="58.9902" y1="33.9463" x2="60.9472" y2="33.9463">
			<stop  offset="0" style="stop-color:#599200"/>
			<stop  offset="0.2239" style="stop-color:#4F8100"/>
			<stop  offset="0.7249" style="stop-color:#3C6000"/>
			<stop  offset="1" style="stop-color:#355400"/>
		</linearGradient>
		<path clip-path="url(#SVGID_8_)" fill="url(#SVGID_10_)" d="M59.881,39.385c0,0-0.038-0.167-0.104-0.459
			c-0.062-0.294-0.167-0.705-0.25-1.221c-0.046-0.257-0.094-0.536-0.145-0.831c-0.056-0.296-0.075-0.612-0.117-0.938
			c-0.033-0.325-0.085-0.661-0.098-1.009c-0.021-0.346-0.042-0.7-0.063-1.053c-0.017-0.354-0.007-0.71-0.02-1.064
			c-0.019-0.353-0.003-0.701,0.041-1.038c0.047-0.334,0.09-0.658,0.17-0.955c0.087-0.295,0.179-0.571,0.272-0.82
			c0.163-0.505,0.427-0.87,0.584-1.118c0.167-0.249,0.276-0.372,0.276-0.372l0.094,0.059c0,0,0.001,0.194-0.022,0.503
			c-0.012,0.155-0.03,0.337-0.055,0.54c-0.037,0.197-0.044,0.434-0.063,0.684c-0.018,0.251-0.046,0.517-0.085,0.792
			c-0.018,0.282-0.039,0.582-0.079,0.884c-0.05,0.304-0.104,0.615-0.143,0.941c-0.045,0.324-0.091,0.656-0.122,0.991
			c-0.019,0.336-0.038,0.672-0.056,1.005c-0.026,0.333-0.015,0.662-0.019,0.981c-0.009,0.641,0.009,1.234,0.022,1.749
			c0.001,0.514,0.055,0.948,0.062,1.25c0.015,0.303,0.024,0.477,0.024,0.477L59.881,39.385z"/>
		<linearGradient id="SVGID_11_" gradientUnits="userSpaceOnUse" x1="61.8003" y1="35.1587" x2="64.2502" y2="35.1587">
			<stop  offset="0" style="stop-color:#599200"/>
			<stop  offset="0.2239" style="stop-color:#4F8100"/>
			<stop  offset="0.7249" style="stop-color:#3C6000"/>
			<stop  offset="1" style="stop-color:#355400"/>
		</linearGradient>
		<path clip-path="url(#SVGID_8_)" fill="url(#SVGID_11_)" d="M62.61,39.323c0,0,0.083-0.104,0.227-0.285
			c0.081-0.086,0.147-0.211,0.216-0.346c0.033-0.069,0.076-0.134,0.11-0.214c0.028-0.084,0.058-0.173,0.089-0.266
			c0.075-0.175,0.084-0.403,0.13-0.615c0.004-0.232,0.042-0.461,0.016-0.715c-0.002-0.248-0.042-0.504-0.074-0.764
			c-0.043-0.261-0.089-0.524-0.156-0.786c-0.062-0.261-0.141-0.518-0.233-0.768c-0.083-0.25-0.183-0.493-0.25-0.736
			c-0.145-0.488-0.239-0.965-0.311-1.391c-0.07-0.424-0.117-0.791-0.13-1.059c-0.018-0.266-0.012-0.429-0.012-0.429l0.098-0.054
			c0,0,0.417,0.392,0.823,1.133c0.21,0.365,0.417,0.822,0.574,1.349c0.065,0.271,0.129,0.548,0.162,0.847
			c0.043,0.292,0.078,0.594,0.111,0.896c0.035,0.299,0.051,0.608,0.062,0.909c0.002,0.305-0.004,0.603-0.042,0.895
			c-0.018,0.289-0.097,0.568-0.153,0.824c-0.097,0.248-0.157,0.491-0.28,0.679c-0.055,0.095-0.106,0.186-0.155,0.274
			c-0.057,0.082-0.122,0.151-0.177,0.218c-0.11,0.139-0.208,0.245-0.3,0.3c-0.177,0.132-0.277,0.206-0.277,0.206L62.61,39.323z"/>
		<linearGradient id="SVGID_12_" gradientUnits="userSpaceOnUse" x1="56.3438" y1="36.3311" x2="60.244" y2="36.3311">
			<stop  offset="0" style="stop-color:#599200"/>
			<stop  offset="0.2239" style="stop-color:#4F8100"/>
			<stop  offset="0.7249" style="stop-color:#3C6000"/>
			<stop  offset="1" style="stop-color:#355400"/>
		</linearGradient>
		<path clip-path="url(#SVGID_8_)" fill="url(#SVGID_12_)" d="M59.666,41.334c0,0-0.036-0.161-0.098-0.444
			c-0.03-0.14-0.067-0.311-0.109-0.508c-0.043-0.195-0.08-0.425-0.151-0.654c-0.141-0.467-0.266-1.005-0.466-1.574
			c-0.175-0.573-0.402-1.167-0.632-1.758c-0.235-0.59-0.517-1.148-0.739-1.706c-0.206-0.561-0.357-1.116-0.464-1.606
			c-0.222-0.976-0.226-1.704-0.226-1.704l0.096-0.052c0,0,0.114,0.121,0.278,0.348c0.17,0.224,0.382,0.556,0.62,0.97
			c0.237,0.413,0.486,0.914,0.702,1.485c0.103,0.286,0.192,0.596,0.27,0.917c0.077,0.32,0.176,0.634,0.25,0.962
			c0.166,0.648,0.321,1.297,0.432,1.92c0.061,0.309,0.124,0.604,0.151,0.9c0.035,0.29,0.068,0.564,0.097,0.816
			c0.039,0.251,0.037,0.479,0.051,0.682c0.01,0.205,0.017,0.38,0.024,0.527c0.011,0.292,0.017,0.458,0.017,0.458L59.666,41.334z"/>
		<linearGradient id="SVGID_13_" gradientUnits="userSpaceOnUse" x1="60.5806" y1="35.2461" x2="62.5375" y2="35.2461">
			<stop  offset="0" style="stop-color:#599200"/>
			<stop  offset="0.2239" style="stop-color:#4F8100"/>
			<stop  offset="0.7249" style="stop-color:#3C6000"/>
			<stop  offset="1" style="stop-color:#355400"/>
		</linearGradient>
		<path clip-path="url(#SVGID_8_)" fill="url(#SVGID_13_)" d="M61.473,40.684c0,0-0.039-0.167-0.105-0.459
			c-0.063-0.294-0.167-0.704-0.25-1.22c-0.044-0.256-0.093-0.536-0.144-0.83c-0.057-0.295-0.076-0.611-0.118-0.938
			c-0.032-0.327-0.083-0.661-0.097-1.009c-0.021-0.346-0.042-0.7-0.064-1.053c-0.015-0.354-0.007-0.711-0.019-1.065
			c-0.019-0.353-0.003-0.702,0.041-1.037c0.047-0.335,0.089-0.657,0.17-0.955c0.087-0.295,0.18-0.571,0.274-0.82
			c0.162-0.505,0.424-0.869,0.583-1.118c0.167-0.248,0.276-0.372,0.276-0.372l0.094,0.058c0,0,0.001,0.194-0.022,0.504
			c-0.012,0.154-0.03,0.337-0.056,0.54c-0.037,0.198-0.044,0.435-0.062,0.685c-0.019,0.251-0.045,0.517-0.084,0.792
			c-0.019,0.281-0.039,0.581-0.081,0.883c-0.049,0.304-0.105,0.615-0.143,0.942c-0.044,0.324-0.091,0.656-0.123,0.989
			c-0.019,0.338-0.037,0.675-0.054,1.007c-0.027,0.333-0.015,0.662-0.019,0.981c-0.009,0.64,0.009,1.234,0.022,1.749
			c0.002,0.515,0.054,0.948,0.061,1.251c0.015,0.302,0.025,0.477,0.025,0.477L61.473,40.684z"/>
		<linearGradient id="SVGID_14_" gradientUnits="userSpaceOnUse" x1="63.3911" y1="36.459" x2="65.8404" y2="36.459">
			<stop  offset="0" style="stop-color:#599200"/>
			<stop  offset="0.2239" style="stop-color:#4F8100"/>
			<stop  offset="0.7249" style="stop-color:#3C6000"/>
			<stop  offset="1" style="stop-color:#355400"/>
		</linearGradient>
		<path clip-path="url(#SVGID_8_)" fill="url(#SVGID_14_)" d="M64.201,40.624c0,0,0.082-0.104,0.227-0.286
			c0.08-0.086,0.147-0.209,0.215-0.346c0.034-0.068,0.077-0.133,0.11-0.213c0.028-0.084,0.058-0.174,0.088-0.267
			c0.075-0.174,0.086-0.403,0.131-0.615c0.003-0.232,0.042-0.461,0.016-0.715c-0.003-0.247-0.042-0.505-0.074-0.765
			c-0.044-0.261-0.088-0.524-0.156-0.786c-0.062-0.262-0.14-0.518-0.232-0.768c-0.083-0.25-0.185-0.493-0.251-0.736
			c-0.145-0.488-0.239-0.965-0.311-1.39c-0.071-0.425-0.117-0.791-0.129-1.06c-0.019-0.267-0.012-0.429-0.012-0.429l0.096-0.055
			c0,0,0.418,0.392,0.824,1.133c0.208,0.365,0.417,0.823,0.573,1.349c0.065,0.271,0.13,0.549,0.163,0.848
			c0.042,0.292,0.077,0.594,0.109,0.895c0.036,0.301,0.052,0.609,0.063,0.909c0.003,0.305-0.003,0.603-0.043,0.895
			c-0.018,0.289-0.096,0.568-0.152,0.823c-0.098,0.249-0.157,0.491-0.281,0.679c-0.055,0.095-0.106,0.187-0.156,0.274
			c-0.056,0.082-0.121,0.152-0.176,0.22c-0.111,0.138-0.208,0.243-0.3,0.298c-0.177,0.133-0.278,0.207-0.278,0.207L64.201,40.624z"
			/>
		<linearGradient id="SVGID_15_" gradientUnits="userSpaceOnUse" x1="68.1621" y1="36.459" x2="70.6114" y2="36.459">
			<stop  offset="0" style="stop-color:#599200"/>
			<stop  offset="0.2239" style="stop-color:#4F8100"/>
			<stop  offset="0.7249" style="stop-color:#3C6000"/>
			<stop  offset="1" style="stop-color:#355400"/>
		</linearGradient>
		<path clip-path="url(#SVGID_8_)" fill="url(#SVGID_15_)" d="M68.971,40.624c0,0,0.082-0.104,0.227-0.286
			c0.082-0.086,0.146-0.209,0.215-0.346c0.035-0.068,0.078-0.133,0.11-0.213c0.029-0.084,0.058-0.174,0.089-0.267
			c0.074-0.174,0.085-0.403,0.13-0.615c0.003-0.232,0.042-0.461,0.016-0.715c-0.003-0.247-0.042-0.505-0.074-0.765
			c-0.043-0.261-0.09-0.524-0.155-0.786c-0.063-0.262-0.143-0.518-0.233-0.768c-0.083-0.25-0.183-0.493-0.251-0.736
			c-0.144-0.488-0.239-0.965-0.311-1.39c-0.07-0.425-0.117-0.791-0.129-1.06c-0.018-0.267-0.011-0.429-0.011-0.429l0.097-0.055
			c0,0,0.417,0.392,0.823,1.133c0.211,0.365,0.417,0.823,0.574,1.349c0.065,0.271,0.13,0.549,0.162,0.848
			c0.043,0.292,0.078,0.594,0.109,0.895c0.037,0.301,0.052,0.609,0.064,0.909c0.003,0.305-0.003,0.603-0.042,0.895
			c-0.018,0.289-0.097,0.568-0.153,0.823c-0.097,0.249-0.157,0.491-0.28,0.679c-0.055,0.095-0.106,0.187-0.155,0.274
			c-0.056,0.082-0.122,0.152-0.177,0.22c-0.111,0.138-0.208,0.243-0.3,0.298c-0.177,0.133-0.278,0.207-0.278,0.207L68.971,40.624z"
			/>
		<linearGradient id="SVGID_16_" gradientUnits="userSpaceOnUse" x1="26.1836" y1="36.2212" x2="30.0857" y2="36.2212">
			<stop  offset="0" style="stop-color:#599200"/>
			<stop  offset="0.2239" style="stop-color:#4F8100"/>
			<stop  offset="0.7249" style="stop-color:#3C6000"/>
			<stop  offset="1" style="stop-color:#355400"/>
		</linearGradient>
		<path clip-path="url(#SVGID_8_)" fill="url(#SVGID_16_)" d="M29.506,41.225c0,0-0.037-0.161-0.099-0.443
			c-0.029-0.142-0.066-0.312-0.108-0.51c-0.044-0.196-0.08-0.424-0.152-0.654c-0.141-0.466-0.267-1.005-0.465-1.574
			c-0.176-0.572-0.4-1.167-0.632-1.757c-0.235-0.591-0.519-1.149-0.739-1.706c-0.207-0.562-0.357-1.117-0.464-1.606
			c-0.223-0.978-0.225-1.705-0.226-1.705l0.097-0.052c0,0,0.113,0.122,0.278,0.348c0.17,0.225,0.381,0.557,0.62,0.971
			c0.237,0.413,0.486,0.912,0.701,1.484c0.104,0.287,0.191,0.596,0.271,0.917c0.076,0.321,0.176,0.633,0.25,0.963
			c0.165,0.648,0.321,1.297,0.431,1.92c0.062,0.309,0.125,0.604,0.153,0.9c0.034,0.289,0.068,0.563,0.097,0.815
			c0.038,0.251,0.037,0.48,0.051,0.683c0.009,0.203,0.017,0.379,0.024,0.526c0.011,0.292,0.018,0.459,0.018,0.459L29.506,41.225z"/>
		<linearGradient id="SVGID_17_" gradientUnits="userSpaceOnUse" x1="30.4214" y1="35.1362" x2="32.3784" y2="35.1362">
			<stop  offset="0" style="stop-color:#599200"/>
			<stop  offset="0.2239" style="stop-color:#4F8100"/>
			<stop  offset="0.7249" style="stop-color:#3C6000"/>
			<stop  offset="1" style="stop-color:#355400"/>
		</linearGradient>
		<path clip-path="url(#SVGID_8_)" fill="url(#SVGID_17_)" d="M31.312,40.575c0,0-0.038-0.168-0.104-0.46
			c-0.063-0.293-0.167-0.704-0.25-1.22c-0.044-0.256-0.093-0.536-0.145-0.83c-0.056-0.296-0.075-0.611-0.117-0.938
			c-0.033-0.325-0.084-0.662-0.097-1.009c-0.021-0.347-0.042-0.7-0.064-1.052c-0.017-0.355-0.007-0.712-0.02-1.065
			c-0.018-0.353-0.003-0.702,0.042-1.037c0.047-0.335,0.09-0.658,0.17-0.955c0.088-0.296,0.18-0.572,0.273-0.82
			c0.163-0.505,0.425-0.869,0.583-1.118c0.167-0.248,0.276-0.372,0.276-0.372l0.094,0.059c0,0,0.001,0.195-0.022,0.502
			c-0.012,0.155-0.03,0.339-0.056,0.541c-0.037,0.198-0.044,0.434-0.062,0.685c-0.018,0.251-0.045,0.516-0.084,0.792
			c-0.019,0.282-0.039,0.581-0.08,0.884c-0.05,0.302-0.104,0.615-0.144,0.94c-0.045,0.325-0.091,0.655-0.122,0.99
			c-0.019,0.337-0.038,0.673-0.056,1.005c-0.026,0.333-0.015,0.664-0.019,0.981c-0.009,0.64,0.009,1.235,0.022,1.749
			c0.001,0.514,0.054,0.948,0.062,1.25c0.015,0.305,0.024,0.478,0.024,0.478L31.312,40.575z"/>
		<linearGradient id="SVGID_18_" gradientUnits="userSpaceOnUse" x1="33.2314" y1="36.3486" x2="35.6807" y2="36.3486">
			<stop  offset="0" style="stop-color:#599200"/>
			<stop  offset="0.2239" style="stop-color:#4F8100"/>
			<stop  offset="0.7249" style="stop-color:#3C6000"/>
			<stop  offset="1" style="stop-color:#355400"/>
		</linearGradient>
		<path clip-path="url(#SVGID_8_)" fill="url(#SVGID_18_)" d="M34.042,40.513c0,0,0.082-0.104,0.227-0.284
			c0.08-0.086,0.147-0.21,0.215-0.347c0.033-0.068,0.076-0.133,0.11-0.214c0.028-0.083,0.058-0.172,0.089-0.266
			c0.075-0.175,0.084-0.402,0.13-0.615c0.004-0.231,0.042-0.461,0.016-0.714c-0.003-0.248-0.042-0.505-0.074-0.765
			c-0.042-0.26-0.088-0.523-0.155-0.786c-0.062-0.262-0.141-0.518-0.233-0.767c-0.082-0.25-0.183-0.493-0.25-0.736
			c-0.144-0.488-0.238-0.966-0.31-1.391c-0.071-0.424-0.117-0.791-0.13-1.059c-0.018-0.267-0.011-0.429-0.011-0.429l0.096-0.055
			c0,0,0.417,0.393,0.823,1.133c0.21,0.366,0.417,0.823,0.574,1.349c0.065,0.271,0.129,0.549,0.162,0.848
			c0.044,0.293,0.079,0.594,0.111,0.896c0.036,0.299,0.05,0.607,0.062,0.909c0.003,0.304-0.003,0.603-0.042,0.894
			c-0.018,0.288-0.096,0.569-0.153,0.824c-0.097,0.247-0.157,0.491-0.28,0.678c-0.054,0.095-0.106,0.187-0.155,0.275
			c-0.057,0.083-0.122,0.151-0.177,0.219c-0.11,0.138-0.208,0.244-0.302,0.298c-0.175,0.133-0.276,0.207-0.276,0.207L34.042,40.513z
			"/>
		<linearGradient id="SVGID_19_" gradientUnits="userSpaceOnUse" x1="27.7734" y1="37.5215" x2="31.6749" y2="37.5215">
			<stop  offset="0" style="stop-color:#599200"/>
			<stop  offset="0.2239" style="stop-color:#4F8100"/>
			<stop  offset="0.7249" style="stop-color:#3C6000"/>
			<stop  offset="1" style="stop-color:#355400"/>
		</linearGradient>
		<path clip-path="url(#SVGID_8_)" fill="url(#SVGID_19_)" d="M31.096,42.525c0,0-0.036-0.162-0.098-0.444
			c-0.03-0.141-0.067-0.312-0.109-0.509c-0.044-0.196-0.08-0.424-0.152-0.654c-0.141-0.466-0.266-1.004-0.465-1.574
			c-0.176-0.572-0.402-1.168-0.633-1.757c-0.235-0.59-0.517-1.149-0.739-1.706c-0.206-0.561-0.356-1.117-0.464-1.607
			c-0.223-0.977-0.226-1.704-0.226-1.704l0.097-0.052c0,0,0.113,0.121,0.279,0.347c0.17,0.225,0.382,0.557,0.62,0.971
			c0.237,0.413,0.486,0.913,0.701,1.486c0.104,0.286,0.191,0.596,0.27,0.916c0.078,0.321,0.176,0.633,0.251,0.963
			c0.165,0.647,0.32,1.297,0.432,1.92c0.061,0.308,0.125,0.604,0.152,0.9c0.035,0.289,0.068,0.563,0.097,0.816
			c0.038,0.251,0.036,0.479,0.05,0.683c0.01,0.203,0.017,0.379,0.024,0.526c0.011,0.292,0.018,0.458,0.018,0.458L31.096,42.525z"/>
		<linearGradient id="SVGID_20_" gradientUnits="userSpaceOnUse" x1="32.0122" y1="36.4365" x2="33.9685" y2="36.4365">
			<stop  offset="0" style="stop-color:#599200"/>
			<stop  offset="0.2239" style="stop-color:#4F8100"/>
			<stop  offset="0.7249" style="stop-color:#3C6000"/>
			<stop  offset="1" style="stop-color:#355400"/>
		</linearGradient>
		<path clip-path="url(#SVGID_8_)" fill="url(#SVGID_20_)" d="M32.904,41.875c0,0-0.04-0.167-0.105-0.46
			c-0.063-0.295-0.168-0.705-0.25-1.22c-0.044-0.257-0.094-0.536-0.144-0.831c-0.057-0.296-0.076-0.612-0.119-0.938
			c-0.032-0.326-0.083-0.661-0.096-1.01c-0.021-0.347-0.042-0.7-0.064-1.052c-0.016-0.354-0.007-0.711-0.02-1.065
			c-0.019-0.354-0.003-0.702,0.042-1.038c0.046-0.335,0.087-0.657,0.169-0.955c0.087-0.295,0.18-0.571,0.273-0.821
			c0.163-0.505,0.425-0.868,0.583-1.118c0.167-0.248,0.277-0.372,0.277-0.372l0.093,0.059c0,0,0.001,0.193-0.022,0.502
			c-0.012,0.155-0.031,0.338-0.055,0.541c-0.038,0.198-0.045,0.433-0.062,0.685c-0.019,0.25-0.046,0.516-0.085,0.792
			c-0.019,0.281-0.038,0.581-0.079,0.883c-0.049,0.302-0.106,0.615-0.144,0.941c-0.045,0.325-0.091,0.654-0.123,0.99
			c-0.018,0.337-0.037,0.673-0.055,1.006c-0.026,0.333-0.014,0.662-0.019,0.98c-0.009,0.641,0.009,1.235,0.022,1.75
			c0.001,0.515,0.054,0.948,0.062,1.251c0.015,0.302,0.024,0.477,0.024,0.477L32.904,41.875z"/>
		<linearGradient id="SVGID_21_" gradientUnits="userSpaceOnUse" x1="34.8208" y1="37.6499" x2="37.2714" y2="37.6499">
			<stop  offset="0" style="stop-color:#599200"/>
			<stop  offset="0.2239" style="stop-color:#4F8100"/>
			<stop  offset="0.7249" style="stop-color:#3C6000"/>
			<stop  offset="1" style="stop-color:#355400"/>
		</linearGradient>
		<path clip-path="url(#SVGID_8_)" fill="url(#SVGID_21_)" d="M35.631,41.814c0,0,0.083-0.104,0.227-0.285
			c0.081-0.086,0.147-0.21,0.215-0.347c0.034-0.067,0.077-0.133,0.11-0.213c0.027-0.085,0.058-0.174,0.088-0.267
			c0.076-0.173,0.086-0.402,0.131-0.615c0.004-0.231,0.042-0.46,0.016-0.714c-0.003-0.248-0.042-0.505-0.074-0.765
			c-0.044-0.261-0.09-0.524-0.156-0.786c-0.062-0.261-0.141-0.518-0.232-0.768c-0.084-0.25-0.184-0.492-0.25-0.736
			c-0.145-0.488-0.241-0.966-0.312-1.392c-0.07-0.424-0.117-0.791-0.129-1.06c-0.019-0.265-0.012-0.428-0.012-0.428l0.097-0.054
			c0,0,0.417,0.392,0.824,1.131c0.209,0.367,0.417,0.824,0.573,1.351c0.065,0.27,0.13,0.548,0.163,0.847
			c0.043,0.293,0.078,0.594,0.11,0.896c0.036,0.3,0.052,0.608,0.063,0.909c0.003,0.304-0.003,0.604-0.042,0.896
			c-0.019,0.288-0.097,0.568-0.152,0.822c-0.098,0.249-0.158,0.492-0.281,0.68c-0.055,0.094-0.107,0.187-0.156,0.273
			c-0.056,0.082-0.121,0.152-0.177,0.22c-0.11,0.138-0.208,0.244-0.299,0.299c-0.177,0.132-0.278,0.207-0.278,0.207L35.631,41.814z"
			/>
		<linearGradient id="SVGID_22_" gradientUnits="userSpaceOnUse" x1="39.5928" y1="37.6499" x2="42.042" y2="37.6499">
			<stop  offset="0" style="stop-color:#599200"/>
			<stop  offset="0.2239" style="stop-color:#4F8100"/>
			<stop  offset="0.7249" style="stop-color:#3C6000"/>
			<stop  offset="1" style="stop-color:#355400"/>
		</linearGradient>
		<path clip-path="url(#SVGID_8_)" fill="url(#SVGID_22_)" d="M40.402,41.814c0,0,0.082-0.104,0.227-0.285
			c0.081-0.086,0.146-0.21,0.215-0.347c0.035-0.067,0.077-0.133,0.11-0.213c0.028-0.085,0.057-0.174,0.089-0.267
			c0.075-0.173,0.084-0.402,0.13-0.615c0.003-0.231,0.042-0.46,0.016-0.714c-0.003-0.248-0.042-0.505-0.073-0.765
			c-0.043-0.261-0.089-0.524-0.156-0.786c-0.062-0.261-0.141-0.518-0.232-0.768c-0.082-0.25-0.184-0.492-0.25-0.736
			c-0.144-0.488-0.239-0.966-0.312-1.392c-0.07-0.424-0.116-0.791-0.128-1.06c-0.018-0.265-0.012-0.428-0.012-0.428l0.096-0.054
			c0,0,0.417,0.392,0.823,1.131c0.21,0.367,0.417,0.824,0.574,1.351c0.064,0.27,0.129,0.548,0.162,0.847
			c0.044,0.293,0.078,0.594,0.11,0.896c0.036,0.3,0.052,0.608,0.063,0.909c0.003,0.304-0.003,0.604-0.042,0.896
			c-0.018,0.288-0.097,0.568-0.153,0.822c-0.097,0.249-0.157,0.492-0.281,0.68c-0.054,0.094-0.106,0.187-0.155,0.273
			c-0.057,0.082-0.122,0.152-0.177,0.22c-0.112,0.138-0.208,0.244-0.3,0.299c-0.177,0.132-0.277,0.207-0.277,0.207L40.402,41.814z"
			/>
		<linearGradient id="SVGID_23_" gradientUnits="userSpaceOnUse" x1="11.3032" y1="39.1973" x2="15.2066" y2="39.1973">
			<stop  offset="0" style="stop-color:#599200"/>
			<stop  offset="0.2239" style="stop-color:#4F8100"/>
			<stop  offset="0.7249" style="stop-color:#3C6000"/>
			<stop  offset="1" style="stop-color:#355400"/>
		</linearGradient>
		<path clip-path="url(#SVGID_8_)" fill="url(#SVGID_23_)" d="M14.625,44.201c0,0-0.036-0.161-0.098-0.443
			c-0.029-0.143-0.067-0.313-0.109-0.51c-0.043-0.196-0.079-0.424-0.151-0.654c-0.14-0.466-0.265-1.004-0.465-1.574
			c-0.176-0.572-0.4-1.167-0.633-1.756c-0.234-0.591-0.518-1.15-0.738-1.707c-0.207-0.562-0.356-1.116-0.464-1.606
			c-0.224-0.977-0.226-1.705-0.227-1.705l0.098-0.052c0,0,0.112,0.123,0.278,0.348c0.171,0.225,0.381,0.557,0.621,0.973
			c0.236,0.412,0.486,0.911,0.701,1.483c0.103,0.286,0.191,0.597,0.27,0.917c0.076,0.321,0.176,0.633,0.25,0.963
			c0.165,0.648,0.321,1.297,0.431,1.92c0.061,0.308,0.125,0.604,0.152,0.9c0.035,0.289,0.068,0.563,0.098,0.816
			c0.037,0.25,0.035,0.479,0.051,0.683c0.009,0.203,0.017,0.38,0.023,0.525c0.012,0.292,0.019,0.459,0.019,0.459L14.625,44.201z"/>
		<linearGradient id="SVGID_24_" gradientUnits="userSpaceOnUse" x1="15.5415" y1="38.1128" x2="17.4991" y2="38.1128">
			<stop  offset="0" style="stop-color:#599200"/>
			<stop  offset="0.2239" style="stop-color:#4F8100"/>
			<stop  offset="0.7249" style="stop-color:#3C6000"/>
			<stop  offset="1" style="stop-color:#355400"/>
		</linearGradient>
		<path clip-path="url(#SVGID_8_)" fill="url(#SVGID_24_)" d="M16.434,43.552c0,0-0.038-0.169-0.105-0.46
			c-0.062-0.295-0.168-0.705-0.25-1.221c-0.045-0.257-0.093-0.537-0.145-0.83c-0.056-0.296-0.074-0.612-0.116-0.939
			c-0.034-0.325-0.086-0.661-0.099-1.008c-0.021-0.347-0.042-0.7-0.063-1.053c-0.017-0.354-0.007-0.712-0.021-1.064
			c-0.018-0.353-0.003-0.703,0.042-1.038c0.047-0.335,0.089-0.657,0.169-0.956c0.088-0.295,0.181-0.571,0.273-0.82
			c0.163-0.505,0.427-0.87,0.584-1.117c0.167-0.249,0.276-0.372,0.276-0.372l0.095,0.058c0,0,0.001,0.195-0.023,0.502
			c-0.011,0.156-0.03,0.339-0.055,0.541c-0.037,0.198-0.044,0.433-0.063,0.685c-0.018,0.251-0.045,0.516-0.084,0.792
			c-0.019,0.282-0.039,0.581-0.08,0.884c-0.049,0.302-0.104,0.615-0.143,0.94c-0.046,0.325-0.092,0.656-0.123,0.991
			c-0.019,0.337-0.038,0.672-0.055,1.005c-0.027,0.333-0.014,0.663-0.019,0.981c-0.009,0.64,0.01,1.234,0.021,1.749
			c0.002,0.514,0.055,0.948,0.062,1.25c0.014,0.304,0.023,0.477,0.023,0.477L16.434,43.552z"/>
		<linearGradient id="SVGID_25_" gradientUnits="userSpaceOnUse" x1="18.3521" y1="39.3252" x2="20.8013" y2="39.3252">
			<stop  offset="0" style="stop-color:#599200"/>
			<stop  offset="0.2239" style="stop-color:#4F8100"/>
			<stop  offset="0.7249" style="stop-color:#3C6000"/>
			<stop  offset="1" style="stop-color:#355400"/>
		</linearGradient>
		<path clip-path="url(#SVGID_8_)" fill="url(#SVGID_25_)" d="M19.161,43.488c0,0,0.082-0.103,0.227-0.284
			c0.081-0.086,0.146-0.21,0.216-0.347c0.033-0.068,0.076-0.134,0.109-0.214c0.028-0.084,0.057-0.173,0.089-0.266
			c0.075-0.174,0.084-0.402,0.129-0.615c0.003-0.232,0.041-0.461,0.016-0.715c-0.003-0.247-0.042-0.504-0.074-0.765
			c-0.042-0.26-0.088-0.524-0.155-0.786c-0.062-0.262-0.141-0.519-0.232-0.768c-0.083-0.25-0.184-0.493-0.25-0.735
			c-0.145-0.488-0.239-0.965-0.311-1.392c-0.07-0.424-0.117-0.791-0.129-1.059c-0.019-0.266-0.012-0.429-0.012-0.429l0.096-0.054
			c0,0,0.417,0.392,0.823,1.133c0.21,0.365,0.417,0.823,0.575,1.348c0.063,0.271,0.128,0.549,0.161,0.847
			c0.043,0.293,0.078,0.594,0.11,0.897c0.037,0.299,0.052,0.607,0.063,0.908c0.003,0.305-0.003,0.604-0.042,0.895
			c-0.019,0.287-0.096,0.568-0.153,0.824c-0.098,0.248-0.158,0.49-0.281,0.678c-0.054,0.096-0.105,0.187-0.156,0.276
			c-0.055,0.082-0.121,0.15-0.175,0.217c-0.111,0.14-0.208,0.245-0.301,0.299c-0.178,0.133-0.277,0.208-0.277,0.208L19.161,43.488z"
			/>
		<linearGradient id="SVGID_26_" gradientUnits="userSpaceOnUse" x1="12.894" y1="40.498" x2="16.7942" y2="40.498">
			<stop  offset="0" style="stop-color:#599200"/>
			<stop  offset="0.2239" style="stop-color:#4F8100"/>
			<stop  offset="0.7249" style="stop-color:#3C6000"/>
			<stop  offset="1" style="stop-color:#355400"/>
		</linearGradient>
		<path clip-path="url(#SVGID_8_)" fill="url(#SVGID_26_)" d="M16.217,45.501c0,0-0.037-0.162-0.099-0.444
			c-0.03-0.141-0.067-0.312-0.108-0.509c-0.045-0.195-0.081-0.424-0.152-0.654c-0.141-0.466-0.266-1.003-0.465-1.573
			c-0.176-0.573-0.402-1.168-0.632-1.758c-0.235-0.59-0.518-1.148-0.739-1.706c-0.207-0.561-0.356-1.116-0.464-1.606
			c-0.223-0.977-0.227-1.704-0.227-1.704l0.098-0.052c0,0,0.112,0.121,0.278,0.348c0.17,0.224,0.381,0.556,0.62,0.971
			c0.237,0.412,0.485,0.912,0.7,1.485c0.105,0.286,0.193,0.596,0.271,0.917c0.078,0.321,0.176,0.633,0.251,0.963
			c0.165,0.647,0.321,1.297,0.432,1.92c0.061,0.308,0.125,0.604,0.151,0.899c0.035,0.29,0.068,0.565,0.098,0.816
			c0.038,0.251,0.037,0.479,0.05,0.683c0.009,0.204,0.017,0.379,0.024,0.527c0.012,0.292,0.017,0.458,0.017,0.458L16.217,45.501z"/>
		<linearGradient id="SVGID_27_" gradientUnits="userSpaceOnUse" x1="17.1318" y1="39.4131" x2="19.0895" y2="39.4131">
			<stop  offset="0" style="stop-color:#599200"/>
			<stop  offset="0.2239" style="stop-color:#4F8100"/>
			<stop  offset="0.7249" style="stop-color:#3C6000"/>
			<stop  offset="1" style="stop-color:#355400"/>
		</linearGradient>
		<path clip-path="url(#SVGID_8_)" fill="url(#SVGID_27_)" d="M18.023,44.851c0,0-0.039-0.167-0.105-0.459
			c-0.064-0.295-0.168-0.706-0.25-1.221c-0.044-0.256-0.093-0.536-0.143-0.83c-0.058-0.296-0.076-0.611-0.119-0.938
			c-0.032-0.327-0.083-0.661-0.097-1.01c-0.021-0.347-0.042-0.7-0.063-1.053c-0.016-0.355-0.007-0.711-0.02-1.064
			c-0.018-0.354-0.004-0.702,0.042-1.038c0.046-0.335,0.089-0.657,0.17-0.955c0.088-0.295,0.18-0.571,0.274-0.82
			c0.162-0.506,0.424-0.87,0.583-1.118c0.166-0.248,0.275-0.372,0.275-0.372l0.095,0.058c0,0,0.001,0.194-0.023,0.503
			c-0.011,0.155-0.03,0.338-0.055,0.541c-0.037,0.197-0.045,0.433-0.062,0.684c-0.018,0.25-0.046,0.517-0.085,0.792
			c-0.019,0.28-0.039,0.58-0.08,0.883c-0.049,0.303-0.105,0.615-0.143,0.941c-0.044,0.325-0.091,0.656-0.122,0.991
			c-0.02,0.338-0.038,0.674-0.056,1.006c-0.026,0.332-0.014,0.662-0.019,0.98c-0.009,0.64,0.008,1.234,0.022,1.75
			c0.001,0.515,0.055,0.948,0.062,1.25c0.015,0.303,0.025,0.477,0.025,0.477L18.023,44.851z"/>
		<linearGradient id="SVGID_28_" gradientUnits="userSpaceOnUse" x1="19.9419" y1="40.626" x2="22.3918" y2="40.626">
			<stop  offset="0" style="stop-color:#599200"/>
			<stop  offset="0.2239" style="stop-color:#4F8100"/>
			<stop  offset="0.7249" style="stop-color:#3C6000"/>
			<stop  offset="1" style="stop-color:#355400"/>
		</linearGradient>
		<path clip-path="url(#SVGID_8_)" fill="url(#SVGID_28_)" d="M20.751,44.79c0,0,0.082-0.104,0.227-0.286
			c0.081-0.085,0.147-0.209,0.215-0.346c0.034-0.068,0.077-0.133,0.11-0.213c0.028-0.084,0.058-0.174,0.089-0.267
			c0.074-0.175,0.084-0.403,0.13-0.615c0.003-0.232,0.042-0.462,0.017-0.715c-0.004-0.247-0.043-0.505-0.075-0.765
			c-0.043-0.261-0.088-0.524-0.155-0.785c-0.062-0.262-0.141-0.519-0.233-0.767c-0.083-0.25-0.183-0.493-0.25-0.736
			c-0.145-0.488-0.24-0.966-0.312-1.391c-0.069-0.425-0.116-0.792-0.129-1.06c-0.019-0.265-0.011-0.428-0.011-0.428l0.096-0.055
			c0,0,0.417,0.392,0.823,1.133c0.21,0.366,0.418,0.824,0.573,1.35c0.066,0.271,0.13,0.548,0.164,0.848
			c0.043,0.293,0.078,0.593,0.109,0.896c0.036,0.299,0.052,0.608,0.063,0.908c0.002,0.305-0.003,0.604-0.042,0.895
			c-0.018,0.289-0.097,0.569-0.153,0.824c-0.097,0.248-0.158,0.49-0.281,0.679c-0.055,0.096-0.106,0.187-0.155,0.275
			c-0.056,0.082-0.122,0.151-0.177,0.219c-0.111,0.138-0.208,0.244-0.3,0.298c-0.177,0.133-0.277,0.208-0.277,0.208L20.751,44.79z"
			/>
		<linearGradient id="SVGID_29_" gradientUnits="userSpaceOnUse" x1="24.7129" y1="40.626" x2="27.1615" y2="40.626">
			<stop  offset="0" style="stop-color:#599200"/>
			<stop  offset="0.2239" style="stop-color:#4F8100"/>
			<stop  offset="0.7249" style="stop-color:#3C6000"/>
			<stop  offset="1" style="stop-color:#355400"/>
		</linearGradient>
		<path clip-path="url(#SVGID_8_)" fill="url(#SVGID_29_)" d="M25.522,44.79c0,0,0.082-0.104,0.227-0.286
			c0.08-0.085,0.146-0.209,0.215-0.346c0.034-0.068,0.077-0.133,0.109-0.213c0.028-0.084,0.058-0.174,0.09-0.267
			c0.074-0.175,0.084-0.403,0.13-0.615c0.004-0.232,0.042-0.462,0.016-0.715c-0.003-0.247-0.042-0.505-0.074-0.765
			c-0.043-0.261-0.089-0.524-0.154-0.785c-0.062-0.262-0.142-0.519-0.233-0.767c-0.083-0.25-0.184-0.493-0.25-0.736
			c-0.145-0.488-0.239-0.966-0.312-1.391c-0.07-0.425-0.116-0.792-0.128-1.06c-0.018-0.265-0.012-0.428-0.012-0.428l0.096-0.055
			c0,0,0.417,0.392,0.823,1.133c0.21,0.366,0.417,0.824,0.574,1.35c0.065,0.271,0.129,0.548,0.162,0.848
			c0.043,0.293,0.078,0.593,0.11,0.896c0.036,0.299,0.051,0.608,0.062,0.908c0.003,0.305-0.004,0.604-0.042,0.895
			c-0.018,0.289-0.097,0.569-0.153,0.824c-0.097,0.248-0.156,0.49-0.28,0.679c-0.055,0.096-0.106,0.187-0.155,0.275
			c-0.056,0.082-0.122,0.151-0.176,0.219c-0.111,0.138-0.208,0.244-0.301,0.298c-0.176,0.133-0.277,0.208-0.277,0.208L25.522,44.79z
			"/>
		<linearGradient id="SVGID_30_" gradientUnits="userSpaceOnUse" x1="70.082" y1="35.1533" x2="74.2584" y2="35.1533">
			<stop  offset="0" style="stop-color:#599200"/>
			<stop  offset="0.2239" style="stop-color:#4F8100"/>
			<stop  offset="0.7249" style="stop-color:#3C6000"/>
			<stop  offset="1" style="stop-color:#355400"/>
		</linearGradient>
		<path clip-path="url(#SVGID_8_)" fill="url(#SVGID_30_)" d="M71.462,40.94c0,0,0.141-0.144,0.387-0.396
			c0.137-0.12,0.25-0.293,0.367-0.482c0.059-0.094,0.131-0.185,0.188-0.296c0.048-0.118,0.099-0.242,0.151-0.371
			c0.128-0.242,0.145-0.559,0.222-0.855c0.006-0.322,0.071-0.641,0.027-0.993c-0.005-0.344-0.071-0.703-0.125-1.063
			c-0.075-0.362-0.152-0.729-0.265-1.092c-0.107-0.363-0.241-0.72-0.398-1.067c-0.14-0.346-0.312-0.684-0.426-1.023
			c-0.246-0.678-0.408-1.341-0.53-1.933c-0.12-0.589-0.199-1.1-0.22-1.473c-0.031-0.369-0.02-0.595-0.02-0.595l0.165-0.076
			c0,0,0.71,0.544,1.402,1.574c0.359,0.509,0.712,1.146,0.979,1.875c0.111,0.377,0.22,0.763,0.276,1.178
			c0.075,0.407,0.133,0.826,0.188,1.246c0.061,0.417,0.088,0.845,0.107,1.263c0.006,0.423-0.006,0.839-0.072,1.244
			c-0.031,0.4-0.166,0.79-0.26,1.144c-0.167,0.346-0.268,0.683-0.479,0.944c-0.093,0.132-0.181,0.258-0.264,0.381
			c-0.097,0.115-0.209,0.211-0.301,0.305c-0.189,0.192-0.355,0.339-0.512,0.416c-0.301,0.184-0.474,0.287-0.474,0.287L71.462,40.94z
			"/>
		<g clip-path="url(#SVGID_8_)">
			<ellipse fill="#485B35" cx="59.926" cy="43.422" rx="4.922" ry="1.286"/>
			<ellipse fill="#485B35" cx="52.748" cy="45.995" rx="3.925" ry="1.287"/>
			<ellipse fill="#485B35" cx="60.37" cy="48.281" rx="3.926" ry="1.287"/>
			<ellipse fill="#485B35" cx="50.843" cy="43.136" rx="3.925" ry="1.286"/>
			<ellipse fill="#485B35" cx="40.047" cy="45.995" rx="3.925" ry="1.287"/>
			<ellipse fill="#485B35" cx="47.033" cy="48.281" rx="3.926" ry="1.287"/>
			<ellipse fill="#485B35" cx="32.426" cy="48.281" rx="3.926" ry="1.287"/>
			<ellipse fill="#485B35" cx="28.615" cy="44.851" rx="3.926" ry="1.286"/>
		</g>
		<g clip-path="url(#SVGID_8_)">
			
				<radialGradient id="SVGID_31_" cx="37.0444" cy="42.8496" r="3.2633" gradientTransform="matrix(-1.1107 0 0 1 101.0715 0)" gradientUnits="userSpaceOnUse">
				<stop  offset="0.0053" style="stop-color:#469201"/>
				<stop  offset="0.2288" style="stop-color:#4D9901"/>
				<stop  offset="0.5601" style="stop-color:#61AD01"/>
				<stop  offset="0.9568" style="stop-color:#81CE01"/>
				<stop  offset="1" style="stop-color:#85D201"/>
			</radialGradient>
			<ellipse fill="url(#SVGID_31_)" cx="59.926" cy="42.85" rx="4.922" ry="1.286"/>
			
				<radialGradient id="SVGID_32_" cx="43.5063" cy="45.4229" r="2.6595" gradientTransform="matrix(-1.1107 0 0 1 101.0715 0)" gradientUnits="userSpaceOnUse">
				<stop  offset="0.0053" style="stop-color:#469201"/>
				<stop  offset="0.2288" style="stop-color:#4D9901"/>
				<stop  offset="0.5601" style="stop-color:#61AD01"/>
				<stop  offset="0.9568" style="stop-color:#81CE01"/>
				<stop  offset="1" style="stop-color:#85D201"/>
			</radialGradient>
			<ellipse fill="url(#SVGID_32_)" cx="52.748" cy="45.423" rx="3.925" ry="1.286"/>
			
				<radialGradient id="SVGID_33_" cx="36.645" cy="47.71" r="2.6598" gradientTransform="matrix(-1.1107 0 0 1 101.0715 0)" gradientUnits="userSpaceOnUse">
				<stop  offset="0.0053" style="stop-color:#469201"/>
				<stop  offset="0.2288" style="stop-color:#4D9901"/>
				<stop  offset="0.5601" style="stop-color:#61AD01"/>
				<stop  offset="0.9568" style="stop-color:#81CE01"/>
				<stop  offset="1" style="stop-color:#85D201"/>
			</radialGradient>
			<ellipse fill="url(#SVGID_33_)" cx="60.37" cy="47.709" rx="3.926" ry="1.287"/>
			
				<radialGradient id="SVGID_34_" cx="45.2222" cy="42.5645" r="2.6589" gradientTransform="matrix(-1.1107 0 0 1 101.0715 0)" gradientUnits="userSpaceOnUse">
				<stop  offset="0.0053" style="stop-color:#469201"/>
				<stop  offset="0.2288" style="stop-color:#4D9901"/>
				<stop  offset="0.5601" style="stop-color:#61AD01"/>
				<stop  offset="0.9568" style="stop-color:#81CE01"/>
				<stop  offset="1" style="stop-color:#85D201"/>
			</radialGradient>
			<ellipse fill="url(#SVGID_34_)" cx="50.843" cy="42.563" rx="3.925" ry="1.287"/>
			
				<radialGradient id="SVGID_35_" cx="54.9424" cy="45.4229" r="2.6592" gradientTransform="matrix(-1.1107 0 0 1 101.0715 0)" gradientUnits="userSpaceOnUse">
				<stop  offset="0.0053" style="stop-color:#469201"/>
				<stop  offset="0.2288" style="stop-color:#4D9901"/>
				<stop  offset="0.5601" style="stop-color:#61AD01"/>
				<stop  offset="0.9568" style="stop-color:#81CE01"/>
				<stop  offset="1" style="stop-color:#85D201"/>
			</radialGradient>
			<ellipse fill="url(#SVGID_35_)" cx="40.047" cy="45.423" rx="3.925" ry="1.286"/>
			
				<radialGradient id="SVGID_36_" cx="48.6523" cy="47.71" r="2.6595" gradientTransform="matrix(-1.1107 0 0 1 101.0715 0)" gradientUnits="userSpaceOnUse">
				<stop  offset="0.0053" style="stop-color:#469201"/>
				<stop  offset="0.2288" style="stop-color:#4D9901"/>
				<stop  offset="0.5601" style="stop-color:#61AD01"/>
				<stop  offset="0.9568" style="stop-color:#81CE01"/>
				<stop  offset="1" style="stop-color:#85D201"/>
			</radialGradient>
			<ellipse fill="url(#SVGID_36_)" cx="47.033" cy="47.709" rx="3.926" ry="1.287"/>
			
				<radialGradient id="SVGID_37_" cx="61.8042" cy="47.71" r="2.6598" gradientTransform="matrix(-1.1107 0 0 1 101.0715 0)" gradientUnits="userSpaceOnUse">
				<stop  offset="0.0053" style="stop-color:#469201"/>
				<stop  offset="0.2288" style="stop-color:#4D9901"/>
				<stop  offset="0.5601" style="stop-color:#61AD01"/>
				<stop  offset="0.9568" style="stop-color:#81CE01"/>
				<stop  offset="1" style="stop-color:#85D201"/>
			</radialGradient>
			<ellipse fill="url(#SVGID_37_)" cx="32.426" cy="47.709" rx="3.926" ry="1.287"/>
			
				<radialGradient id="SVGID_38_" cx="65.2349" cy="44.2793" r="2.6595" gradientTransform="matrix(-1.1107 0 0 1 101.0715 0)" gradientUnits="userSpaceOnUse">
				<stop  offset="0.0053" style="stop-color:#469201"/>
				<stop  offset="0.2288" style="stop-color:#4D9901"/>
				<stop  offset="0.5601" style="stop-color:#61AD01"/>
				<stop  offset="0.9568" style="stop-color:#81CE01"/>
				<stop  offset="1" style="stop-color:#85D201"/>
			</radialGradient>
			<ellipse fill="url(#SVGID_38_)" cx="28.615" cy="44.279" rx="3.926" ry="1.287"/>
		</g>
		<path clip-path="url(#SVGID_8_)" fill="none" stroke="#398030" stroke-width="0.75" stroke-miterlimit="10" d="M69.673,56.021
			c1.055-2.837,1.79-7.58,2.001-10.864"/>
		<path clip-path="url(#SVGID_8_)" fill="none" stroke="#398030" stroke-width="0.25" stroke-miterlimit="10" d="M56.222,41.492
			c1.3,1.332,1.51,3.633,1.974,5.232c0.401,1.383,0.798,2.759,1.27,4.126c0.176,0.512,0.478,1.045,0.532,1.576"/>
		<path clip-path="url(#SVGID_8_)" fill="none" stroke="#398030" stroke-miterlimit="10" d="M78.987,44.658
			c-0.067-0.244-0.048,0.266-0.07,0.412c-0.156,1.042-0.292,2.082-0.482,3.12c-0.36,1.971-1.223,4.104-1.163,6.117"/>
		
			<radialGradient id="SVGID_39_" cx="84.3032" cy="39.1733" r="9.0025" gradientTransform="matrix(-0.1203 0.9927 -0.3148 -0.0374 103.2531 -40.149)" gradientUnits="userSpaceOnUse">
			<stop  offset="0" style="stop-color:#8A7000"/>
			<stop  offset="0.2584" style="stop-color:#7E550C"/>
			<stop  offset="0.4296" style="stop-color:#784911"/>
			<stop  offset="0.4896" style="stop-color:#8B5918"/>
			<stop  offset="0.6112" style="stop-color:#BC8329"/>
			<stop  offset="0.759" style="stop-color:#FFBD40"/>
		</radialGradient>
		<path clip-path="url(#SVGID_8_)" fill="url(#SVGID_39_)" d="M80.95,43.629c-0.106,0.767-0.778,1.308-1.5,1.207l0,0
			c-0.721-0.101-1.22-0.803-1.114-1.57l0.518-3.704c0.105-0.769,0.777-1.309,1.499-1.208l0,0c0.721,0.1,1.219,0.803,1.113,1.57
			L80.95,43.629z"/>
		
			<radialGradient id="SVGID_40_" cx="72.7344" cy="52.3555" r="8.2005" gradientTransform="matrix(-0.1279 0.9917 -0.3145 -0.0398 98.3333 -27.0988)" gradientUnits="userSpaceOnUse">
			<stop  offset="0" style="stop-color:#8A7000"/>
			<stop  offset="0.2584" style="stop-color:#7E550C"/>
			<stop  offset="0.4296" style="stop-color:#784911"/>
			<stop  offset="0.4896" style="stop-color:#8B5918"/>
			<stop  offset="0.6112" style="stop-color:#BC8329"/>
			<stop  offset="0.759" style="stop-color:#FFBD40"/>
		</radialGradient>
		<path clip-path="url(#SVGID_8_)" fill="url(#SVGID_40_)" d="M72.707,44.366c-0.101,0.698-0.717,1.186-1.374,1.09l0,0
			c-0.657-0.099-1.106-0.741-1.004-1.44l0.498-3.369c0.101-0.699,0.716-1.187,1.374-1.09l0,0c0.657,0.096,1.105,0.739,1.002,1.437
			L72.707,44.366z"/>
		<linearGradient id="SVGID_41_" gradientUnits="userSpaceOnUse" x1="13.3623" y1="52.127" x2="17.5387" y2="52.127">
			<stop  offset="0" style="stop-color:#599200"/>
			<stop  offset="0.2239" style="stop-color:#4F8100"/>
			<stop  offset="0.7249" style="stop-color:#3C6000"/>
			<stop  offset="1" style="stop-color:#355400"/>
		</linearGradient>
		<path clip-path="url(#SVGID_8_)" fill="url(#SVGID_41_)" d="M14.743,57.915c0,0,0.141-0.144,0.387-0.396
			c0.138-0.119,0.25-0.292,0.366-0.48c0.059-0.095,0.132-0.186,0.188-0.297c0.047-0.118,0.098-0.242,0.151-0.371
			c0.127-0.243,0.145-0.56,0.222-0.855c0.006-0.322,0.071-0.641,0.027-0.993c-0.006-0.343-0.071-0.702-0.126-1.063
			c-0.074-0.361-0.152-0.728-0.265-1.091c-0.107-0.364-0.241-0.721-0.397-1.067c-0.141-0.347-0.312-0.685-0.426-1.023
			c-0.247-0.678-0.409-1.341-0.531-1.933c-0.12-0.59-0.199-1.1-0.22-1.474c-0.031-0.369-0.021-0.595-0.021-0.595l0.165-0.077
			c0,0,0.712,0.544,1.404,1.575c0.358,0.508,0.71,1.145,0.978,1.875c0.111,0.376,0.22,0.763,0.277,1.178
			c0.074,0.407,0.132,0.825,0.187,1.245c0.062,0.417,0.088,0.846,0.108,1.263c0.005,0.423-0.005,0.838-0.071,1.244
			c-0.031,0.4-0.165,0.79-0.26,1.144c-0.167,0.346-0.269,0.682-0.479,0.944c-0.092,0.131-0.181,0.259-0.266,0.381
			c-0.096,0.114-0.207,0.211-0.3,0.305c-0.189,0.192-0.355,0.339-0.512,0.416c-0.303,0.183-0.474,0.288-0.474,0.288L14.743,57.915z"
			/>
		<linearGradient id="SVGID_42_" gradientUnits="userSpaceOnUse" x1="4.96" y1="49.2383" x2="11.613" y2="49.2383">
			<stop  offset="0" style="stop-color:#599200"/>
			<stop  offset="0.2239" style="stop-color:#4F8100"/>
			<stop  offset="0.7249" style="stop-color:#3C6000"/>
			<stop  offset="1" style="stop-color:#355400"/>
		</linearGradient>
		<path clip-path="url(#SVGID_8_)" fill="url(#SVGID_42_)" d="M10.626,56.192c0,0-0.062-0.224-0.167-0.616
			c-0.052-0.197-0.115-0.435-0.187-0.708c-0.075-0.271-0.135-0.589-0.258-0.909c-0.241-0.648-0.453-1.396-0.793-2.188
			c-0.3-0.795-0.684-1.623-1.078-2.441c-0.401-0.821-0.883-1.597-1.26-2.372c-0.352-0.78-0.608-1.552-0.792-2.232
			c-0.38-1.358-0.385-2.37-0.386-2.37l0.166-0.071c0,0,0.192,0.168,0.476,0.482c0.29,0.312,0.649,0.774,1.056,1.35
			c0.403,0.574,0.828,1.269,1.195,2.063c0.177,0.398,0.326,0.829,0.461,1.274c0.131,0.446,0.299,0.881,0.427,1.338
			c0.281,0.901,0.547,1.803,0.736,2.669c0.104,0.428,0.212,0.84,0.258,1.251c0.06,0.402,0.116,0.783,0.167,1.134
			c0.063,0.349,0.062,0.667,0.086,0.949c0.016,0.282,0.028,0.528,0.041,0.731c0.02,0.406,0.03,0.638,0.03,0.638L10.626,56.192z"/>
		<linearGradient id="SVGID_43_" gradientUnits="userSpaceOnUse" x1="12.1865" y1="47.73" x2="15.5235" y2="47.73">
			<stop  offset="0" style="stop-color:#599200"/>
			<stop  offset="0.2239" style="stop-color:#4F8100"/>
			<stop  offset="0.7249" style="stop-color:#3C6000"/>
			<stop  offset="1" style="stop-color:#355400"/>
		</linearGradient>
		<path clip-path="url(#SVGID_8_)" fill="url(#SVGID_43_)" d="M13.707,55.29c0,0-0.065-0.233-0.179-0.639
			c-0.107-0.409-0.285-0.98-0.427-1.696c-0.076-0.357-0.159-0.745-0.246-1.154c-0.098-0.411-0.128-0.849-0.2-1.304
			c-0.057-0.453-0.145-0.92-0.167-1.403c-0.036-0.482-0.072-0.973-0.108-1.463c-0.029-0.493-0.013-0.989-0.035-1.48
			c-0.032-0.491-0.005-0.976,0.072-1.443c0.079-0.465,0.15-0.913,0.288-1.326c0.151-0.412,0.309-0.795,0.467-1.141
			c0.277-0.703,0.725-1.208,0.995-1.554c0.283-0.345,0.471-0.517,0.471-0.517l0.16,0.081c0,0,0.001,0.27-0.039,0.699
			c-0.02,0.216-0.051,0.47-0.094,0.752c-0.063,0.274-0.075,0.603-0.107,0.952c-0.03,0.348-0.077,0.717-0.143,1.101
			c-0.032,0.392-0.066,0.808-0.136,1.228c-0.085,0.42-0.18,0.854-0.246,1.308c-0.076,0.451-0.154,0.911-0.208,1.375
			c-0.032,0.469-0.064,0.937-0.094,1.399c-0.045,0.463-0.025,0.92-0.032,1.363c-0.016,0.89,0.015,1.716,0.037,2.431
			c0.004,0.715,0.094,1.319,0.105,1.738c0.026,0.421,0.041,0.662,0.041,0.662L13.707,55.29z"/>
		<linearGradient id="SVGID_44_" gradientUnits="userSpaceOnUse" x1="16.9775" y1="49.4155" x2="21.1539" y2="49.4155">
			<stop  offset="0" style="stop-color:#599200"/>
			<stop  offset="0.2239" style="stop-color:#4F8100"/>
			<stop  offset="0.7249" style="stop-color:#3C6000"/>
			<stop  offset="1" style="stop-color:#355400"/>
		</linearGradient>
		<path clip-path="url(#SVGID_8_)" fill="url(#SVGID_44_)" d="M18.358,55.203c0,0,0.14-0.144,0.387-0.396
			c0.137-0.12,0.25-0.292,0.367-0.481c0.058-0.095,0.13-0.185,0.188-0.297c0.047-0.117,0.098-0.242,0.151-0.37
			c0.127-0.243,0.144-0.56,0.222-0.856c0.006-0.322,0.071-0.641,0.027-0.993c-0.005-0.344-0.071-0.703-0.126-1.063
			c-0.073-0.362-0.15-0.728-0.265-1.092c-0.106-0.363-0.24-0.72-0.396-1.067c-0.141-0.347-0.313-0.685-0.427-1.022
			c-0.246-0.678-0.409-1.342-0.53-1.934c-0.12-0.589-0.199-1.099-0.22-1.472c-0.032-0.37-0.02-0.596-0.02-0.596l0.164-0.077
			c0,0,0.711,0.545,1.404,1.576c0.358,0.507,0.711,1.145,0.978,1.874c0.111,0.376,0.22,0.763,0.277,1.178
			c0.074,0.407,0.132,0.825,0.187,1.246c0.062,0.416,0.088,0.845,0.107,1.264c0.006,0.423-0.005,0.837-0.071,1.243
			c-0.031,0.401-0.164,0.791-0.26,1.145c-0.167,0.344-0.268,0.683-0.479,0.943c-0.093,0.132-0.181,0.26-0.265,0.381
			c-0.096,0.115-0.208,0.212-0.3,0.305c-0.189,0.193-0.356,0.339-0.512,0.416c-0.303,0.184-0.473,0.288-0.473,0.288L18.358,55.203z"
			/>
		<linearGradient id="SVGID_45_" gradientUnits="userSpaceOnUse" x1="7.6714" y1="51.0454" x2="14.3238" y2="51.0454">
			<stop  offset="0" style="stop-color:#599200"/>
			<stop  offset="0.2239" style="stop-color:#4F8100"/>
			<stop  offset="0.7249" style="stop-color:#3C6000"/>
			<stop  offset="1" style="stop-color:#355400"/>
		</linearGradient>
		<path clip-path="url(#SVGID_8_)" fill="url(#SVGID_45_)" d="M13.337,58c0,0-0.062-0.225-0.168-0.618
			c-0.051-0.196-0.114-0.434-0.185-0.708c-0.076-0.272-0.136-0.589-0.26-0.909c-0.239-0.648-0.452-1.396-0.792-2.188
			c-0.3-0.796-0.685-1.622-1.079-2.442c-0.4-0.821-0.882-1.597-1.258-2.372c-0.353-0.78-0.609-1.551-0.793-2.232
			c-0.38-1.358-0.385-2.369-0.386-2.369l0.166-0.074c0,0,0.192,0.169,0.476,0.484c0.29,0.311,0.649,0.773,1.056,1.349
			c0.403,0.574,0.828,1.269,1.195,2.064c0.178,0.397,0.327,0.828,0.461,1.274c0.13,0.446,0.299,0.879,0.426,1.338
			c0.281,0.9,0.547,1.803,0.736,2.668c0.104,0.429,0.212,0.84,0.26,1.251c0.059,0.403,0.115,0.783,0.166,1.135
			c0.064,0.349,0.062,0.666,0.085,0.948c0.017,0.283,0.029,0.528,0.042,0.731c0.02,0.405,0.03,0.638,0.03,0.638L13.337,58z"/>
		<linearGradient id="SVGID_46_" gradientUnits="userSpaceOnUse" x1="14.8979" y1="49.5381" x2="18.2349" y2="49.5381">
			<stop  offset="0" style="stop-color:#599200"/>
			<stop  offset="0.2239" style="stop-color:#4F8100"/>
			<stop  offset="0.7249" style="stop-color:#3C6000"/>
			<stop  offset="1" style="stop-color:#355400"/>
		</linearGradient>
		<path clip-path="url(#SVGID_8_)" fill="url(#SVGID_46_)" d="M16.418,57.097c0,0-0.065-0.233-0.179-0.639
			c-0.108-0.409-0.286-0.979-0.427-1.696c-0.075-0.358-0.159-0.745-0.245-1.155c-0.097-0.412-0.129-0.849-0.201-1.303
			c-0.057-0.453-0.144-0.919-0.166-1.403c-0.036-0.481-0.071-0.973-0.108-1.463c-0.028-0.493-0.012-0.988-0.033-1.479
			c-0.033-0.492-0.007-0.976,0.07-1.442c0.079-0.466,0.151-0.914,0.289-1.328c0.15-0.41,0.307-0.793,0.466-1.14
			c0.277-0.703,0.726-1.208,0.995-1.554c0.284-0.345,0.471-0.517,0.471-0.517l0.16,0.082c0,0,0.001,0.27-0.039,0.698
			c-0.018,0.215-0.051,0.471-0.094,0.752c-0.063,0.274-0.076,0.602-0.107,0.951c-0.03,0.349-0.077,0.718-0.143,1.1
			c-0.033,0.393-0.066,0.807-0.136,1.229c-0.085,0.42-0.179,0.854-0.245,1.308c-0.077,0.451-0.155,0.91-0.209,1.377
			c-0.031,0.468-0.063,0.936-0.092,1.397c-0.045,0.463-0.025,0.921-0.032,1.364c-0.015,0.889,0.016,1.716,0.038,2.431
			c0.003,0.715,0.092,1.318,0.104,1.738c0.026,0.421,0.042,0.663,0.042,0.663L16.418,57.097z"/>
		<linearGradient id="SVGID_47_" gradientUnits="userSpaceOnUse" x1="19.6895" y1="51.2236" x2="23.8645" y2="51.2236">
			<stop  offset="0" style="stop-color:#599200"/>
			<stop  offset="0.2239" style="stop-color:#4F8100"/>
			<stop  offset="0.7249" style="stop-color:#3C6000"/>
			<stop  offset="1" style="stop-color:#355400"/>
		</linearGradient>
		<path clip-path="url(#SVGID_8_)" fill="url(#SVGID_47_)" d="M21.069,57.011c0,0,0.141-0.144,0.387-0.396
			c0.138-0.119,0.251-0.292,0.367-0.481c0.058-0.095,0.131-0.185,0.188-0.296c0.047-0.118,0.098-0.242,0.151-0.371
			c0.128-0.242,0.145-0.56,0.223-0.854c0.006-0.323,0.071-0.642,0.027-0.993c-0.005-0.344-0.071-0.703-0.125-1.064
			c-0.076-0.362-0.152-0.728-0.266-1.091c-0.107-0.364-0.241-0.72-0.397-1.067c-0.141-0.347-0.312-0.685-0.427-1.024
			c-0.246-0.677-0.408-1.341-0.53-1.933c-0.12-0.589-0.2-1.1-0.22-1.473c-0.031-0.37-0.02-0.595-0.02-0.595l0.164-0.076
			c0,0,0.711,0.544,1.404,1.573c0.358,0.51,0.711,1.146,0.978,1.875c0.111,0.377,0.22,0.763,0.277,1.179
			c0.073,0.407,0.132,0.825,0.187,1.245c0.062,0.417,0.088,0.845,0.107,1.263c0.005,0.424-0.005,0.838-0.071,1.244
			c-0.03,0.401-0.166,0.79-0.26,1.145c-0.167,0.345-0.27,0.682-0.479,0.943c-0.093,0.132-0.181,0.259-0.265,0.382
			c-0.096,0.115-0.208,0.21-0.302,0.304c-0.189,0.192-0.354,0.339-0.512,0.416c-0.302,0.184-0.473,0.288-0.473,0.288L21.069,57.011z
			"/>
		<linearGradient id="SVGID_48_" gradientUnits="userSpaceOnUse" x1="27.8232" y1="51.2236" x2="31.9996" y2="51.2236">
			<stop  offset="0" style="stop-color:#599200"/>
			<stop  offset="0.2239" style="stop-color:#4F8100"/>
			<stop  offset="0.7249" style="stop-color:#3C6000"/>
			<stop  offset="1" style="stop-color:#355400"/>
		</linearGradient>
		<path clip-path="url(#SVGID_8_)" fill="url(#SVGID_48_)" d="M29.204,57.011c0,0,0.141-0.144,0.387-0.396
			c0.137-0.119,0.25-0.292,0.367-0.481c0.058-0.095,0.13-0.185,0.188-0.296c0.048-0.118,0.098-0.242,0.151-0.371
			c0.128-0.242,0.146-0.56,0.222-0.854c0.006-0.323,0.071-0.642,0.027-0.993c-0.005-0.344-0.071-0.703-0.125-1.064
			c-0.075-0.362-0.152-0.728-0.265-1.091c-0.107-0.364-0.241-0.72-0.397-1.067c-0.141-0.347-0.312-0.685-0.426-1.024
			c-0.246-0.677-0.409-1.341-0.531-1.933c-0.12-0.589-0.199-1.1-0.22-1.473c-0.031-0.37-0.02-0.595-0.02-0.595l0.165-0.076
			c0,0,0.71,0.544,1.402,1.573c0.359,0.51,0.712,1.146,0.978,1.875c0.111,0.377,0.221,0.763,0.277,1.179
			c0.075,0.407,0.133,0.825,0.188,1.245c0.061,0.417,0.088,0.845,0.108,1.263c0.005,0.424-0.006,0.838-0.072,1.244
			c-0.031,0.401-0.166,0.79-0.26,1.145c-0.167,0.345-0.269,0.682-0.479,0.943c-0.093,0.132-0.18,0.259-0.264,0.382
			c-0.097,0.115-0.208,0.21-0.301,0.304c-0.189,0.192-0.355,0.339-0.512,0.416c-0.302,0.184-0.473,0.288-0.473,0.288L29.204,57.011z
			"/>
	</g>
</g>
<g id="Layer_4">
</g>
</svg>
